<?xml version="1.0" encoding="UTF-8"?>
<!DOCTYPE score-partwise PUBLIC "-//Recordare//DTD MusicXML 3.1 Partwise//EN" "http://www.musicxml.org/dtds/partwise.dtd">
<score-partwise version="3.1">
  <work><work-title>The Master's Palette - IV. German Development</work-title></work>
  <identification>
    <creator type="composer">Original Composition</creator>
    <rights>(C) 2025 Michael Bryant. All Rights Reserved.</rights>
    <encoding><software>2-Movement Excellence Engine</software><encoding-date>2025-12-11</encoding-date></encoding>
  </identification>
  <part-list><score-part id="P1"><part-name>Piano</part-name></score-part></part-list>
  <part id="P1">
    <measure number="1">
      <attributes>
        <divisions>256</divisions>
        <key><fifths>0</fifths></key>
        <time><beats>4</beats><beat-type>4</beat-type></time>
        <staves>2</staves>
        <clef number="1"><sign>G</sign><line>2</line></clef>
        <clef number="2"><sign>F</sign><line>4</line></clef>
      </attributes>
      <direction placement="above">
        <direction-type>
          <words font-style="italic">Streng, mit innerer Spannung</words>
          <metronome><beat-unit>quarter</beat-unit><per-minute>66</per-minute></metronome>
        </direction-type>
      </direction>
      <direction placement="above">
        <direction-type>
          <dynamics><f/></dynamics>
        </direction-type>
      </direction>
      <harmony print-frame="no">
        <root><root-step>C</root-step></root>
        <kind>major-seventh</kind>
        <degree><degree-value>9</degree-value><degree-alter>0</degree-alter><degree-type>add</degree-type></degree>
        <degree><degree-value>11</degree-value><degree-alter>1</degree-alter><degree-type>add</degree-type></degree>
        <degree><degree-value>13</degree-value><degree-alter>0</degree-alter><degree-type>add</degree-type></degree>
      </harmony>
      <note>
        <pitch><step>C</step><octave>5</octave></pitch>
        <duration>256</duration><type>quarter</type>
        <staff>1</staff>
        <notations><slur type="start" number="1"/><articulations><accent/></articulations></notations>
      </note>
      <note>
        <pitch><step>D</step><octave>5</octave></pitch>
        <duration>256</duration><type>quarter</type>
        <staff>1</staff>
        <notations><articulations><accent/></articulations></notations>
      </note>
      <note>
        <pitch><step>E</step><octave>5</octave></pitch>
        <duration>256</duration><type>quarter</type>
        <staff>1</staff>
        <notations><articulations><accent/></articulations></notations>
      </note>
      <note>
        <pitch><step>G</step><alter>1</alter><octave>4</octave></pitch>
        <duration>256</duration><type>quarter</type>
        <staff>1</staff>
        <notations><slur type="stop" number="1"/></notations>
      </note>
      <backup><duration>1024</duration></backup>
      <note>
        <pitch><step>C</step><octave>3</octave></pitch>
        <duration>256</duration><type>quarter</type>
        <staff>2</staff>
      </note>
      <note>
        <chord/>
        <pitch><step>G</step><octave>3</octave></pitch>
        <duration>256</duration><type>quarter</type>
        <staff>2</staff>
      </note>
      <note>
        <chord/>
        <pitch><step>B</step><octave>3</octave></pitch>
        <duration>256</duration><type>quarter</type>
        <staff>2</staff>
      </note>
      <note>
        <chord/>
        <pitch><step>F</step><alter>1</alter><octave>4</octave></pitch>
        <duration>256</duration><type>quarter</type>
        <staff>2</staff>
      </note>
      <note>
        <pitch><step>E</step><octave>3</octave></pitch>
        <duration>256</duration><type>quarter</type>
        <staff>2</staff>
      </note>
      <note>
        <chord/>
        <pitch><step>A</step><octave>3</octave></pitch>
        <duration>256</duration><type>quarter</type>
        <staff>2</staff>
      </note>
      <note>
        <chord/>
        <pitch><step>D</step><octave>4</octave></pitch>
        <duration>256</duration><type>quarter</type>
        <staff>2</staff>
      </note>
      <note>
        <pitch><step>G</step><octave>3</octave></pitch>
        <duration>256</duration><type>quarter</type>
        <staff>2</staff>
      </note>
      <note>
        <chord/>
        <pitch><step>C</step><octave>4</octave></pitch>
        <duration>256</duration><type>quarter</type>
        <staff>2</staff>
      </note>
    </measure>
    <measure number="2">
      <harmony print-frame="no">
        <root><root-step>E</root-step></root>
        <kind>minor-seventh</kind>
        <degree><degree-value>9</degree-value><degree-alter>0</degree-alter><degree-type>add</degree-type></degree>
        <degree><degree-value>11</degree-value><degree-alter>0</degree-alter><degree-type>add</degree-type></degree>
        <degree><degree-value>13</degree-value><degree-alter>0</degree-alter><degree-type>add</degree-type></degree>
      </harmony>
      <note>
        <pitch><step>B</step><octave>4</octave></pitch>
        <duration>256</duration><type>quarter</type>
        <staff>1</staff>
        <notations><slur type="start" number="1"/><articulations><accent/></articulations></notations>
      </note>
      <note>
        <pitch><step>D</step><octave>5</octave></pitch>
        <duration>256</duration><type>quarter</type>
        <staff>1</staff>
        <notations><articulations><accent/></articulations></notations>
      </note>
      <note>
        <pitch><step>E</step><alter>-1</alter><octave>5</octave></pitch>
        <duration>256</duration><type>quarter</type>
        <staff>1</staff>
        <notations><articulations><accent/></articulations></notations>
      </note>
      <note>
        <pitch><step>F</step><alter>1</alter><octave>5</octave></pitch>
        <duration>256</duration><type>quarter</type>
        <staff>1</staff>
        <notations><slur type="stop" number="1"/></notations>
      </note>
      <backup><duration>1024</duration></backup>
      <note>
        <pitch><step>E</step><octave>3</octave></pitch>
        <duration>256</duration><type>quarter</type>
        <staff>2</staff>
      </note>
      <note>
        <chord/>
        <pitch><step>B</step><octave>3</octave></pitch>
        <duration>256</duration><type>quarter</type>
        <staff>2</staff>
      </note>
      <note>
        <chord/>
        <pitch><step>D</step><octave>4</octave></pitch>
        <duration>256</duration><type>quarter</type>
        <staff>2</staff>
      </note>
      <note>
        <chord/>
        <pitch><step>G</step><octave>4</octave></pitch>
        <duration>256</duration><type>quarter</type>
        <staff>2</staff>
      </note>
      <note>
        <pitch><step>F</step><alter>1</alter><octave>3</octave></pitch>
        <duration>256</duration><type>quarter</type>
        <staff>2</staff>
      </note>
      <note>
        <chord/>
        <pitch><step>C</step><alter>1</alter><octave>4</octave></pitch>
        <duration>256</duration><type>quarter</type>
        <staff>2</staff>
      </note>
      <note>
        <chord/>
        <pitch><step>E</step><octave>4</octave></pitch>
        <duration>256</duration><type>quarter</type>
        <staff>2</staff>
      </note>
      <note>
        <pitch><step>G</step><octave>3</octave></pitch>
        <duration>256</duration><type>quarter</type>
        <staff>2</staff>
      </note>
      <note>
        <chord/>
        <pitch><step>D</step><octave>4</octave></pitch>
        <duration>256</duration><type>quarter</type>
        <staff>2</staff>
      </note>
    </measure>
    <measure number="3">
      <harmony print-frame="no">
        <root><root-step>A</root-step><root-alter>-1</root-alter></root>
        <kind>augmented</kind>
        <degree><degree-value>9</degree-value><degree-alter>0</degree-alter><degree-type>add</degree-type></degree>
        <degree><degree-value>11</degree-value><degree-alter>1</degree-alter><degree-type>add</degree-type></degree>
        <degree><degree-value>13</degree-value><degree-alter>0</degree-alter><degree-type>add</degree-type></degree>
      </harmony>
      <note>
        <pitch><step>C</step><octave>5</octave></pitch>
        <duration>256</duration><type>quarter</type>
        <staff>1</staff>
        <notations><slur type="start" number="1"/><articulations><accent/></articulations></notations>
      </note>
      <note>
        <pitch><step>B</step><alter>-1</alter><octave>4</octave></pitch>
        <duration>256</duration><type>quarter</type>
        <staff>1</staff>
        <notations><articulations><accent/></articulations></notations>
      </note>
      <note>
        <pitch><step>A</step><alter>-1</alter><octave>4</octave></pitch>
        <duration>256</duration><type>quarter</type>
        <staff>1</staff>
        <notations><articulations><accent/></articulations></notations>
      </note>
      <note>
        <pitch><step>E</step><octave>5</octave></pitch>
        <duration>256</duration><type>quarter</type>
        <staff>1</staff>
        <notations><slur type="stop" number="1"/></notations>
      </note>
      <backup><duration>1024</duration></backup>
      <note>
        <pitch><step>A</step><alter>-1</alter><octave>2</octave></pitch>
        <duration>256</duration><type>quarter</type>
        <staff>2</staff>
      </note>
      <note>
        <chord/>
        <pitch><step>E</step><alter>-1</alter><octave>3</octave></pitch>
        <duration>256</duration><type>quarter</type>
        <staff>2</staff>
      </note>
      <note>
        <chord/>
        <pitch><step>C</step><octave>4</octave></pitch>
        <duration>256</duration><type>quarter</type>
        <staff>2</staff>
      </note>
      <note>
        <pitch><step>B</step><alter>-1</alter><octave>2</octave></pitch>
        <duration>256</duration><type>quarter</type>
        <staff>2</staff>
      </note>
      <note>
        <chord/>
        <pitch><step>F</step><octave>3</octave></pitch>
        <duration>256</duration><type>quarter</type>
        <staff>2</staff>
      </note>
      <note>
        <chord/>
        <pitch><step>D</step><octave>4</octave></pitch>
        <duration>256</duration><type>quarter</type>
        <staff>2</staff>
      </note>
      <note>
        <pitch><step>C</step><octave>3</octave></pitch>
        <duration>256</duration><type>quarter</type>
        <staff>2</staff>
      </note>
      <note>
        <chord/>
        <pitch><step>G</step><octave>3</octave></pitch>
        <duration>256</duration><type>quarter</type>
        <staff>2</staff>
      </note>
    </measure>
    <measure number="4">
      <harmony print-frame="no">
        <root><root-step>D</root-step></root>
        <kind>dominant</kind>
        <degree><degree-value>9</degree-value><degree-alter>-1</degree-alter><degree-type>add</degree-type></degree>
        <degree><degree-value>11</degree-value><degree-alter>1</degree-alter><degree-type>add</degree-type></degree>
        <degree><degree-value>13</degree-value><degree-alter>-1</degree-alter><degree-type>add</degree-type></degree>
      </harmony>
      <note>
        <pitch><step>D</step><octave>5</octave></pitch>
        <duration>256</duration><type>quarter</type>
        <staff>1</staff>
        <notations><slur type="start" number="1"/><articulations><accent/></articulations></notations>
      </note>
      <note>
        <pitch><step>B</step><octave>4</octave></pitch>
        <duration>256</duration><type>quarter</type>
        <staff>1</staff>
        <notations><articulations><accent/></articulations></notations>
      </note>
      <note>
        <pitch><step>G</step><alter>1</alter><octave>4</octave></pitch>
        <duration>256</duration><type>quarter</type>
        <staff>1</staff>
        <notations><articulations><accent/></articulations></notations>
      </note>
      <note>
        <pitch><step>E</step><octave>4</octave></pitch>
        <duration>256</duration><type>quarter</type>
        <staff>1</staff>
        <notations><slur type="stop" number="1"/></notations>
      </note>
      <backup><duration>1024</duration></backup>
      <note>
        <pitch><step>D</step><octave>3</octave></pitch>
        <duration>256</duration><type>quarter</type>
        <staff>2</staff>
      </note>
      <note>
        <chord/>
        <pitch><step>A</step><octave>3</octave></pitch>
        <duration>256</duration><type>quarter</type>
        <staff>2</staff>
      </note>
      <note>
        <chord/>
        <pitch><step>C</step><octave>4</octave></pitch>
        <duration>256</duration><type>quarter</type>
        <staff>2</staff>
      </note>
      <note>
        <chord/>
        <pitch><step>F</step><alter>1</alter><octave>4</octave></pitch>
        <duration>256</duration><type>quarter</type>
        <staff>2</staff>
      </note>
      <note>
        <pitch><step>G</step><alter>1</alter><octave>3</octave></pitch>
        <duration>256</duration><type>quarter</type>
        <staff>2</staff>
      </note>
      <note>
        <chord/>
        <pitch><step>D</step><octave>3</octave></pitch>
        <duration>256</duration><type>quarter</type>
        <staff>2</staff>
      </note>
      <note>
        <chord/>
        <pitch><step>B</step><octave>3</octave></pitch>
        <duration>256</duration><type>quarter</type>
        <staff>2</staff>
      </note>
      <note>
        <pitch><step>E</step><octave>3</octave></pitch>
        <duration>256</duration><type>quarter</type>
        <staff>2</staff>
      </note>
      <note>
        <chord/>
        <pitch><step>A</step><octave>3</octave></pitch>
        <duration>256</duration><type>quarter</type>
        <staff>2</staff>
      </note>
    </measure>
    <measure number="5">
      <direction placement="above">
        <direction-type>
          <words font-style="italic">Breiter</words>
        </direction-type>
      </direction>
      <direction placement="above">
        <direction-type>
          <dynamics><mf/></dynamics>
        </direction-type>
      </direction>
      <harmony print-frame="no">
        <root><root-step>F</root-step></root>
        <kind>major-seventh</kind>
        <degree><degree-value>9</degree-value><degree-alter>0</degree-alter><degree-type>add</degree-type></degree>
        <degree><degree-value>11</degree-value><degree-alter>1</degree-alter><degree-type>add</degree-type></degree>
        <degree><degree-value>13</degree-value><degree-alter>0</degree-alter><degree-type>add</degree-type></degree>
      </harmony>
      <note>
        <pitch><step>C</step><octave>5</octave></pitch>
        <duration>512</duration><type>half</type>
        <staff>1</staff>
        <notations><slur type="start" number="1"/><articulations><accent/></articulations></notations>
      </note>
      <note>
        <pitch><step>D</step><octave>5</octave></pitch>
        <duration>512</duration><type>half</type>
        <staff>1</staff>
        <notations><slur type="stop" number="1"/><articulations><accent/></articulations></notations>
      </note>
      <backup><duration>1024</duration></backup>
      <note>
        <pitch><step>F</step><octave>2</octave></pitch>
        <duration>256</duration><type>quarter</type>
        <staff>2</staff>
      </note>
      <note>
        <chord/>
        <pitch><step>C</step><octave>3</octave></pitch>
        <duration>256</duration><type>quarter</type>
        <staff>2</staff>
      </note>
      <note>
        <chord/>
        <pitch><step>E</step><octave>3</octave></pitch>
        <duration>256</duration><type>quarter</type>
        <staff>2</staff>
      </note>
      <note>
        <chord/>
        <pitch><step>B</step><octave>3</octave></pitch>
        <duration>256</duration><type>quarter</type>
        <staff>2</staff>
      </note>
      <note>
        <pitch><step>G</step><octave>2</octave></pitch>
        <duration>256</duration><type>quarter</type>
        <staff>2</staff>
      </note>
      <note>
        <chord/>
        <pitch><step>D</step><octave>3</octave></pitch>
        <duration>256</duration><type>quarter</type>
        <staff>2</staff>
      </note>
      <note>
        <chord/>
        <pitch><step>F</step><alter>1</alter><octave>3</octave></pitch>
        <duration>256</duration><type>quarter</type>
        <staff>2</staff>
      </note>
      <note>
        <pitch><step>A</step><octave>2</octave></pitch>
        <duration>256</duration><type>quarter</type>
        <staff>2</staff>
      </note>
      <note>
        <chord/>
        <pitch><step>E</step><octave>3</octave></pitch>
        <duration>256</duration><type>quarter</type>
        <staff>2</staff>
      </note>
      <note>
        <chord/>
        <pitch><step>G</step><alter>1</alter><octave>3</octave></pitch>
        <duration>256</duration><type>quarter</type>
        <staff>2</staff>
      </note>
    </measure>
    <measure number="6">
      <harmony print-frame="no">
        <root><root-step>B</root-step></root>
        <kind>half-diminished</kind>
        <degree><degree-value>9</degree-value><degree-alter>0</degree-alter><degree-type>add</degree-type></degree>
        <degree><degree-value>11</degree-value><degree-alter>0</degree-alter><degree-type>add</degree-type></degree>
        <degree><degree-value>13</degree-value><degree-alter>-1</degree-alter><degree-type>add</degree-type></degree>
      </harmony>
      <note>
        <pitch><step>E</step><octave>5</octave></pitch>
        <duration>512</duration><type>half</type>
        <staff>1</staff>
        <notations><slur type="start" number="1"/><articulations><accent/></articulations></notations>
      </note>
      <note>
        <pitch><step>G</step><alter>1</alter><octave>4</octave></pitch>
        <duration>512</duration><type>half</type>
        <staff>1</staff>
        <notations><slur type="stop" number="1"/><articulations><accent/></articulations></notations>
      </note>
      <backup><duration>1024</duration></backup>
      <note>
        <pitch><step>B</step><octave>2</octave></pitch>
        <duration>256</duration><type>quarter</type>
        <staff>2</staff>
      </note>
      <note>
        <chord/>
        <pitch><step>F</step><octave>3</octave></pitch>
        <duration>256</duration><type>quarter</type>
        <staff>2</staff>
      </note>
      <note>
        <chord/>
        <pitch><step>A</step><octave>3</octave></pitch>
        <duration>256</duration><type>quarter</type>
        <staff>2</staff>
      </note>
      <note>
        <chord/>
        <pitch><step>D</step><octave>4</octave></pitch>
        <duration>256</duration><type>quarter</type>
        <staff>2</staff>
      </note>
      <note>
        <pitch><step>E</step><octave>3</octave></pitch>
        <duration>256</duration><type>quarter</type>
        <staff>2</staff>
      </note>
      <note>
        <chord/>
        <pitch><step>A</step><octave>3</octave></pitch>
        <duration>256</duration><type>quarter</type>
        <staff>2</staff>
      </note>
      <note>
        <chord/>
        <pitch><step>C</step><octave>4</octave></pitch>
        <duration>256</duration><type>quarter</type>
        <staff>2</staff>
      </note>
      <note>
        <pitch><step>G</step><alter>1</alter><octave>3</octave></pitch>
        <duration>256</duration><type>quarter</type>
        <staff>2</staff>
      </note>
      <note>
        <chord/>
        <pitch><step>D</step><octave>4</octave></pitch>
        <duration>256</duration><type>quarter</type>
        <staff>2</staff>
      </note>
    </measure>
    <measure number="7">
      <direction placement="above">
        <direction-type>
          <dynamics><f/></dynamics>
        </direction-type>
      </direction>
      <harmony print-frame="no">
        <root><root-step>A</root-step></root>
        <kind>minor-seventh</kind>
        <degree><degree-value>9</degree-value><degree-alter>0</degree-alter><degree-type>add</degree-type></degree>
        <degree><degree-value>11</degree-value><degree-alter>0</degree-alter><degree-type>add</degree-type></degree>
        <degree><degree-value>13</degree-value><degree-alter>0</degree-alter><degree-type>add</degree-type></degree>
      </harmony>
      <note>
        <pitch><step>C</step><octave>5</octave></pitch>
        <duration>128</duration><type>eighth</type>
        <staff>1</staff>
        <notations><slur type="start" number="1"/><articulations><accent/></articulations></notations>
      </note>
      <note>
        <pitch><step>D</step><octave>5</octave></pitch>
        <duration>128</duration><type>eighth</type>
        <staff>1</staff>
        <notations><articulations><accent/></articulations></notations>
      </note>
      <note>
        <pitch><step>E</step><octave>5</octave></pitch>
        <duration>128</duration><type>eighth</type>
        <staff>1</staff>
        <notations><articulations><accent/></articulations></notations>
      </note>
      <note>
        <pitch><step>G</step><alter>1</alter><octave>4</octave></pitch>
        <duration>128</duration><type>eighth</type>
        <staff>1</staff>
      </note>
      <note>
        <pitch><step>B</step><octave>4</octave></pitch>
        <duration>256</duration><type>quarter</type>
        <staff>1</staff>
        <notations><articulations><accent/></articulations></notations>
      </note>
      <note>
        <pitch><step>D</step><octave>5</octave></pitch>
        <duration>128</duration><type>eighth</type>
        <staff>1</staff>
      </note>
      <note>
        <pitch><step>C</step><octave>5</octave></pitch>
        <duration>128</duration><type>eighth</type>
        <staff>1</staff>
        <notations><slur type="stop" number="1"/></notations>
      </note>
      <backup><duration>1024</duration></backup>
      <note>
        <pitch><step>A</step><octave>2</octave></pitch>
        <duration>256</duration><type>quarter</type>
        <staff>2</staff>
      </note>
      <note>
        <chord/>
        <pitch><step>E</step><octave>3</octave></pitch>
        <duration>256</duration><type>quarter</type>
        <staff>2</staff>
      </note>
      <note>
        <chord/>
        <pitch><step>G</step><octave>3</octave></pitch>
        <duration>256</duration><type>quarter</type>
        <staff>2</staff>
      </note>
      <note>
        <chord/>
        <pitch><step>C</step><octave>4</octave></pitch>
        <duration>256</duration><type>quarter</type>
        <staff>2</staff>
      </note>
      <note>
        <pitch><step>D</step><octave>3</octave></pitch>
        <duration>256</duration><type>quarter</type>
        <staff>2</staff>
      </note>
      <note>
        <chord/>
        <pitch><step>A</step><octave>3</octave></pitch>
        <duration>256</duration><type>quarter</type>
        <staff>2</staff>
      </note>
      <note>
        <chord/>
        <pitch><step>C</step><octave>4</octave></pitch>
        <duration>256</duration><type>quarter</type>
        <staff>2</staff>
      </note>
      <note>
        <pitch><step>F</step><octave>3</octave></pitch>
        <duration>256</duration><type>quarter</type>
        <staff>2</staff>
      </note>
      <note>
        <chord/>
        <pitch><step>B</step><octave>3</octave></pitch>
        <duration>256</duration><type>quarter</type>
        <staff>2</staff>
      </note>
    </measure>
    <measure number="8">
      <harmony print-frame="no">
        <root><root-step>E</root-step></root>
        <kind>dominant</kind>
        <degree><degree-value>9</degree-value><degree-alter>1</degree-alter><degree-type>add</degree-type></degree>
        <degree><degree-value>11</degree-value><degree-alter>0</degree-alter><degree-type>add</degree-type></degree>
        <degree><degree-value>13</degree-value><degree-alter>-1</degree-alter><degree-type>add</degree-type></degree>
      </harmony>
      <note>
        <pitch><step>E</step><octave>5</octave></pitch>
        <duration>256</duration><type>quarter</type>
        <staff>1</staff>
        <notations><slur type="start" number="1"/><articulations><accent/></articulations></notations>
      </note>
      <note>
        <pitch><step>G</step><alter>1</alter><octave>3</octave></pitch>
        <duration>256</duration><type>quarter</type>
        <staff>1</staff>
        <notations><articulations><accent/></articulations></notations>
      </note>
      <note>
        <pitch><step>D</step><octave>6</octave></pitch>
        <duration>256</duration><type>quarter</type>
        <staff>1</staff>
        <notations><articulations><accent/></articulations></notations>
      </note>
      <note>
        <pitch><step>B</step><octave>4</octave></pitch>
        <duration>256</duration><type>quarter</type>
        <staff>1</staff>
        <notations><slur type="stop" number="1"/></notations>
      </note>
      <backup><duration>1024</duration></backup>
      <note>
        <pitch><step>E</step><octave>2</octave></pitch>
        <duration>256</duration><type>quarter</type>
        <staff>2</staff>
      </note>
      <note>
        <chord/>
        <pitch><step>B</step><octave>2</octave></pitch>
        <duration>256</duration><type>quarter</type>
        <staff>2</staff>
      </note>
      <note>
        <chord/>
        <pitch><step>G</step><alter>1</alter><octave>3</octave></pitch>
        <duration>256</duration><type>quarter</type>
        <staff>2</staff>
      </note>
      <note>
        <chord/>
        <pitch><step>D</step><octave>4</octave></pitch>
        <duration>256</duration><type>quarter</type>
        <staff>2</staff>
      </note>
      <note>
        <pitch><step>A</step><octave>2</octave></pitch>
        <duration>256</duration><type>quarter</type>
        <staff>2</staff>
      </note>
      <note>
        <chord/>
        <pitch><step>E</step><octave>3</octave></pitch>
        <duration>256</duration><type>quarter</type>
        <staff>2</staff>
      </note>
      <note>
        <chord/>
        <pitch><step>C</step><octave>4</octave></pitch>
        <duration>256</duration><type>quarter</type>
        <staff>2</staff>
      </note>
      <note>
        <pitch><step>F</step><octave>3</octave></pitch>
        <duration>256</duration><type>quarter</type>
        <staff>2</staff>
      </note>
      <note>
        <chord/>
        <pitch><step>B</step><octave>3</octave></pitch>
        <duration>256</duration><type>quarter</type>
        <staff>2</staff>
      </note>
    </measure>
    <measure number="9">
      <direction placement="above">
        <direction-type>
          <words font-style="italic">Ankunft</words>
        </direction-type>
      </direction>
      <direction placement="above">
        <direction-type>
          <dynamics><ff/></dynamics>
        </direction-type>
      </direction>
      <harmony print-frame="no">
        <root><root-step>C</root-step></root>
        <kind>major-seventh</kind>
        <degree><degree-value>9</degree-value><degree-alter>0</degree-alter><degree-type>add</degree-type></degree>
        <degree><degree-value>11</degree-value><degree-alter>1</degree-alter><degree-type>add</degree-type></degree>
        <degree><degree-value>13</degree-value><degree-alter>0</degree-alter><degree-type>add</degree-type></degree>
      </harmony>
      <note>
        <pitch><step>C</step><octave>5</octave></pitch>
        <duration>256</duration><type>quarter</type>
        <staff>1</staff>
        <notations><slur type="start" number="1"/><articulations><accent/></articulations></notations>
      </note>
      <note>
        <pitch><step>E</step><octave>5</octave></pitch>
        <duration>256</duration><type>quarter</type>
        <staff>1</staff>
        <notations><articulations><accent/></articulations></notations>
      </note>
      <note>
        <pitch><step>D</step><octave>5</octave></pitch>
        <duration>256</duration><type>quarter</type>
        <staff>1</staff>
        <notations><articulations><accent/></articulations></notations>
      </note>
      <note>
        <pitch><step>G</step><alter>1</alter><octave>5</octave></pitch>
        <duration>256</duration><type>quarter</type>
        <staff>1</staff>
        <notations><slur type="stop" number="1"/></notations>
      </note>
      <backup><duration>1024</duration></backup>
      <note>
        <pitch><step>C</step><octave>3</octave></pitch>
        <duration>256</duration><type>quarter</type>
        <staff>2</staff>
      </note>
      <note>
        <chord/>
        <pitch><step>G</step><octave>3</octave></pitch>
        <duration>256</duration><type>quarter</type>
        <staff>2</staff>
      </note>
      <note>
        <chord/>
        <pitch><step>B</step><octave>3</octave></pitch>
        <duration>256</duration><type>quarter</type>
        <staff>2</staff>
      </note>
      <note>
        <chord/>
        <pitch><step>F</step><alter>1</alter><octave>4</octave></pitch>
        <duration>256</duration><type>quarter</type>
        <staff>2</staff>
      </note>
      <note>
        <pitch><step>E</step><octave>3</octave></pitch>
        <duration>256</duration><type>quarter</type>
        <staff>2</staff>
      </note>
      <note>
        <chord/>
        <pitch><step>A</step><octave>3</octave></pitch>
        <duration>256</duration><type>quarter</type>
        <staff>2</staff>
      </note>
      <note>
        <chord/>
        <pitch><step>D</step><octave>4</octave></pitch>
        <duration>256</duration><type>quarter</type>
        <staff>2</staff>
      </note>
      <note>
        <pitch><step>G</step><octave>3</octave></pitch>
        <duration>256</duration><type>quarter</type>
        <staff>2</staff>
      </note>
      <note>
        <chord/>
        <pitch><step>C</step><octave>4</octave></pitch>
        <duration>256</duration><type>quarter</type>
        <staff>2</staff>
      </note>
    </measure>
    <measure number="10">
      <harmony print-frame="no">
        <root><root-step>G</root-step></root>
        <kind>dominant</kind>
        <degree><degree-value>9</degree-value><degree-alter>0</degree-alter><degree-type>add</degree-type></degree>
        <degree><degree-value>11</degree-value><degree-alter>1</degree-alter><degree-type>add</degree-type></degree>
        <degree><degree-value>13</degree-value><degree-alter>0</degree-alter><degree-type>add</degree-type></degree>
      </harmony>
      <note>
        <pitch><step>B</step><octave>5</octave></pitch>
        <duration>256</duration><type>quarter</type>
        <staff>1</staff>
        <notations><slur type="start" number="1"/><articulations><accent/></articulations></notations>
      </note>
      <note>
        <pitch><step>D</step><octave>6</octave></pitch>
        <duration>256</duration><type>quarter</type>
        <staff>1</staff>
        <notations><articulations><accent/></articulations></notations>
      </note>
      <note>
        <pitch><step>C</step><octave>6</octave></pitch>
        <duration>256</duration><type>quarter</type>
        <staff>1</staff>
        <notations><articulations><accent/></articulations></notations>
      </note>
      <note>
        <pitch><step>E</step><octave>5</octave></pitch>
        <duration>256</duration><type>quarter</type>
        <staff>1</staff>
        <notations><slur type="stop" number="1"/></notations>
      </note>
      <backup><duration>1024</duration></backup>
      <note>
        <pitch><step>G</step><octave>2</octave></pitch>
        <duration>256</duration><type>quarter</type>
        <staff>2</staff>
      </note>
      <note>
        <chord/>
        <pitch><step>D</step><octave>3</octave></pitch>
        <duration>256</duration><type>quarter</type>
        <staff>2</staff>
      </note>
      <note>
        <chord/>
        <pitch><step>F</step><alter>1</alter><octave>3</octave></pitch>
        <duration>256</duration><type>quarter</type>
        <staff>2</staff>
      </note>
      <note>
        <chord/>
        <pitch><step>C</step><octave>4</octave></pitch>
        <duration>256</duration><type>quarter</type>
        <staff>2</staff>
      </note>
      <note>
        <pitch><step>B</step><octave>2</octave></pitch>
        <duration>256</duration><type>quarter</type>
        <staff>2</staff>
      </note>
      <note>
        <chord/>
        <pitch><step>F</step><octave>3</octave></pitch>
        <duration>256</duration><type>quarter</type>
        <staff>2</staff>
      </note>
      <note>
        <chord/>
        <pitch><step>A</step><octave>3</octave></pitch>
        <duration>256</duration><type>quarter</type>
        <staff>2</staff>
      </note>
      <note>
        <pitch><step>E</step><octave>3</octave></pitch>
        <duration>256</duration><type>quarter</type>
        <staff>2</staff>
      </note>
      <note>
        <chord/>
        <pitch><step>B</step><octave>3</octave></pitch>
        <duration>256</duration><type>quarter</type>
        <staff>2</staff>
      </note>
    </measure>
    <measure number="11">
      <direction placement="above">
        <direction-type>
          <words font-style="italic">rit.</words>
        </direction-type>
      </direction>
      <harmony print-frame="no">
        <root><root-step>D</root-step></root>
        <kind>minor-seventh</kind>
        <degree><degree-value>9</degree-value><degree-alter>0</degree-alter><degree-type>add</degree-type></degree>
        <degree><degree-value>11</degree-value><degree-alter>0</degree-alter><degree-type>add</degree-type></degree>
        <degree><degree-value>13</degree-value><degree-alter>0</degree-alter><degree-type>add</degree-type></degree>
      </harmony>
      <note>
        <pitch><step>D</step><octave>5</octave></pitch>
        <duration>256</duration><type>quarter</type>
        <staff>1</staff>
        <notations><slur type="start" number="1"/><articulations><accent/></articulations></notations>
      </note>
      <note>
        <pitch><step>E</step><octave>5</octave></pitch>
        <duration>256</duration><type>quarter</type>
        <staff>1</staff>
        <notations><articulations><accent/></articulations></notations>
      </note>
      <note>
        <pitch><step>G</step><alter>1</alter><octave>4</octave></pitch>
        <duration>256</duration><type>quarter</type>
        <staff>1</staff>
        <notations><articulations><accent/></articulations></notations>
      </note>
      <note>
        <pitch><step>B</step><octave>4</octave></pitch>
        <duration>256</duration><type>quarter</type>
        <staff>1</staff>
        <notations><slur type="stop" number="1"/></notations>
      </note>
      <backup><duration>1024</duration></backup>
      <note>
        <pitch><step>D</step><octave>3</octave></pitch>
        <duration>256</duration><type>quarter</type>
        <staff>2</staff>
      </note>
      <note>
        <chord/>
        <pitch><step>A</step><octave>3</octave></pitch>
        <duration>256</duration><type>quarter</type>
        <staff>2</staff>
      </note>
      <note>
        <chord/>
        <pitch><step>C</step><octave>4</octave></pitch>
        <duration>256</duration><type>quarter</type>
        <staff>2</staff>
      </note>
      <note>
        <chord/>
        <pitch><step>F</step><octave>4</octave></pitch>
        <duration>256</duration><type>quarter</type>
        <staff>2</staff>
      </note>
      <note>
        <pitch><step>D</step><alter>-1</alter><octave>3</octave></pitch>
        <duration>256</duration><type>quarter</type>
        <staff>2</staff>
      </note>
      <note>
        <chord/>
        <pitch><step>A</step><alter>-1</alter><octave>3</octave></pitch>
        <duration>256</duration><type>quarter</type>
        <staff>2</staff>
      </note>
      <note>
        <chord/>
        <pitch><step>C</step><octave>4</octave></pitch>
        <duration>256</duration><type>quarter</type>
        <staff>2</staff>
      </note>
      <note>
        <pitch><step>G</step><octave>3</octave></pitch>
        <duration>256</duration><type>quarter</type>
        <staff>2</staff>
      </note>
      <note>
        <chord/>
        <pitch><step>C</step><octave>4</octave></pitch>
        <duration>256</duration><type>quarter</type>
        <staff>2</staff>
      </note>
    </measure>
    <measure number="12">
      <direction placement="above">
        <direction-type>
          <dynamics><pp/></dynamics>
        </direction-type>
      </direction>
      <harmony print-frame="no">
        <root><root-step>C</root-step></root>
        <kind>major</kind>
        <degree><degree-value>9</degree-value><degree-alter>0</degree-alter><degree-type>add</degree-type></degree>
        <degree><degree-value>11</degree-value><degree-alter>1</degree-alter><degree-type>add</degree-type></degree>
        <degree><degree-value>13</degree-value><degree-alter>0</degree-alter><degree-type>add</degree-type></degree>
      </harmony>
      <note>
        <pitch><step>D</step><octave>5</octave></pitch>
        <duration>256</duration><type>quarter</type>
        <staff>1</staff>
        <notations><slur type="start" number="1"/><articulations><accent/></articulations></notations>
      </note>
      <note>
        <pitch><step>C</step><octave>5</octave></pitch>
        <duration>768</duration><type>half</type>
        <dot/>
        <staff>1</staff>
        <notations><slur type="stop" number="1"/><fermata type="upright"/></notations>
      </note>
      <backup><duration>1024</duration></backup>
      <note>
        <pitch><step>C</step><octave>2</octave></pitch>
        <duration>256</duration><type>quarter</type>
        <staff>2</staff>
      </note>
      <note>
        <chord/>
        <pitch><step>G</step><octave>2</octave></pitch>
        <duration>256</duration><type>quarter</type>
        <staff>2</staff>
      </note>
      <note>
        <chord/>
        <pitch><step>E</step><octave>3</octave></pitch>
        <duration>256</duration><type>quarter</type>
        <staff>2</staff>
      </note>
      <note>
        <chord/>
        <pitch><step>B</step><octave>3</octave></pitch>
        <duration>256</duration><type>quarter</type>
        <staff>2</staff>
      </note>
      <note>
        <chord/>
        <pitch><step>F</step><alter>1</alter><octave>4</octave></pitch>
        <duration>256</duration><type>quarter</type>
        <staff>2</staff>
      </note>
      <note>
        <pitch><step>C</step><octave>3</octave></pitch>
        <duration>768</duration><type>half</type>
        <dot/>
        <staff>2</staff>
      </note>
      <note>
        <chord/>
        <pitch><step>G</step><octave>3</octave></pitch>
        <duration>768</duration><type>half</type>
        <dot/>
        <staff>2</staff>
      </note>
      <note>
        <chord/>
        <pitch><step>E</step><octave>4</octave></pitch>
        <duration>768</duration><type>half</type>
        <dot/>
        <staff>2</staff>
      </note>
      <barline location="right"><bar-style>light-heavy</bar-style></barline>
    </measure>
  </part>
</score-partwise>
