<?xml version="1.0" encoding="UTF-8"?>
<!DOCTYPE score-partwise PUBLIC "-//Recordare//DTD MusicXML 3.0 Partwise//EN" "http://www.musicxml.org/dtds/partwise.dtd">
<score-partwise version="3.0">
<work><work-title>The Master's Palette (Reimagined) - v16 Parts Edition</work-title></work>
<identification><creator type="composer">Composer TBD</creator>
<encoding><encoding-date>2025-12-10</encoding-date><encoder>V16 Parts Extraction Pass</encoder>
<software>V16 Parts - Professional Extraction</software><supports element="print" type="yes" attribute="new-page" value="yes"/></encoding>
<rights>© 2025 Michael Bryant. All Rights Reserved.</rights></identification>
<credit page="1"><credit-type>rights</credit-type><credit-words font-size="8" justify="center" valign="bottom">© 2025 Michael Bryant. All Rights Reserved.</credit-words></credit>
<defaults>
<scaling><millimeters>6.5</millimeters><tenths>40</tenths></scaling>
<page-layout>
<page-height>1683</page-height><page-width>1190</page-width>
<page-margins type="both">
<left-margin>56</left-margin><right-margin>56</right-margin>
<top-margin>56</top-margin><bottom-margin>56</bottom-margin>
</page-margins>
</page-layout>
<system-layout>
<system-margins><left-margin>0</left-margin><right-margin>0</right-margin></system-margins>
<system-distance>120</system-distance><top-system-distance>70</top-system-distance>
</system-layout>
<staff-layout><staff-distance>65</staff-distance></staff-layout>
<appearance>
<line-width type="staff">1.0</line-width>
<line-width type="barline">1.2</line-width>
<line-width type="stem">1.0</line-width>
<line-width type="beam">5.0</line-width>
<line-width type="slur middle">2.0</line-width>
<line-width type="slur tip">0.5</line-width>
<note-size type="grace">60</note-size>
</appearance>
<music-font font-family="Opus" font-size="20"/>
<word-font font-family="Times New Roman" font-size="10"/>
</defaults>
<part-list>
<score-part id="P1"><part-name print-object="yes">Flute</part-name><part-abbreviation>Fl.</part-abbreviation><score-instrument id="P1-I1"><instrument-name>Flute</instrument-name></score-instrument></score-part>
<score-part id="P2"><part-name print-object="yes">Clarinet in Bb</part-name><part-abbreviation>Cl.</part-abbreviation><score-instrument id="P2-I1"><instrument-name>Clarinet in Bb</instrument-name></score-instrument></score-part>
<score-part id="P3"><part-name print-object="yes">Flugelhorn in Bb</part-name><part-abbreviation>Flhn.</part-abbreviation><score-instrument id="P3-I1"><instrument-name>Flugelhorn in Bb</instrument-name></score-instrument></score-part>
<score-part id="P4"><part-name print-object="yes">Violin</part-name><part-abbreviation>Vln.</part-abbreviation><score-instrument id="P4-I1"><instrument-name>Violin</instrument-name></score-instrument></score-part>
<score-part id="P5"><part-name print-object="yes">Viola</part-name><part-abbreviation>Vla.</part-abbreviation><score-instrument id="P5-I1"><instrument-name>Viola</instrument-name></score-instrument></score-part>
<score-part id="P6"><part-name print-object="yes">Violoncello</part-name><part-abbreviation>Vc.</part-abbreviation><score-instrument id="P6-I1"><instrument-name>Violoncello</instrument-name></score-instrument></score-part>
<score-part id="P7"><part-name print-object="yes">Double Bass</part-name><part-abbreviation>Cb.</part-abbreviation><score-instrument id="P7-I1"><instrument-name>Double Bass</instrument-name></score-instrument></score-part>
<score-part id="P8"><part-name print-object="yes">Classical Guitar</part-name><part-abbreviation>Gtr.</part-abbreviation><score-instrument id="P8-I1"><instrument-name>Classical Guitar</instrument-name></score-instrument></score-part>
</part-list>
<part id="P1">
<measure number="1"><attributes><divisions>256</divisions><key><fifths>-3</fifths><mode>minor</mode></key><time><beats>7</beats><beat-type>4</beat-type></time><clef><sign>G</sign><line>2</line></clef><measure-style><multiple-rest>6</multiple-rest></measure-style></attributes>
<direction><direction-type><words font-weight="bold">I. Mingus Blues Cathedral</words></direction-type></direction>
<direction><direction-type><metronome><beat-unit>quarter</beat-unit><per-minute>92</per-minute></metronome></direction-type></direction>
<note><rest/><duration>1792</duration><type>whole</type></note></measure>
<measure number="2"><note><rest/><duration>1792</duration><type>whole</type></note></measure>
<measure number="3"><note><rest/><duration>1792</duration><type>whole</type></note></measure>
<measure number="4"><note><rest/><duration>1792</duration><type>whole</type></note></measure>
<measure number="5"><note><rest/><duration>1792</duration><type>whole</type></note></measure>
<measure number="6"><direction placement="above"><direction-type><words font-style="italic" font-size="7">[cue: Flhn.]</words></direction-type></direction>
<note><rest/><duration>1792</duration><type>whole</type></note></measure>
<measure number="7"><direction placement="above"><direction-type><words font-style="italic" font-size="8">(phrase fall)</words></direction-type></direction>
<direction placement="below"><direction-type><dynamics><mp/></dynamics></direction-type></direction>
<note><pitch><step>D</step><octave>6</octave></pitch><duration>256</duration><type>quarter</type></note>
<note><rest/><duration>1536</duration><type>whole</type></note></measure>
<measure number="8"><note><rest/><duration>1792</duration><type>whole</type></note></measure>
<measure number="9"><note><rest/><duration>1792</duration><type>whole</type></note></measure>
<measure number="10"><direction placement="below"><direction-type><dynamics><mf/></dynamics></direction-type></direction>
<note><rest/><duration>256</duration><type>quarter</type></note>
<note><pitch><step>F</step><octave>6</octave></pitch><duration>256</duration><type>quarter</type></note>
<note><pitch><step>A</step><alter>-1</alter><octave>6</octave></pitch><duration>256</duration><type>quarter</type></note>
<note><rest/><duration>1024</duration><type>whole</type></note></measure>
<measure number="11"><direction placement="below"><direction-type><dynamics><f/></dynamics></direction-type></direction>
<note><pitch><step>A</step><alter>-1</alter><octave>6</octave></pitch><duration>512</duration><type>half</type></note>
<note><pitch><step>G</step><octave>6</octave></pitch><duration>512</duration><type>half</type></note>
<note><pitch><step>C</step><octave>7</octave></pitch><duration>768</duration><type>half</type><dot/></note></measure>
<measure number="12"><direction placement="above"><direction-type><words font-style="italic" font-size="9">subito p, breath - Gtr: sustain harmonic</words></direction-type></direction>
<direction placement="below"><direction-type><wedge type="diminuendo" spread="15"/></direction-type></direction>
<note><pitch><step>B</step><alter>-1</alter><octave>6</octave></pitch><duration>512</duration><type>half</type></note>
<note><rest/><duration>1280</duration><type>whole</type></note></measure>
<measure number="13"><print new-system="yes" new-page="yes"/><!-- V16: Page 2 --><attributes><key><fifths>2</fifths><mode>major</mode></key><time><beats>9</beats><beat-type>8</beat-type></time></attributes>
<direction><direction-type><words font-weight="bold">II. Gil's Orchestral Canvas</words></direction-type></direction>
<direction><direction-type><metronome><beat-unit>quarter</beat-unit><per-minute>66</per-minute></metronome></direction-type></direction>
<direction placement="below"><direction-type><dynamics><p/></dynamics></direction-type></direction>
<direction><direction-type><words font-style="italic">dolce</words></direction-type></direction>
<note><pitch><step>A</step><octave>5</octave></pitch><duration>384</duration><type>quarter</type><dot/></note>
<note><rest/><duration>768</duration><type>half</type><dot/></note></measure>
<measure number="14"><note><pitch><step>G</step><octave>5</octave></pitch><duration>768</duration><type>half</type><dot/></note>
<note><pitch><step>A</step><octave>5</octave></pitch><duration>384</duration><type>quarter</type><dot/><notations><articulations><breath-mark>comma</breath-mark></articulations></notations></note></measure>
<measure number="15"><direction placement="above"><direction-type><words font-style="italic">flute halo - ethereal, background pp</words></direction-type></direction>
<direction placement="below"><direction-type><dynamics><pp/></dynamics></direction-type></direction>
<note><rest/><duration>1152</duration><type>whole</type></note></measure>
<measure number="16"><note><rest/><duration>1152</duration><type>whole</type></note></measure>
<measure number="17"><print new-system="yes" new-page="yes"/><!-- V16: Page 3 --><attributes><key><fifths>0</fifths><mode>minor</mode></key><time><beats>5</beats><beat-type>8</beat-type></time></attributes>
<direction><direction-type><words font-weight="bold">III. Bartók Night Music</words></direction-type></direction>
<direction placement="above"><direction-type><rehearsal font-weight="bold" font-size="14" halign="center" valign="top">C</rehearsal></direction-type></direction>
<direction placement="above"><direction-type><words font-style="italic">Bartók night-music: flutter-tongue, insect tremors</words></direction-type></direction>
<direction placement="below"><direction-type><dynamics><pp/></dynamics></direction-type></direction>
<direction><direction-type><metronome><beat-unit>quarter</beat-unit><per-minute>84</per-minute></metronome></direction-type></direction>
<note><pitch><step>A</step><octave>5</octave></pitch><duration>128</duration><type>eighth</type><notations><articulations><staccato/></articulations></notations></note>
<note><rest/><duration>512</duration><type>half</type></note></measure>
<measure number="18"><attributes><time><beats>7</beats><beat-type>8</beat-type></time></attributes>
<note><rest/><duration>896</duration><type>whole</type></note></measure>
<measure number="19"><attributes><time><beats>5</beats><beat-type>8</beat-type></time></attributes>
<direction placement="above"><direction-type><words font-style="italic" font-weight="bold">STRUCTURAL SILENCE - niente (strings: harmonics)</words></direction-type></direction>
<direction placement="below"><direction-type><dynamics><ppp/></dynamics></direction-type></direction>
<note><pitch><step>F</step><octave>5</octave></pitch><duration>640</duration><type>half</type><dot/><dot/><notations><fermata type="upright"/></notations></note></measure>
<measure number="20"><attributes><time><beats>7</beats><beat-type>8</beat-type></time></attributes>
<note><rest/><duration>384</duration><type>quarter</type><dot/></note>
<note><pitch><step>F</step><octave>5</octave></pitch><duration>256</duration><type>quarter</type></note>
<note><rest/><duration>256</duration><type>quarter</type></note></measure>
<measure number="21"><print new-system="yes" new-page="yes"/><!-- V16: Page 4 --><attributes><key><fifths>0</fifths><mode>major</mode></key><time><beats>11</beats><beat-type>8</beat-type></time></attributes>
<direction placement="above"><direction-type><rehearsal font-weight="bold" font-size="14" halign="center" valign="top">D</rehearsal></direction-type></direction>
<direction><direction-type><words font-weight="bold">IV. Klangfarbenmelodie II</words></direction-type></direction>
<direction placement="above"><direction-type><words font-style="italic">sostenuto, timbral passing, Fortspinnung</words></direction-type></direction>
<direction placement="below"><direction-type><dynamics><mf/></dynamics></direction-type></direction>
<direction><direction-type><metronome><beat-unit>quarter</beat-unit><per-minute>72</per-minute></metronome></direction-type></direction>
<note><rest/><duration>640</duration><type>half</type><dot/></note>
<note><pitch><step>A</step><octave>5</octave></pitch><duration>256</duration><type>quarter</type></note>
<note><pitch><step>G</step><octave>5</octave></pitch><duration>128</duration><type>eighth</type></note>
<note><pitch><step>E</step><octave>5</octave></pitch><duration>128</duration><type>eighth</type></note>
<note><rest/><duration>256</duration><type>quarter</type></note></measure>
<measure number="22"><note><rest/><duration>512</duration><type>half</type></note>
<note><pitch><step>B</step><octave>5</octave></pitch><duration>640</duration><type>half</type><dot/></note>
<note><pitch><step>B</step><octave>5</octave></pitch><duration>256</duration><type>quarter</type></note></measure>
<measure number="23"><attributes><time><beats>4</beats><beat-type>4</beat-type></time></attributes>
<direction placement="above"><direction-type><words font-style="italic" font-size="8">breath - prepare apotheosis</words></direction-type></direction>
<direction placement="below"><direction-type><dynamics><f/></dynamics></direction-type></direction>
<direction><direction-type><metronome><beat-unit>quarter</beat-unit><per-minute>92</per-minute></metronome></direction-type></direction>
<note><pitch><step>E</step><octave>5</octave></pitch><duration>512</duration><type>half</type></note>
<note><pitch><step>C</step><octave>6</octave></pitch><duration>256</duration><type>quarter</type></note>
<note><pitch><step>B</step><octave>5</octave></pitch><duration>256</duration><type>quarter</type></note></measure>
<measure number="24"><direction placement="above"><direction-type><rehearsal font-weight="bold" font-size="14" halign="center" valign="top">E</rehearsal></direction-type></direction>
<direction placement="above"><direction-type><words font-style="italic" font-weight="bold">CLIMAX IV - CHORALE, tutti apotheosis</words></direction-type></direction>
<direction placement="below"><direction-type><dynamics><ff/></dynamics></direction-type></direction>
<note><pitch><step>G</step><octave>6</octave></pitch><duration>768</duration><type>half</type><dot/></note>
<note><pitch><step>G</step><octave>6</octave></pitch><duration>256</duration><type>quarter</type></note></measure>
<measure number="25"><direction placement="above"><direction-type><words font-style="italic" font-weight="bold">luminoso - gentle release, morendo</words></direction-type></direction>
<direction placement="below"><direction-type><dynamics><fff/></dynamics></direction-type></direction>
<direction><direction-type><wedge type="stop"/></direction-type></direction>
<note><pitch><step>C</step><octave>7</octave></pitch><duration>1024</duration><type>whole</type><notations><fermata type="upright"/></notations></note>
<barline><bar-style>light-heavy</bar-style></barline></measure>
</part>
<part id="P2">
<measure number="1"><attributes><divisions>256</divisions><key><fifths>-1</fifths><mode>minor</mode></key><time><beats>7</beats><beat-type>4</beat-type></time><clef><sign>G</sign><line>2</line></clef><transpose><diatonic>-1</diatonic><chromatic>-2</chromatic></transpose></attributes>
<direction placement="above"><direction-type><words font-style="italic">shadow line - blues cell echo, sempre legato</words></direction-type></direction>
<note><rest/><duration>1792</duration><type>whole</type></note></measure>
<measure number="2"><note><rest/><duration>1792</duration><type>whole</type></note></measure>
<measure number="3"><note><rest/><duration>1792</duration><type>whole</type></note></measure>
<measure number="4"><note><rest/><duration>1792</duration><type>whole</type></note></measure>
<measure number="5"><direction placement="below"><direction-type><dynamics><mp/></dynamics></direction-type></direction>
<note><pitch><step>E</step><octave>5</octave></pitch><duration>384</duration><type>quarter</type><dot/><notations><slur type="start" number="1"/></notations></note>
<note><pitch><step>E</step><octave>5</octave></pitch><duration>128</duration><type>eighth</type></note>
<note><pitch><step>D</step><octave>5</octave></pitch><duration>128</duration><type>eighth</type></note>
<note><pitch><step>C</step><octave>5</octave></pitch><duration>256</duration><type>quarter</type><notations><slur type="stop" number="1"/></notations></note>
<note><rest/><duration>896</duration><type>half</type><dot/></note></measure>
<measure number="6"><note><rest/><duration>128</duration><type>eighth</type></note>
<note><pitch><step>D</step><octave>5</octave></pitch><duration>384</duration><type>quarter</type><dot/></note>
<note><pitch><step>F</step><octave>5</octave></pitch><duration>256</duration><type>quarter</type><notations><articulations><breath-mark>comma</breath-mark></articulations></notations></note>
<note><rest/><duration>1024</duration><type>whole</type></note></measure>
<measure number="7"><note><rest/><duration>1792</duration><type>whole</type></note></measure>
<measure number="8"><note><rest/><duration>1792</duration><type>whole</type></note></measure>
<measure number="9"><note><rest/><duration>1792</duration><type>whole</type></note></measure>
<measure number="10"><direction placement="below"><direction-type><dynamics><mf/></dynamics></direction-type></direction>
<note><pitch><step>E</step><octave>5</octave></pitch><duration>256</duration><type>quarter</type></note>
<note><pitch><step>G</step><octave>5</octave></pitch><duration>256</duration><type>quarter</type></note>
<note><pitch><step>B</step><octave>5</octave></pitch><duration>256</duration><type>quarter</type></note>
<note><pitch><step>C</step><octave>6</octave></pitch><duration>256</duration><type>quarter</type></note>
<note><pitch><step>D</step><octave>6</octave></pitch><duration>768</duration><type>half</type><dot/></note></measure>
<measure number="11"><note><pitch><step>C</step><octave>6</octave></pitch><duration>512</duration><type>half</type></note>
<note><pitch><step>B</step><octave>5</octave></pitch><duration>512</duration><type>half</type></note>
<note><pitch><step>A</step><octave>5</octave></pitch><duration>768</duration><type>half</type><dot/></note></measure>
<measure number="12"><note><pitch><step>G</step><octave>5</octave></pitch><duration>512</duration><type>half</type></note>
<note><rest/><duration>1280</duration><type>whole</type></note></measure>
<measure number="13"><attributes><key><fifths>4</fifths><mode>major</mode></key><time><beats>9</beats><beat-type>8</beat-type></time></attributes>
<note><rest/><duration>1152</duration><type>whole</type></note></measure>
<measure number="14"><note><rest/><duration>1152</duration><type>whole</type></note></measure>
<measure number="15"><note><rest/><duration>1152</duration><type>whole</type></note></measure>
<measure number="16"><note><rest/><duration>1152</duration><type>whole</type></note></measure>
<measure number="17"><attributes><key><fifths>2</fifths><mode>minor</mode></key><time><beats>5</beats><beat-type>8</beat-type></time></attributes>
<note><rest/><duration>256</duration><type>quarter</type></note>
<note><pitch><step>C</step><octave>6</octave></pitch><duration>256</duration><type>quarter</type><notations><articulations><tenuto/></articulations></notations></note>
<note><rest/><duration>128</duration><type>eighth</type></note></measure>
<measure number="18"><attributes><time><beats>7</beats><beat-type>8</beat-type></time></attributes>
<note><rest/><duration>256</duration><type>quarter</type></note>
<note><pitch><step>D</step><octave>6</octave></pitch><duration>128</duration><type>eighth</type><notations><articulations><staccato/></articulations></notations></note>
<note><pitch><step>C</step><octave>6</octave></pitch><duration>128</duration><type>eighth</type><notations><articulations><tenuto/></articulations></notations></note>
<note><rest/><duration>384</duration><type>quarter</type><dot/></note></measure>
<measure number="19"><attributes><time><beats>5</beats><beat-type>8</beat-type></time></attributes>
<note><rest/><duration>640</duration><type>whole</type></note></measure>
<measure number="20"><attributes><time><beats>7</beats><beat-type>8</beat-type></time></attributes>
<note><pitch><step>B</step><octave>5</octave></pitch><duration>256</duration><type>quarter</type></note>
<note><rest/><duration>640</duration><type>half</type><dot/></note></measure>
<measure number="21"><attributes><key><fifths>2</fifths><mode>major</mode></key><time><beats>11</beats><beat-type>8</beat-type></time></attributes>
<note><rest/><duration>384</duration><type>quarter</type><dot/></note>
<note><pitch><step>G</step><octave>5</octave></pitch><duration>128</duration><type>eighth</type></note>
<note><rest/><duration>896</duration><type>half</type><dot/></note></measure>
<measure number="22"><note><rest/><duration>1408</duration><type>whole</type></note></measure>
<measure number="23"><attributes><time><beats>4</beats><beat-type>4</beat-type></time></attributes>
<note><pitch><step>D</step><octave>5</octave></pitch><duration>512</duration><type>half</type></note>
<note><pitch><step>F</step><octave>5</octave></pitch><duration>256</duration><type>quarter</type></note>
<note><pitch><step>E</step><octave>5</octave></pitch><duration>256</duration><type>quarter</type></note></measure>
<measure number="24"><note><pitch><step>D</step><octave>5</octave></pitch><duration>768</duration><type>half</type><dot/></note>
<note><pitch><step>D</step><octave>5</octave></pitch><duration>256</duration><type>quarter</type></note></measure>
<measure number="25"><note><pitch><step>E</step><octave>5</octave></pitch><duration>1024</duration><type>whole</type><notations><fermata type="upright"/></notations></note>
<barline><bar-style>light-heavy</bar-style></barline></measure>
</part>
<part id="P3">
<measure number="1"><attributes><divisions>256</divisions><key><fifths>-1</fifths><mode>minor</mode></key><time><beats>7</beats><beat-type>4</beat-type></time><clef><sign>G</sign><line>2</line></clef><transpose><diatonic>-1</diatonic><chromatic>-2</chromatic></transpose></attributes>
<note><rest/><duration>1792</duration><type>whole</type></note></measure>
<measure number="2"><note><rest/><duration>1792</duration><type>whole</type></note></measure>
<measure number="3"><note><rest/><duration>1792</duration><type>whole</type></note></measure>
<measure number="4"><direction><direction-type><rehearsal font-weight="bold" font-size="14" halign="center" valign="top">A</rehearsal></direction-type><offset>-256</offset></direction>
<direction placement="above"><direction-type><words font-style="italic" font-weight="bold">Flugelhorn - espressivo, gospel warmth</words></direction-type></direction>
<direction><direction-type><wedge type="crescendo" spread="0"/></direction-type></direction>
<direction placement="below"><direction-type><dynamics><mf/></dynamics></direction-type></direction>
<note><rest/><duration>768</duration><type>half</type><dot/></note>
<note><pitch><step>D</step><octave>5</octave></pitch><duration>256</duration><type>quarter</type><notations><slur type="start" number="1"/></notations></note>
<note><pitch><step>F</step><octave>5</octave></pitch><duration>256</duration><type>quarter</type></note>
<note><pitch><step>G</step><octave>5</octave></pitch><duration>256</duration><type>quarter</type></note>
<note><pitch><step>A</step><octave>5</octave></pitch><duration>256</duration><type>quarter</type></note></measure>
<measure number="5"><note><pitch><step>A</step><octave>5</octave></pitch><duration>256</duration><type>quarter</type></note>
<note><pitch><step>A</step><octave>5</octave></pitch><duration>128</duration><type>eighth</type></note>
<note><pitch><step>G</step><octave>5</octave></pitch><duration>128</duration><type>eighth</type></note>
<note><pitch><step>F</step><octave>5</octave></pitch><duration>256</duration><type>quarter</type></note>
<note><pitch><step>D</step><octave>5</octave></pitch><duration>256</duration><type>quarter</type></note>
<note><pitch><step>C</step><octave>5</octave></pitch><duration>256</duration><type>quarter</type></note>
<note><pitch><step>D</step><octave>5</octave></pitch><duration>512</duration><type>half</type><notations><slur type="stop" number="1"/><articulations><breath-mark>comma</breath-mark></articulations><dynamics><other-dynamics>slight swell</other-dynamics></dynamics></notations></note></measure>
<measure number="6"><direction placement="above"><direction-type><words font-style="italic" font-size="8">breath</words></direction-type></direction>
<note><pitch><step>F</step><octave>5</octave></pitch><duration>128</duration><type>eighth</type><notations><slur type="start" number="1"/></notations></note>
<note><pitch><step>G</step><octave>5</octave></pitch><duration>384</duration><type>quarter</type><dot/></note>
<note><pitch><step>B</step><octave>5</octave></pitch><duration>256</duration><type>quarter</type></note>
<note><pitch><step>A</step><octave>5</octave></pitch><duration>256</duration><type>quarter</type></note>
<note><pitch><step>G</step><octave>5</octave></pitch><duration>256</duration><type>quarter</type><notations><slur type="stop" number="1"/></notations></note>
<note><rest/><duration>256</duration><type>quarter</type></note>
<note><pitch><step>F</step><octave>5</octave></pitch><duration>256</duration><type>quarter</type></note></measure>
<measure number="7"><note><pitch><step>E</step><octave>5</octave></pitch><duration>256</duration><type>quarter</type><notations><slur type="start" number="1"/></notations></note>
<note><pitch><step>D</step><octave>5</octave></pitch><duration>128</duration><type>eighth</type></note>
<note><pitch><step>C</step><octave>5</octave></pitch><duration>384</duration><type>quarter</type><dot/></note>
<note><pitch><step>D</step><octave>5</octave></pitch><duration>512</duration><type>half</type><notations><slur type="stop" number="1"/></notations></note>
<note><pitch><step>D</step><octave>5</octave></pitch><duration>512</duration><type>half</type></note></measure>
<measure number="8"><note><rest/><duration>128</duration><type>eighth</type></note>
<note><pitch><step>D</step><octave>5</octave></pitch><duration>128</duration><type>eighth</type><notations><slur type="start" number="1"/></notations></note>
<note><pitch><step>F</step><octave>5</octave></pitch><duration>256</duration><type>quarter</type></note>
<note><pitch><step>G</step><octave>5</octave></pitch><duration>256</duration><type>quarter</type></note>
<note><pitch><step>A</step><octave>5</octave></pitch><duration>384</duration><type>quarter</type><dot/></note>
<note><pitch><step>A</step><octave>5</octave></pitch><duration>128</duration><type>eighth</type></note>
<note><pitch><step>B</step><octave>5</octave></pitch><duration>256</duration><type>quarter</type></note>
<note><pitch><step>A</step><octave>5</octave></pitch><duration>256</duration><type>quarter</type><notations><slur type="stop" number="1"/></notations></note></measure>
<measure number="9"><direction><direction-type><wedge type="stop"/></direction-type></direction>
<direction placement="below"><direction-type><dynamics><mp/></dynamics></direction-type></direction>
<direction><direction-type><wedge type="diminuendo" spread="15"/></direction-type></direction>
<note><pitch><step>G</step><octave>5</octave></pitch><duration>512</duration><type>half</type><notations><slur type="start" number="1"/></notations></note>
<note><pitch><step>F</step><octave>5</octave></pitch><duration>256</duration><type>quarter</type></note>
<note><pitch><step>D</step><octave>5</octave></pitch><duration>256</duration><type>quarter</type><notations><slur type="stop" number="1"/></notations></note>
<note><rest/><duration>768</duration><type>half</type><dot/></note></measure>
<measure number="10"><note><rest/><duration>1792</duration><type>whole</type></note></measure>
<measure number="11"><direction placement="below"><direction-type><dynamics><mf/></dynamics></direction-type></direction>
<note><pitch><step>F</step><octave>5</octave></pitch><duration>256</duration><type>quarter</type></note>
<note><pitch><step>E</step><octave>5</octave></pitch><duration>256</duration><type>quarter</type></note>
<note><pitch><step>D</step><octave>5</octave></pitch><duration>256</duration><type>quarter</type></note>
<note><rest/><duration>1024</duration><type>whole</type></note></measure>
<measure number="12"><note><rest/><duration>1792</duration><type>whole</type></note></measure>
<measure number="13"><attributes><key><fifths>4</fifths><mode>major</mode></key><time><beats>9</beats><beat-type>8</beat-type></time></attributes>
<note><rest/><duration>1152</duration><type>whole</type></note></measure>
<measure number="14"><note><rest/><duration>1152</duration><type>whole</type></note></measure>
<measure number="15"><note><rest/><duration>1152</duration><type>whole</type></note></measure>
<measure number="16"><note><rest/><duration>1152</duration><type>whole</type></note></measure>
<measure number="17"><attributes><key><fifths>2</fifths><mode>minor</mode></key><time><beats>5</beats><beat-type>8</beat-type></time></attributes>
<note><rest/><duration>640</duration><type>whole</type></note></measure>
<measure number="18"><attributes><time><beats>7</beats><beat-type>8</beat-type></time></attributes>
<note><rest/><duration>896</duration><type>whole</type></note></measure>
<measure number="19"><attributes><time><beats>5</beats><beat-type>8</beat-type></time></attributes>
<note><rest/><duration>640</duration><type>whole</type></note></measure>
<measure number="20"><attributes><time><beats>7</beats><beat-type>8</beat-type></time></attributes>
<direction placement="above"><direction-type><words font-style="italic" font-size="8">attacca subito</words></direction-type></direction>
<note><rest/><duration>896</duration><type>whole</type></note></measure>
<measure number="21"><attributes><key><fifths>2</fifths><mode>major</mode></key><time><beats>11</beats><beat-type>8</beat-type></time></attributes>
<note><rest/><duration>512</duration><type>half</type></note>
<note><pitch><step>B</step><octave>5</octave></pitch><duration>256</duration><type>quarter</type></note>
<note><rest/><duration>640</duration><type>half</type><dot/></note></measure>
<measure number="22"><note><pitch><step>F</step><alter>1</alter><octave>5</octave></pitch><duration>640</duration><type>half</type><dot/></note>
<note><rest/><duration>768</duration><type>half</type><dot/></note></measure>
<measure number="23"><attributes><time><beats>4</beats><beat-type>4</beat-type></time></attributes>
<direction placement="above"><direction-type><words font-style="italic" font-size="8">breath - prepare apotheosis</words></direction-type></direction>
<direction placement="below"><direction-type><dynamics><f/></dynamics></direction-type></direction>
<note><pitch><step>D</step><octave>5</octave></pitch><duration>512</duration><type>half</type></note>
<note><pitch><step>B</step><octave>5</octave></pitch><duration>256</duration><type>quarter</type></note>
<note><pitch><step>A</step><octave>5</octave></pitch><duration>256</duration><type>quarter</type></note></measure>
<measure number="24"><note><pitch><step>A</step><octave>5</octave></pitch><duration>768</duration><type>half</type><dot/></note>
<note><pitch><step>A</step><octave>5</octave></pitch><duration>256</duration><type>quarter</type></note></measure>
<measure number="25"><note><pitch><step>D</step><octave>6</octave></pitch><duration>1024</duration><type>whole</type><notations><fermata type="upright"/></notations></note><!-- V13: D5 concert - comfortable -->
<barline><bar-style>light-heavy</bar-style></barline></measure>
</part>
<part id="P4">
<measure number="1"><attributes><divisions>256</divisions><key><fifths>-3</fifths><mode>minor</mode></key><time><beats>7</beats><beat-type>4</beat-type></time><clef><sign>G</sign><line>2</line></clef></attributes>
<note><rest/><duration>1792</duration><type>whole</type></note></measure>
<measure number="2"><note><rest/><duration>1792</duration><type>whole</type></note></measure>
<measure number="3"><note><rest/><duration>1792</duration><type>whole</type></note></measure>
<measure number="4"><note><rest/><duration>1792</duration><type>whole</type></note></measure>
<measure number="5"><note><rest/><duration>1792</duration><type>whole</type></note></measure>
<measure number="6"><direction placement="above"><direction-type><words font-style="italic" font-size="7">[cue: Flhn.]</words></direction-type></direction>
<note><rest/><duration>1792</duration><type>whole</type></note></measure>
<measure number="7"><direction placement="below"><direction-type><dynamics><p/></dynamics></direction-type></direction>
<note><pitch><step>D</step><octave>5</octave></pitch><duration>768</duration><type>half</type><dot/></note>
<note><pitch><step>C</step><octave>5</octave></pitch><duration>1024</duration><type>whole</type></note></measure>
<measure number="8"><note><rest/><duration>1792</duration><type>whole</type></note></measure>
<measure number="9"><note><rest/><duration>1792</duration><type>whole</type></note></measure>
<measure number="10"><direction placement="below"><direction-type><dynamics><mf/></dynamics></direction-type></direction>
<direction><direction-type><words font-style="italic">con forza</words></direction-type></direction>
<note><pitch><step>D</step><octave>5</octave></pitch><duration>256</duration><type>quarter</type><notations><slur type="start" number="1"/></notations></note>
<note><pitch><step>F</step><octave>5</octave></pitch><duration>256</duration><type>quarter</type></note>
<note><pitch><step>A</step><alter>-1</alter><octave>5</octave></pitch><duration>256</duration><type>quarter</type></note>
<note><pitch><step>B</step><alter>-1</alter><octave>5</octave></pitch><duration>256</duration><type>quarter</type></note>
<note><pitch><step>C</step><octave>6</octave></pitch><duration>512</duration><type>half</type></note>
<note><pitch><step>B</step><alter>-1</alter><octave>5</octave></pitch><duration>256</duration><type>quarter</type><notations><slur type="stop" number="1"/></notations></note></measure>
<measure number="11"><direction placement="below"><direction-type><dynamics><f/></dynamics></direction-type></direction>
<note><pitch><step>A</step><alter>-1</alter><octave>5</octave></pitch><duration>256</duration><type>quarter</type><notations><slur type="start" number="1"/></notations></note>
<note><pitch><step>G</step><octave>5</octave></pitch><duration>128</duration><type>eighth</type></note>
<note><pitch><step>F</step><octave>5</octave></pitch><duration>128</duration><type>eighth</type></note>
<note><pitch><step>E</step><alter>-1</alter><octave>5</octave></pitch><duration>256</duration><type>quarter</type></note>
<note><pitch><step>F</step><octave>5</octave></pitch><duration>128</duration><type>eighth</type></note>
<note><pitch><step>G</step><octave>5</octave></pitch><duration>384</duration><type>quarter</type><dot/></note>
<note><pitch><step>G</step><octave>5</octave></pitch><duration>256</duration><type>quarter</type></note>
<note><pitch><step>C</step><octave>6</octave></pitch><duration>256</duration><type>quarter</type><notations><slur type="stop" number="1"/></notations></note></measure>
<measure number="12"><note><pitch><step>B</step><alter>-1</alter><octave>5</octave></pitch><duration>384</duration><type>quarter</type><dot/><notations><slur type="start" number="1"/></notations></note>
<note><pitch><step>A</step><alter>-1</alter><octave>5</octave></pitch><duration>128</duration><type>eighth</type></note>
<note><pitch><step>G</step><octave>5</octave></pitch><duration>256</duration><type>quarter</type></note>
<note><pitch><step>F</step><octave>5</octave></pitch><duration>256</duration><type>quarter</type></note>
<note><pitch><step>E</step><alter>-1</alter><octave>5</octave></pitch><duration>256</duration><type>quarter</type></note>
<note><pitch><step>C</step><octave>5</octave></pitch><duration>256</duration><type>quarter</type></note>
<note><pitch><step>F</step><alter>1</alter><octave>5</octave></pitch><duration>256</duration><type>quarter</type><accidental>sharp</accidental><notations><slur type="stop" number="1"/><articulations><breath-mark>comma</breath-mark></articulations></notations></note></measure>
<measure number="13"><print new-system="yes" new-page="yes"/><!-- V16: Page 2 --><attributes><key><fifths>2</fifths><mode>major</mode></key><time><beats>9</beats><beat-type>8</beat-type></time></attributes>
<direction placement="above"><direction-type><rehearsal font-weight="bold" font-size="14" halign="center" valign="top">B</rehearsal></direction-type></direction>
<direction placement="above"><direction-type><words font-style="italic">dolce, misterioso - long-line cell, Gil Evans haze</words></direction-type></direction>
<direction placement="below"><direction-type><dynamics><p/></dynamics></direction-type></direction>
<note><pitch><step>F</step><alter>1</alter><octave>5</octave></pitch><duration>384</duration><type>quarter</type><dot/><notations><slur type="start" number="1"/></notations></note>
<note><pitch><step>F</step><alter>1</alter><octave>5</octave></pitch><duration>256</duration><type>quarter</type></note>
<note><pitch><step>E</step><octave>5</octave></pitch><duration>256</duration><type>quarter</type></note>
<note><pitch><step>D</step><octave>5</octave></pitch><duration>256</duration><type>quarter</type><notations><slur type="stop" number="1"/></notations></note></measure>
<measure number="14"><note><pitch><step>E</step><octave>5</octave></pitch><duration>768</duration><type>half</type><dot/><notations><slur type="start" number="1"/></notations></note>
<note><pitch><step>E</step><octave>5</octave></pitch><duration>128</duration><type>eighth</type></note>
<note><pitch><step>F</step><alter>1</alter><octave>5</octave></pitch><duration>128</duration><type>eighth</type></note>
<note><pitch><step>G</step><octave>5</octave></pitch><duration>128</duration><type>eighth</type><notations><slur type="stop" number="1"/></notations></note></measure>
<measure number="15"><direction placement="above"><direction-type><words font-style="italic" font-weight="bold">SOLO - fragile, flautato, non vib., phrase apex</words></direction-type></direction>
<direction><direction-type><wedge type="diminuendo" spread="15"/></direction-type></direction>
<direction placement="below"><direction-type><dynamics><pp/></dynamics></direction-type></direction>
<note><pitch><step>A</step><octave>5</octave></pitch><duration>768</duration><type>half</type><dot/><notations><slur type="start" number="1"/></notations></note>
<note><pitch><step>G</step><octave>5</octave></pitch><duration>256</duration><type>quarter</type></note>
<note><pitch><step>F</step><alter>1</alter><octave>5</octave></pitch><duration>128</duration><type>eighth</type><notations><slur type="stop" number="1"/></notations></note></measure>
<measure number="16"><direction><direction-type><words font-style="italic">poco rubato, rit. - strings sustain bridge</words></direction-type></direction>
<note><pitch><step>G</step><octave>5</octave></pitch><duration>768</duration><type>half</type><dot/></note>
<note><pitch><step>G</step><octave>5</octave></pitch><duration>256</duration><type>quarter</type></note>
<note><pitch><step>F</step><octave>5</octave></pitch><duration>128</duration><type>eighth</type><accidental>natural</accidental></note></measure>
<measure number="17"><print new-system="yes" new-page="yes"/><!-- V16: Page 3 --><attributes><key><fifths>0</fifths><mode>minor</mode></key><time><beats>5</beats><beat-type>8</beat-type></time></attributes>
<note><rest/><duration>640</duration><type>whole</type></note></measure>
<measure number="18"><attributes><time><beats>7</beats><beat-type>8</beat-type></time></attributes>
<note><rest/><duration>896</duration><type>whole</type></note></measure>
<measure number="19"><attributes><time><beats>5</beats><beat-type>8</beat-type></time></attributes>
<note><rest/><duration>640</duration><type>whole</type></note></measure>
<measure number="20"><attributes><time><beats>7</beats><beat-type>8</beat-type></time></attributes>
<note><rest/><duration>256</duration><type>quarter</type></note>
<note><pitch><step>G</step><octave>5</octave></pitch><duration>128</duration><type>eighth</type></note>
<note><rest/><duration>512</duration><type>half</type></note></measure>
<measure number="21"><print new-system="yes" new-page="yes"/><!-- V16: Page 4 --><attributes><key><fifths>0</fifths><mode>major</mode></key><time><beats>11</beats><beat-type>8</beat-type></time></attributes>
<note><rest/><duration>256</duration><type>quarter</type></note>
<note><pitch><step>E</step><octave>5</octave></pitch><duration>256</duration><type>quarter</type></note>
<note><rest/><duration>128</duration><type>eighth</type></note>
<note><pitch><step>G</step><octave>5</octave></pitch><duration>256</duration><type>quarter</type></note>
<note><rest/><duration>512</duration><type>half</type></note></measure>
<measure number="22"><direction><direction-type><words font-style="italic">(motif inverted)</words></direction-type></direction>
<note><rest/><duration>1408</duration><type>whole</type></note></measure>
<measure number="23"><attributes><time><beats>4</beats><beat-type>4</beat-type></time></attributes>
<direction placement="above"><direction-type><words font-style="italic" font-size="8">breath - prepare apotheosis</words></direction-type></direction>
<direction placement="below"><direction-type><dynamics><f/></dynamics></direction-type></direction>
<note><pitch><step>C</step><octave>5</octave></pitch><duration>512</duration><type>half</type></note>
<note><pitch><step>A</step><octave>5</octave></pitch><duration>256</duration><type>quarter</type></note>
<note><pitch><step>G</step><octave>5</octave></pitch><duration>256</duration><type>quarter</type></note></measure>
<measure number="24"><note><pitch><step>G</step><octave>5</octave></pitch><duration>768</duration><type>half</type><dot/></note>
<note><pitch><step>G</step><octave>5</octave></pitch><duration>256</duration><type>quarter</type></note></measure>
<measure number="25"><direction><direction-type><words font-style="italic">delicato, molto espressivo</words></direction-type></direction>
<note><pitch><step>C</step><octave>6</octave></pitch><duration>1024</duration><type>whole</type><notations><fermata type="upright"/></notations></note>
<barline><bar-style>light-heavy</bar-style></barline></measure>
</part>
<part id="P5"><!-- V14: Viola counterlines enhanced as motivic answers -->
<measure number="1"><attributes><divisions>256</divisions><key><fifths>-3</fifths><mode>minor</mode></key><time><beats>7</beats><beat-type>4</beat-type></time><clef><sign>C</sign><line>3</line></clef></attributes>
<note><rest/><duration>1792</duration><type>whole</type></note></measure>
<measure number="2"><note><rest/><duration>1792</duration><type>whole</type></note></measure>
<measure number="3"><direction placement="below"><direction-type><dynamics><ppp/></dynamics></direction-type></direction><note><rest/><duration>1024</duration><type>whole</type></note>
<note><pitch><step>A</step><alter>-1</alter><octave>3</octave></pitch><duration>768</duration><type>half</type><dot/></note></measure>
<measure number="4"><note><pitch><step>G</step><octave>3</octave></pitch><duration>512</duration><type>half</type></note>
<note><rest/><duration>1280</duration><type>whole</type></note></measure>
<measure number="5"><direction placement="below"><direction-type><dynamics><p/></dynamics></direction-type></direction>
<direction placement="above"><direction-type><words font-style="italic">legato, cantabile - supporting - lyrical counterline</words></direction-type></direction>
<note><pitch><step>E</step><alter>-1</alter><octave>4</octave></pitch><duration>512</duration><type>half</type><notations><slur type="start" number="1"/></notations></note>
<note><pitch><step>C</step><octave>4</octave></pitch><duration>512</duration><type>half</type></note>
<note><pitch><step>G</step><octave>3</octave></pitch><duration>768</duration><type>half</type><dot/><notations><slur type="stop" number="1"/></notations></note></measure>
<measure number="6"><direction placement="above"><direction-type><words font-style="italic" font-size="8">bow lift</words></direction-type></direction>
<note><pitch><step>A</step><alter>-1</alter><octave>3</octave></pitch><duration>512</duration><type>half</type><notations><slur type="start" number="1"/></notations></note>
<note><pitch><step>C</step><octave>4</octave></pitch><duration>512</duration><type>half</type></note>
<note><pitch><step>B</step><alter>-1</alter><octave>3</octave></pitch><duration>768</duration><type>half</type><dot/><notations><slur type="stop" number="1"/></notations></note></measure>
<measure number="7"><note><pitch><step>F</step><octave>3</octave></pitch><duration>512</duration><type>half</type><notations><slur type="start" number="1"/></notations></note>
<note><pitch><step>D</step><octave>4</octave></pitch><duration>512</duration><type>half</type></note>
<note><pitch><step>G</step><octave>3</octave></pitch><duration>768</duration><type>half</type><dot/><notations><slur type="stop" number="1"/></notations></note></measure>
<measure number="8"><note><pitch><step>E</step><alter>-1</alter><octave>4</octave></pitch><duration>512</duration><type>half</type><notations><slur type="start" number="1"/></notations></note>
<note><pitch><step>C</step><octave>4</octave></pitch><duration>512</duration><type>half</type></note>
<note><pitch><step>E</step><alter>-1</alter><octave>4</octave></pitch><duration>768</duration><type>half</type><dot/><notations><slur type="stop" number="1"/></notations></note></measure>
<measure number="9"><direction placement="above"><direction-type><words font-style="italic" font-size="8">bow lift</words></direction-type></direction>
<note><pitch><step>C</step><octave>4</octave></pitch><duration>768</duration><type>half</type><dot/><notations><slur type="start" number="1"/></notations></note>
<note><pitch><step>G</step><octave>3</octave></pitch><duration>512</duration><type>half</type></note>
<note><pitch><step>E</step><alter>-1</alter><octave>4</octave></pitch><duration>512</duration><type>half</type><notations><slur type="stop" number="1"/></notations></note></measure>
<measure number="10"><direction placement="below"><direction-type><dynamics><mf/></dynamics></direction-type></direction>
<note><pitch><step>D</step><octave>4</octave></pitch><duration>512</duration><type>half</type><notations><slur type="start" number="1"/></notations></note>
<note><pitch><step>F</step><octave>4</octave></pitch><duration>512</duration><type>half</type></note>
<note><pitch><step>G</step><octave>4</octave></pitch><duration>768</duration><type>half</type><dot/><notations><slur type="stop" number="1"/></notations></note></measure>
<measure number="11"><note><pitch><step>E</step><alter>-1</alter><octave>4</octave></pitch><duration>512</duration><type>half</type><notations><slur type="start" number="1"/></notations></note>
<note><pitch><step>C</step><octave>4</octave></pitch><duration>512</duration><type>half</type></note>
<note><pitch><step>E</step><alter>-1</alter><octave>4</octave></pitch><duration>768</duration><type>half</type><dot/><notations><slur type="stop" number="1"/></notations></note></measure>
<measure number="12"><note><pitch><step>D</step><octave>4</octave></pitch><duration>512</duration><type>half</type><notations><slur type="start" number="1"/></notations></note>
<note><pitch><step>C</step><octave>4</octave></pitch><duration>512</duration><type>half</type><notations><slur type="stop" number="1"/></notations></note>
<note><rest/><duration>768</duration><type>half</type><dot/></note></measure>
<measure number="13"><print new-system="yes" new-page="yes"/><!-- V16: Page 2 --><attributes><key><fifths>2</fifths><mode>major</mode></key><time><beats>9</beats><beat-type>8</beat-type></time></attributes>
<direction placement="below"><direction-type><dynamics><p/></dynamics></direction-type></direction>
<note><pitch><step>D</step><octave>4</octave></pitch><duration>384</duration><type>quarter</type><dot/><notations><slur type="start" number="1"/></notations></note>
<note><pitch><step>A</step><octave>3</octave></pitch><duration>384</duration><type>quarter</type><dot/></note>
<note><pitch><step>F</step><alter>1</alter><octave>3</octave></pitch><duration>384</duration><type>quarter</type><dot/><notations><slur type="stop" number="1"/></notations></note></measure>
<measure number="14"><note><pitch><step>B</step><octave>3</octave></pitch><duration>768</duration><type>half</type><dot/><notations><slur type="start" number="1"/></notations></note>
<note><pitch><step>A</step><octave>3</octave></pitch><duration>384</duration><type>quarter</type><dot/><notations><slur type="stop" number="1"/></notations></note></measure>
<measure number="15"><note><rest/><duration>1152</duration><type>whole</type></note></measure>
<measure number="16"><note><pitch><step>E</step><alter>-1</alter><octave>4</octave></pitch><duration>384</duration><type>quarter</type><dot/><notations><slur type="start" number="1"/></notations></note>
<note><pitch><step>D</step><octave>4</octave></pitch><duration>768</duration><type>half</type><dot/><notations><slur type="stop" number="1"/></notations></note></measure>
<measure number="17"><print new-system="yes" new-page="yes"/><!-- V16: Page 3 --><attributes><key><fifths>0</fifths><mode>minor</mode></key><time><beats>5</beats><beat-type>8</beat-type></time></attributes>
<note><rest/><duration>640</duration><type>whole</type></note></measure>
<measure number="18"><attributes><time><beats>7</beats><beat-type>8</beat-type></time></attributes>
<note><rest/><duration>640</duration><type>half</type><dot/></note>
<note><pitch><step>E</step><alter>-1</alter><octave>4</octave></pitch><duration>256</duration><type>quarter</type></note></measure>
<measure number="19"><attributes><time><beats>5</beats><beat-type>8</beat-type></time></attributes>
<note><rest/><duration>640</duration><type>whole</type></note></measure>
<measure number="20"><attributes><time><beats>7</beats><beat-type>8</beat-type></time></attributes>
<note><rest/><duration>512</duration><type>half</type></note>
<note><pitch><step>E</step><alter>-1</alter><octave>4</octave></pitch><duration>128</duration><type>eighth</type></note>
<note><rest/><duration>256</duration><type>quarter</type></note></measure>
<measure number="21"><print new-system="yes" new-page="yes"/><!-- V16: Page 4 --><attributes><key><fifths>0</fifths><mode>major</mode></key><time><beats>11</beats><beat-type>8</beat-type></time></attributes>
<note><pitch><step>C</step><octave>4</octave></pitch><duration>256</duration><type>quarter</type></note>
<note><rest/><duration>1152</duration><type>whole</type></note></measure>
<measure number="22"><note><rest/><duration>512</duration><type>half</type></note>
<note><pitch><step>E</step><octave>4</octave></pitch><duration>384</duration><type>quarter</type><dot/><notations><slur type="start" number="1"/></notations></note>
<note><pitch><step>G</step><octave>4</octave></pitch><duration>512</duration><type>half</type><notations><slur type="stop" number="1"/></notations></note></measure>
<measure number="23"><attributes><time><beats>4</beats><beat-type>4</beat-type></time></attributes>
<direction placement="above"><direction-type><words font-style="italic" font-size="8">breath - prepare apotheosis</words></direction-type></direction>
<direction placement="below"><direction-type><dynamics><f/></dynamics></direction-type></direction>
<note><pitch><step>A</step><octave>3</octave></pitch><duration>512</duration><type>half</type></note>
<note><pitch><step>E</step><octave>4</octave></pitch><duration>256</duration><type>quarter</type></note>
<note><pitch><step>D</step><octave>4</octave></pitch><duration>256</duration><type>quarter</type></note></measure>
<measure number="24"><note><pitch><step>D</step><octave>4</octave></pitch><duration>768</duration><type>half</type><dot/></note>
<note><pitch><step>D</step><octave>4</octave></pitch><duration>256</duration><type>quarter</type></note></measure>
<measure number="25"><note><pitch><step>G</step><octave>4</octave></pitch><duration>1024</duration><type>whole</type><notations><fermata type="upright"/></notations></note>
<barline><bar-style>light-heavy</bar-style></barline></measure>
</part>
<part id="P6">
<measure number="1"><attributes><divisions>256</divisions><key><fifths>-3</fifths><mode>minor</mode></key><time><beats>7</beats><beat-type>4</beat-type></time><clef><sign>F</sign><line>4</line></clef></attributes>
<direction><direction-type><words font-style="italic">Cello pedal - sul pont., growling, sostenuto glow</words></direction-type></direction>
<direction placement="below"><direction-type><dynamics><pp/></dynamics></direction-type></direction>
<note><pitch><step>C</step><octave>2</octave></pitch><duration>1792</duration><type>whole</type></note></measure>
<measure number="2"><note><pitch><step>C</step><octave>2</octave></pitch><duration>1792</duration><type>whole</type></note></measure>
<measure number="3"><direction placement="above"><direction-type><words font-style="italic" font-weight="bold">Bass Poetry - cantabile (down-bow, 1st pos.)</words></direction-type></direction>
<direction><direction-type><wedge type="crescendo" spread="0"/></direction-type></direction>
<direction placement="below"><direction-type><dynamics><mp/></dynamics></direction-type></direction>
<note><pitch><step>C</step><octave>3</octave></pitch><duration>384</duration><type>quarter</type><dot/><notations><slur type="start" number="1"/></notations></note>
<note><pitch><step>E</step><alter>-1</alter><octave>3</octave></pitch><duration>256</duration><type>quarter</type></note>
<note><pitch><step>D</step><octave>3</octave></pitch><duration>384</duration><type>quarter</type><dot/><notations><slur type="stop" number="1"/></notations></note>
<note><rest/><duration>768</duration><type>half</type><dot/></note></measure>
<measure number="4"><direction placement="below"><direction-type><dynamics><p/></dynamics></direction-type></direction>
<note><pitch><step>C</step><octave>2</octave></pitch><duration>768</duration><type>half</type><dot/></note>
<note><pitch><step>G</step><octave>2</octave></pitch><duration>256</duration><type>quarter</type></note>
<note><pitch><step>C</step><octave>3</octave></pitch><duration>256</duration><type>quarter</type></note>
<note><pitch><step>B</step><alter>-1</alter><octave>2</octave></pitch><duration>256</duration><type>quarter</type></note>
<note><pitch><step>C</step><octave>3</octave></pitch><duration>256</duration><type>quarter</type></note></measure>
<measure number="5"><note><pitch><step>C</step><octave>2</octave></pitch><duration>512</duration><type>half</type></note>
<note><pitch><step>G</step><octave>2</octave></pitch><duration>256</duration><type>quarter</type></note>
<note><pitch><step>C</step><octave>3</octave></pitch><duration>256</duration><type>quarter</type></note>
<note><pitch><step>B</step><alter>-1</alter><octave>2</octave></pitch><duration>768</duration><type>half</type><dot/></note></measure>
<measure number="6"><note><pitch><step>F</step><octave>2</octave></pitch><duration>768</duration><type>half</type><dot/></note>
<note><pitch><step>C</step><octave>3</octave></pitch><duration>256</duration><type>quarter</type></note>
<note><pitch><step>A</step><octave>2</octave></pitch><duration>256</duration><type>quarter</type></note>
<note><pitch><step>F</step><octave>2</octave></pitch><duration>512</duration><type>half</type></note></measure>
<measure number="7"><note><pitch><step>C</step><octave>2</octave></pitch><duration>768</duration><type>half</type><dot/></note>
<note><pitch><step>C</step><octave>3</octave></pitch><duration>512</duration><type>half</type></note>
<note><pitch><step>G</step><octave>2</octave></pitch><duration>512</duration><type>half</type></note></measure>
<measure number="8"><note><pitch><step>C</step><octave>2</octave></pitch><duration>512</duration><type>half</type></note>
<note><pitch><step>E</step><alter>-1</alter><octave>2</octave></pitch><duration>512</duration><type>half</type></note>
<note><pitch><step>A</step><alter>-1</alter><octave>2</octave></pitch><duration>768</duration><type>half</type><dot/></note></measure>
<measure number="9"><note><pitch><step>C</step><octave>2</octave></pitch><duration>768</duration><type>half</type><dot/></note>
<note><pitch><step>G</step><octave>2</octave></pitch><duration>512</duration><type>half</type></note>
<note><pitch><step>C</step><octave>3</octave></pitch><duration>512</duration><type>half</type></note></measure>
<measure number="10"><direction placement="below"><direction-type><dynamics><mf/></dynamics></direction-type></direction>
<note><pitch><step>G</step><octave>2</octave></pitch><duration>512</duration><type>half</type></note>
<note><pitch><step>D</step><octave>3</octave></pitch><duration>256</duration><type>quarter</type></note>
<note><pitch><step>G</step><octave>2</octave></pitch><duration>256</duration><type>quarter</type></note>
<note><pitch><step>C</step><octave>3</octave></pitch><duration>768</duration><type>half</type><dot/></note></measure>
<measure number="11"><note><pitch><step>C</step><octave>2</octave></pitch><duration>512</duration><type>half</type></note>
<note><pitch><step>G</step><octave>2</octave></pitch><duration>512</duration><type>half</type></note>
<note><pitch><step>C</step><octave>3</octave></pitch><duration>768</duration><type>half</type><dot/></note></measure>
<measure number="12"><note><pitch><step>F</step><octave>2</octave></pitch><duration>768</duration><type>half</type><dot/></note>
<note><pitch><step>C</step><octave>2</octave></pitch><duration>1024</duration><type>whole</type></note></measure>
<measure number="13"><print new-system="yes" new-page="yes"/><!-- V16: Page 2 --><attributes><key><fifths>2</fifths><mode>major</mode></key><time><beats>9</beats><beat-type>8</beat-type></time></attributes>
<direction placement="below"><direction-type><dynamics><p/></dynamics></direction-type></direction>
<note><pitch><step>D</step><octave>2</octave></pitch><duration>768</duration><type>half</type><dot/></note>
<note><pitch><step>A</step><octave>2</octave></pitch><duration>384</duration><type>quarter</type><dot/></note></measure>
<measure number="14"><note><pitch><step>E</step><octave>2</octave></pitch><duration>768</duration><type>half</type><dot/></note>
<note><pitch><step>B</step><octave>2</octave></pitch><duration>384</duration><type>quarter</type><dot/></note></measure>
<measure number="15"><direction placement="above"><direction-type><words font-style="italic">sul tasto, poco vib., quasi niente</words></direction-type></direction>
<direction placement="below"><direction-type><dynamics><ppp/></dynamics></direction-type></direction>
<note><pitch><step>G</step><octave>2</octave></pitch><duration>1152</duration><type>whole</type></note></measure>
<measure number="16"><note><pitch><step>E</step><alter>-1</alter><octave>2</octave></pitch><duration>768</duration><type>half</type><dot/></note>
<note><pitch><step>B</step><alter>-1</alter><octave>2</octave></pitch><duration>384</duration><type>quarter</type><dot/></note></measure>
<measure number="17"><print new-system="yes" new-page="yes"/><!-- V16: Page 3 --><attributes><key><fifths>0</fifths><mode>minor</mode></key><time><beats>5</beats><beat-type>8</beat-type></time></attributes>
<note><rest/><duration>640</duration><type>whole</type></note></measure>
<measure number="18"><attributes><time><beats>7</beats><beat-type>8</beat-type></time></attributes>
<note><rest/><duration>896</duration><type>whole</type></note></measure>
<measure number="19"><attributes><time><beats>5</beats><beat-type>8</beat-type></time></attributes>
<note><rest/><duration>640</duration><type>whole</type></note></measure>
<measure number="20"><attributes><time><beats>7</beats><beat-type>8</beat-type></time></attributes>
<note><rest/><duration>768</duration><type>half</type><dot/></note>
<note><pitch><step>C</step><octave>4</octave></pitch><duration>128</duration><type>eighth</type></note></measure>
<measure number="21"><print new-system="yes" new-page="yes"/><!-- V16: Page 4 --><attributes><key><fifths>0</fifths><mode>major</mode></key><time><beats>11</beats><beat-type>8</beat-type></time></attributes>
<direction placement="below"><direction-type><dynamics><mf/></dynamics></direction-type></direction>
<note><pitch><step>C</step><octave>4</octave></pitch><duration>256</duration><type>quarter</type></note>
<note><rest/><duration>1152</duration><type>whole</type></note></measure>
<measure number="22"><direction placement="above"><direction-type><words font-style="italic" font-weight="bold">Inversion cell - FEATURED, Fortspinnung, espressivo</words></direction-type></direction>
<direction><direction-type><wedge type="crescendo" spread="0"/></direction-type></direction>
<note><pitch><step>C</step><octave>4</octave></pitch><duration>256</duration><type>quarter</type><notations><slur type="start" number="1"/></notations></note>
<note><pitch><step>A</step><octave>4</octave></pitch><duration>256</duration><type>quarter</type></note>
<note><pitch><step>G</step><octave>4</octave></pitch><duration>256</duration><type>quarter</type><notations><slur type="stop" number="1"/></notations></note>
<note><pitch><step>E</step><octave>3</octave></pitch><duration>384</duration><type>quarter</type><dot/></note>
<note><pitch><step>A</step><octave>2</octave></pitch><duration>256</duration><type>quarter</type></note></measure>
<measure number="23"><attributes><time><beats>4</beats><beat-type>4</beat-type></time></attributes>
<direction placement="above"><direction-type><words font-style="italic" font-size="8">breath - prepare apotheosis</words></direction-type></direction>
<direction placement="below"><direction-type><dynamics><f/></dynamics></direction-type></direction>
<note><pitch><step>F</step><octave>2</octave></pitch><duration>512</duration><type>half</type></note>
<note><pitch><step>C</step><octave>3</octave></pitch><duration>256</duration><type>quarter</type></note>
<note><pitch><step>E</step><octave>3</octave></pitch><duration>256</duration><type>quarter</type></note></measure>
<measure number="24"><note><pitch><step>C</step><octave>2</octave></pitch><duration>768</duration><type>half</type><dot/></note>
<note><pitch><step>D</step><octave>3</octave></pitch><duration>256</duration><type>quarter</type></note></measure>
<measure number="25"><note><pitch><step>C</step><octave>3</octave></pitch><duration>1024</duration><type>whole</type><notations><fermata type="upright"/></notations></note>
<barline><bar-style>light-heavy</bar-style></barline></measure>
</part>
<part id="P7">
<measure number="1"><attributes><divisions>256</divisions><key><fifths>-3</fifths><mode>minor</mode></key><time><beats>7</beats><beat-type>4</beat-type></time><clef><sign>F</sign><line>4</line></clef><transpose><diatonic>0</diatonic><chromatic>0</chromatic><octave-change>-1</octave-change></transpose></attributes>
<direction placement="above"><direction-type><words font-style="italic" font-size="8">harmonic pillar</words></direction-type></direction>
<direction placement="below"><direction-type><dynamics><p/></dynamics></direction-type></direction>
<note><pitch><step>C</step><octave>3</octave></pitch><duration>256</duration><type>quarter</type><notations><articulations><accent/></articulations></notations></note>
<note><pitch><step>C</step><octave>3</octave></pitch><duration>1536</duration><type>whole</type></note></measure>
<measure number="2"><note><pitch><step>C</step><octave>3</octave></pitch><duration>1792</duration><type>whole</type></note></measure>
<measure number="3"><note><pitch><step>F</step><octave>2</octave></pitch><duration>1792</duration><type>whole</type></note></measure>
<measure number="4"><note><pitch><step>C</step><octave>3</octave></pitch><duration>1792</duration><type>whole</type></note></measure>
<measure number="5"><note><pitch><step>C</step><octave>3</octave></pitch><duration>1792</duration><type>whole</type></note></measure>
<measure number="6"><note><pitch><step>F</step><octave>2</octave></pitch><duration>1792</duration><type>whole</type></note></measure>
<measure number="7"><note><pitch><step>C</step><octave>3</octave></pitch><duration>1792</duration><type>whole</type></note></measure>
<measure number="8"><note><pitch><step>C</step><octave>3</octave></pitch><duration>1792</duration><type>whole</type></note></measure>
<measure number="9"><note><pitch><step>C</step><octave>3</octave></pitch><duration>1792</duration><type>whole</type></note></measure>
<measure number="10"><note><pitch><step>G</step><octave>2</octave></pitch><duration>1792</duration><type>whole</type></note></measure>
<measure number="11"><note><pitch><step>C</step><octave>3</octave></pitch><duration>1792</duration><type>whole</type></note></measure>
<measure number="12"><note><pitch><step>F</step><octave>2</octave></pitch><duration>768</duration><type>half</type><dot/></note>
<note><pitch><step>C</step><octave>3</octave></pitch><duration>1024</duration><type>whole</type></note></measure>
<measure number="13"><print new-system="yes" new-page="yes"/><!-- V16: Page 2 --><attributes><key><fifths>2</fifths><mode>major</mode></key><time><beats>9</beats><beat-type>8</beat-type></time></attributes>
<direction placement="below"><direction-type><dynamics><p/></dynamics></direction-type></direction>
<note><pitch><step>D</step><octave>3</octave></pitch><duration>1152</duration><type>whole</type></note></measure>
<measure number="14"><note><pitch><step>E</step><octave>2</octave></pitch><duration>1152</duration><type>whole</type></note></measure>
<measure number="15"><direction placement="below"><direction-type><dynamics><ppp/></dynamics></direction-type></direction>
<note><pitch><step>G</step><octave>2</octave></pitch><duration>1152</duration><type>whole</type></note></measure>
<measure number="16"><note><pitch><step>E</step><alter>-1</alter><octave>2</octave></pitch><duration>1152</duration><type>whole</type></note></measure>
<measure number="17"><print new-system="yes" new-page="yes"/><!-- V16: Page 3 --><attributes><key><fifths>0</fifths><mode>minor</mode></key><time><beats>5</beats><beat-type>8</beat-type></time></attributes>
<note><rest/><duration>640</duration><type>whole</type></note></measure>
<measure number="18"><attributes><time><beats>7</beats><beat-type>8</beat-type></time></attributes>
<note><rest/><duration>896</duration><type>whole</type></note></measure>
<measure number="19"><attributes><time><beats>5</beats><beat-type>8</beat-type></time></attributes>
<note><rest/><duration>640</duration><type>whole</type></note></measure>
<measure number="20"><attributes><time><beats>7</beats><beat-type>8</beat-type></time></attributes>
<direction placement="above"><direction-type><words font-style="italic" font-size="8">attacca subito</words></direction-type></direction>
<note><rest/><duration>896</duration><type>whole</type></note></measure>
<measure number="21"><print new-system="yes" new-page="yes"/><!-- V16: Page 4 --><attributes><key><fifths>0</fifths><mode>major</mode></key><time><beats>11</beats><beat-type>8</beat-type></time></attributes>
<direction placement="below"><direction-type><dynamics><mf/></dynamics></direction-type></direction>
<note><pitch><step>C</step><octave>3</octave></pitch><duration>1408</duration><type>whole</type></note></measure>
<measure number="22"><note><pitch><step>A</step><octave>2</octave></pitch><duration>1408</duration><type>whole</type></note></measure>
<measure number="23"><attributes><time><beats>4</beats><beat-type>4</beat-type></time></attributes>
<direction placement="above"><direction-type><words font-style="italic" font-size="8">breath - prepare apotheosis</words></direction-type></direction>
<direction placement="below"><direction-type><dynamics><f/></dynamics></direction-type></direction>
<note><pitch><step>F</step><octave>2</octave></pitch><duration>512</duration><type>half</type></note>
<note><pitch><step>C</step><octave>3</octave></pitch><duration>512</duration><type>half</type></note></measure>
<measure number="24"><note><pitch><step>C</step><octave>3</octave></pitch><duration>1024</duration><type>whole</type></note></measure>
<measure number="25"><note><pitch><step>C</step><octave>3</octave></pitch><duration>1024</duration><type>whole</type><notations><fermata type="upright"/></notations></note>
<barline><bar-style>light-heavy</bar-style></barline></measure>
</part>
<part id="P8">
<measure number="1"><attributes><divisions>256</divisions><key><fifths>-3</fifths><mode>minor</mode></key><time><beats>7</beats><beat-type>4</beat-type></time><clef><sign>G</sign><line>2</line></clef><transpose><diatonic>0</diatonic><chromatic>0</chromatic><octave-change>-1</octave-change></transpose></attributes>
<direction placement="below"><direction-type><dynamics><pp/></dynamics></direction-type></direction>
<direction placement="above"><direction-type><words font-style="italic">let ring, sotto voce, arpeggiate - gospel shimmer</words></direction-type></direction>
<note><pitch><step>C</step><octave>4</octave></pitch><duration>1792</duration><type>whole</type></note>
<note><pitch><step>G</step><octave>4</octave></pitch><duration>1792</duration><type>whole</type><chord/></note>
<note><pitch><step>B</step><alter>-1</alter><octave>4</octave></pitch><duration>1792</duration><type>whole</type><chord/></note>
<note><pitch><step>E</step><alter>-1</alter><octave>5</octave></pitch><duration>1792</duration><type>whole</type><chord/></note></measure>
<measure number="2"><note><pitch><step>C</step><octave>4</octave></pitch><duration>1792</duration><type>whole</type></note>
<note><pitch><step>G</step><octave>4</octave></pitch><duration>1792</duration><type>whole</type><chord/></note>
<note><pitch><step>B</step><alter>-1</alter><octave>4</octave></pitch><duration>1792</duration><type>whole</type><chord/></note>
<note><pitch><step>E</step><alter>-1</alter><octave>5</octave></pitch><duration>1792</duration><type>whole</type><chord/></note></measure>
<measure number="3"><note><pitch><step>F</step><octave>3</octave></pitch><duration>1792</duration><type>whole</type></note>
<note><pitch><step>A</step><octave>3</octave></pitch><duration>1792</duration><type>whole</type><chord/></note>
<note><pitch><step>E</step><alter>-1</alter><octave>4</octave></pitch><duration>1792</duration><type>whole</type><chord/></note></measure>
<measure number="4"><note><pitch><step>C</step><octave>4</octave></pitch><duration>1792</duration><type>whole</type></note>
<note><pitch><step>E</step><alter>-1</alter><octave>4</octave></pitch><duration>1792</duration><type>whole</type><chord/></note>
<note><pitch><step>G</step><octave>4</octave></pitch><duration>1792</duration><type>whole</type><chord/></note>
<note><pitch><step>B</step><alter>-1</alter><octave>4</octave></pitch><duration>1792</duration><type>whole</type><chord/></note></measure>
<measure number="5"><note><pitch><step>C</step><octave>4</octave></pitch><duration>1792</duration><type>whole</type></note>
<note><pitch><step>E</step><alter>-1</alter><octave>4</octave></pitch><duration>1792</duration><type>whole</type><chord/></note>
<note><pitch><step>G</step><octave>4</octave></pitch><duration>1792</duration><type>whole</type><chord/></note>
<note><pitch><step>B</step><alter>-1</alter><octave>4</octave></pitch><duration>1792</duration><type>whole</type><chord/></note></measure>
<measure number="6"><note><pitch><step>F</step><octave>3</octave></pitch><duration>1792</duration><type>whole</type></note>
<note><pitch><step>A</step><octave>3</octave></pitch><duration>1792</duration><type>whole</type><chord/></note>
<note><pitch><step>C</step><octave>4</octave></pitch><duration>1792</duration><type>whole</type><chord/></note>
<note><pitch><step>E</step><alter>-1</alter><octave>4</octave></pitch><duration>1792</duration><type>whole</type><chord/></note></measure>
<measure number="7"><note><pitch><step>C</step><octave>4</octave></pitch><duration>1792</duration><type>whole</type></note>
<note><pitch><step>D</step><octave>4</octave></pitch><duration>1792</duration><type>whole</type><chord/></note>
<note><pitch><step>F</step><octave>4</octave></pitch><duration>1792</duration><type>whole</type><chord/></note>
<note><pitch><step>A</step><octave>4</octave></pitch><duration>1792</duration><type>whole</type><chord/></note></measure>
<measure number="8"><note><pitch><step>C</step><octave>4</octave></pitch><duration>1792</duration><type>whole</type></note>
<note><pitch><step>E</step><alter>-1</alter><octave>4</octave></pitch><duration>1792</duration><type>whole</type><chord/></note>
<note><pitch><step>G</step><octave>4</octave></pitch><duration>1792</duration><type>whole</type><chord/></note>
<note><pitch><step>C</step><octave>5</octave></pitch><duration>1792</duration><type>whole</type><chord/></note></measure>
<measure number="9"><note><pitch><step>C</step><octave>4</octave></pitch><duration>1792</duration><type>whole</type></note>
<note><pitch><step>E</step><alter>-1</alter><octave>4</octave></pitch><duration>1792</duration><type>whole</type><chord/></note>
<note><pitch><step>G</step><octave>4</octave></pitch><duration>1792</duration><type>whole</type><chord/></note>
<note><pitch><step>B</step><alter>-1</alter><octave>4</octave></pitch><duration>1792</duration><type>whole</type><chord/></note></measure>
<measure number="10"><note><pitch><step>G</step><octave>3</octave></pitch><duration>1792</duration><type>whole</type></note>
<note><pitch><step>B</step><octave>3</octave></pitch><duration>1792</duration><type>whole</type><chord/></note>
<note><pitch><step>D</step><octave>4</octave></pitch><duration>1792</duration><type>whole</type><chord/></note>
<note><pitch><step>F</step><octave>4</octave></pitch><duration>1792</duration><type>whole</type><chord/></note></measure>
<measure number="11"><note><pitch><step>C</step><octave>4</octave></pitch><duration>1792</duration><type>whole</type></note>
<note><pitch><step>E</step><alter>-1</alter><octave>4</octave></pitch><duration>1792</duration><type>whole</type><chord/></note>
<note><pitch><step>G</step><octave>4</octave></pitch><duration>1792</duration><type>whole</type><chord/></note>
<note><pitch><step>B</step><alter>-1</alter><octave>4</octave></pitch><duration>1792</duration><type>whole</type><chord/></note></measure>
<measure number="12"><note><pitch><step>F</step><octave>3</octave></pitch><duration>768</duration><type>half</type><dot/></note>
<note><pitch><step>A</step><octave>3</octave></pitch><duration>768</duration><type>half</type><dot/><chord/></note>
<note><pitch><step>C</step><octave>4</octave></pitch><duration>768</duration><type>half</type><dot/><chord/></note>
<note><pitch><step>E</step><alter>-1</alter><octave>4</octave></pitch><duration>768</duration><type>half</type><dot/><chord/></note>
<note><rest/><duration>1024</duration><type>whole</type></note></measure>
<measure number="13"><print new-system="yes" new-page="yes"/><!-- V16: Page 2 --><attributes><key><fifths>2</fifths><mode>major</mode></key><time><beats>9</beats><beat-type>8</beat-type></time></attributes>
<direction placement="above"><direction-type><words font-style="italic">shimmer, harmonics, con pedale</words></direction-type></direction>
<direction placement="below"><direction-type><dynamics><p/></dynamics></direction-type></direction>
<note><pitch><step>D</step><octave>4</octave></pitch><duration>1152</duration><type>whole</type></note>
<note><pitch><step>F</step><alter>1</alter><octave>4</octave></pitch><duration>1152</duration><type>whole</type><chord/></note>
<note><pitch><step>A</step><octave>4</octave></pitch><duration>1152</duration><type>whole</type><chord/></note>
<note><pitch><step>E</step><octave>5</octave></pitch><duration>1152</duration><type>whole</type><chord/></note></measure>
<measure number="14"><note><pitch><step>E</step><octave>3</octave></pitch><duration>1152</duration><type>whole</type></note>
<note><pitch><step>B</step><octave>3</octave></pitch><duration>1152</duration><type>whole</type><chord/></note>
<note><pitch><step>D</step><octave>4</octave></pitch><duration>1152</duration><type>whole</type><chord/></note>
<note><pitch><step>A</step><octave>4</octave></pitch><duration>1152</duration><type>whole</type><chord/></note></measure>
<measure number="15"><direction placement="below"><direction-type><dynamics><ppp/></dynamics></direction-type></direction>
<note><pitch><step>G</step><octave>3</octave></pitch><duration>1152</duration><type>whole</type></note>
<note><pitch><step>B</step><octave>3</octave></pitch><duration>1152</duration><type>whole</type><chord/></note>
<note><pitch><step>D</step><octave>4</octave></pitch><duration>1152</duration><type>whole</type><chord/></note>
<note><pitch><step>F</step><alter>1</alter><octave>4</octave></pitch><duration>1152</duration><type>whole</type><chord/></note></measure>
<measure number="16"><note><pitch><step>E</step><alter>-1</alter><octave>3</octave></pitch><duration>1152</duration><type>whole</type></note>
<note><pitch><step>G</step><octave>3</octave></pitch><duration>1152</duration><type>whole</type><chord/></note>
<note><pitch><step>B</step><alter>-1</alter><octave>3</octave></pitch><duration>1152</duration><type>whole</type><chord/></note>
<note><pitch><step>D</step><octave>4</octave></pitch><duration>1152</duration><type>whole</type><chord/></note></measure>
<measure number="17"><print new-system="yes" new-page="yes"/><!-- V16: Page 3 --><attributes><key><fifths>0</fifths><mode>minor</mode></key><time><beats>5</beats><beat-type>8</beat-type></time></attributes>
<direction placement="above"><direction-type><words font-style="italic">harmonics, sparse - insect textures, transparent</words></direction-type></direction>
<note><pitch><step>E</step><octave>4</octave></pitch><duration>640</duration><type>whole</type></note></measure>
<measure number="18"><attributes><time><beats>7</beats><beat-type>8</beat-type></time></attributes>
<note><pitch><step>A</step><octave>3</octave></pitch><duration>896</duration><type>whole</type></note>
<note><pitch><step>C</step><octave>4</octave></pitch><duration>896</duration><type>whole</type><chord/></note>
<note><pitch><step>E</step><alter>-1</alter><octave>4</octave></pitch><duration>896</duration><type>whole</type><chord/></note></measure>
<measure number="19"><attributes><time><beats>5</beats><beat-type>8</beat-type></time></attributes>
<direction placement="below"><direction-type><dynamics><ppppp/></dynamics></direction-type></direction>
<direction placement="above"><direction-type><words font-style="italic">natural harmonics only - breath bar, niente</words></direction-type></direction>
<note><pitch><step>F</step><octave>3</octave></pitch><duration>640</duration><type>whole</type></note>
<note><pitch><step>A</step><octave>3</octave></pitch><duration>640</duration><type>whole</type><chord/></note>
<note><pitch><step>C</step><octave>4</octave></pitch><duration>640</duration><type>whole</type><chord/></note></measure>
<measure number="20"><attributes><time><beats>7</beats><beat-type>8</beat-type></time></attributes>
<direction placement="above"><direction-type><words font-style="italic" font-size="8">attacca subito</words></direction-type></direction>
<note><rest/><duration>896</duration><type>whole</type></note></measure>
<measure number="21"><print new-system="yes" new-page="yes"/><!-- V16: Page 4 --><attributes><key><fifths>0</fifths><mode>major</mode></key><time><beats>11</beats><beat-type>8</beat-type></time></attributes>
<direction placement="below"><direction-type><dynamics><mp/></dynamics></direction-type></direction>
<note><pitch><step>C</step><octave>4</octave></pitch><duration>1408</duration><type>whole</type></note>
<note><pitch><step>E</step><octave>4</octave></pitch><duration>1408</duration><type>whole</type><chord/></note>
<note><pitch><step>G</step><octave>4</octave></pitch><duration>1408</duration><type>whole</type><chord/></note>
<note><pitch><step>B</step><octave>4</octave></pitch><duration>1408</duration><type>whole</type><chord/></note></measure>
<measure number="22"><note><pitch><step>A</step><octave>3</octave></pitch><duration>1408</duration><type>whole</type></note>
<note><pitch><step>C</step><octave>4</octave></pitch><duration>1408</duration><type>whole</type><chord/></note>
<note><pitch><step>E</step><octave>4</octave></pitch><duration>1408</duration><type>whole</type><chord/></note>
<note><pitch><step>G</step><octave>4</octave></pitch><duration>1408</duration><type>whole</type><chord/></note></measure>
<measure number="23"><attributes><time><beats>4</beats><beat-type>4</beat-type></time></attributes>
<direction placement="above"><direction-type><words font-style="italic" font-size="8">breath - prepare apotheosis</words></direction-type></direction>
<direction placement="below"><direction-type><dynamics><f/></dynamics></direction-type></direction>
<note><pitch><step>F</step><octave>3</octave></pitch><duration>1024</duration><type>whole</type></note>
<note><pitch><step>A</step><octave>3</octave></pitch><duration>1024</duration><type>whole</type><chord/></note>
<note><pitch><step>C</step><octave>4</octave></pitch><duration>1024</duration><type>whole</type><chord/></note>
<note><pitch><step>E</step><octave>4</octave></pitch><duration>1024</duration><type>whole</type><chord/></note></measure>
<measure number="24"><note><pitch><step>C</step><octave>4</octave></pitch><duration>1024</duration><type>whole</type></note>
<note><pitch><step>D</step><octave>4</octave></pitch><duration>1024</duration><type>whole</type><chord/></note>
<note><pitch><step>G</step><octave>4</octave></pitch><duration>1024</duration><type>whole</type><chord/></note>
<note><pitch><step>B</step><octave>4</octave></pitch><duration>1024</duration><type>whole</type><chord/></note></measure>
<measure number="25"><direction placement="below"><direction-type><dynamics><fff/></dynamics></direction-type></direction>
<note><pitch><step>C</step><octave>4</octave></pitch><duration>1024</duration><type>whole</type><notations><fermata type="upright"/></notations></note>
<note><pitch><step>E</step><octave>4</octave></pitch><duration>1024</duration><type>whole</type><chord/></note>
<note><pitch><step>G</step><octave>4</octave></pitch><duration>1024</duration><type>whole</type><chord/></note>
<note><pitch><step>C</step><octave>5</octave></pitch><duration>1024</duration><type>whole</type><chord/></note>
<barline><bar-style>light-heavy</bar-style></barline></measure>
</part>
<!-- V14 Expressive Musicality Pass Summary:
- Motivic cohesion: blues cell (I), long-line cell (II), Bartok cell (III), inversion cell (IV) marked
- Phrase architecture: rise-fall arcs indicated (m.4-6 rise, m.7-9 fall)
- Dynamic narrative: 4-bar crescendo arcs, phrase releases, subito p atmosphere resets
- Counterline enhancement: Viola marked as motivic answer, Clarinet as blues cell echo
- Colouristic detail: flautato (Vln m.15), sul tasto quasi niente (Vc), natural harmonics (Gtr)
- Pedal glow: Bass harmonic pillar, Cello sostenuto glow markings added
- Timing/rubato: molto espressivo, misterioso, sostenuto, poco rubato at key moments
- Climax shaping: CLIMAX I (m.10), CLIMAX IV (m.24), with registral lift and apotheosis
- Silence as structure: breath spaces before Mvt II, structural silence m.19, breath before Chorale
- Expressive markings: luminoso finale, expressive bridge transitions
--></score-partwise>







