<?xml version='1.0' encoding='utf-8'?>
<score-partwise version="3.1"><part-list><score-part id="P1"><part-name>Piano</part-name></score-part></part-list><part id="P1"><measure number="1"><attributes><divisions>2</divisions><key><fifths>0</fifths></key><time><beats>4</beats><beat-type>4</beat-type></time><staves>2</staves><clef><sign>G</sign><line>2</line></clef><clef><sign>F</sign><line>4</line><number>2</number></clef></attributes><direction placement="above"><direction-type><words>Movement I — Basie Concept</words></direction-type></direction><direction placement="above"><direction-type><rehearsal>A</rehearsal></direction-type></direction><harmony><root><root-step>C</root-step></root><kind text="C7(9,13)">dominant</kind></harmony><note><pitch><step>C</step><octave>5</octave></pitch><duration>2</duration><voice>1</voice><type>quarter</type><staff>1</staff></note><note><pitch><step>E</step><alter>-1</alter><octave>5</octave></pitch><duration>2</duration><voice>1</voice><type>quarter</type><staff>1</staff></note><note><pitch><step>F</step><octave>5</octave></pitch><duration>2</duration><voice>1</voice><type>quarter</type><staff>1</staff></note><note><pitch><step>G</step><octave>5</octave></pitch><duration>2</duration><voice>1</voice><type>quarter</type><staff>1</staff></note><note><pitch><step>C</step><octave>2</octave></pitch><duration>8</duration><voice>2</voice><type>whole</type><staff>2</staff></note></measure><measure number="2"><harmony><root><root-step>B</root-step></root><kind text="Bb13(#11)">dominant-13</kind></harmony><note><pitch><step>G</step><octave>5</octave></pitch><duration>2</duration><voice>1</voice><type>quarter</type><staff>1</staff></note><note><pitch><step>A</step><octave>5</octave></pitch><duration>2</duration><voice>1</voice><type>quarter</type><staff>1</staff></note><note><pitch><step>G</step><octave>5</octave></pitch><duration>2</duration><voice>1</voice><type>quarter</type><staff>1</staff></note><note><pitch><step>F</step><octave>5</octave></pitch><duration>2</duration><voice>1</voice><type>quarter</type><staff>1</staff></note><note><pitch><step>Bb</step><octave>2</octave></pitch><duration>8</duration><voice>2</voice><type>whole</type><staff>2</staff></note></measure><measure number="3"><harmony><root><root-step>F</root-step></root><kind text="F13sus">dominant</kind></harmony><note><pitch><step>E</step><octave>5</octave></pitch><duration>2</duration><voice>1</voice><type>quarter</type><staff>1</staff></note><note><pitch><step>G</step><octave>5</octave></pitch><duration>2</duration><voice>1</voice><type>quarter</type><staff>1</staff></note><note><pitch><step>B</step><alter>-1</alter><octave>5</octave></pitch><duration>2</duration><voice>1</voice><type>quarter</type><staff>1</staff></note><note><pitch><step>A</step><octave>5</octave></pitch><duration>2</duration><voice>1</voice><type>quarter</type><staff>1</staff></note><note><pitch><step>F</step><octave>2</octave></pitch><duration>8</duration><voice>2</voice><type>whole</type><staff>2</staff></note></measure><measure number="4"><harmony><root><root-step>A</root-step></root><kind text="Abmaj7(#11)/C">major</kind></harmony><note><pitch><step>F</step><octave>5</octave></pitch><duration>2</duration><voice>1</voice><type>quarter</type><staff>1</staff></note><note><pitch><step>E</step><alter>-1</alter><octave>5</octave></pitch><duration>2</duration><voice>1</voice><type>quarter</type><staff>1</staff></note><note><pitch><step>C</step><octave>5</octave></pitch><duration>2</duration><voice>1</voice><type>quarter</type><staff>1</staff></note><note><pitch><step>D</step><octave>5</octave></pitch><duration>2</duration><voice>1</voice><type>quarter</type><staff>1</staff></note><note><pitch><step>C</step><octave>2</octave></pitch><duration>8</duration><voice>2</voice><type>whole</type><staff>2</staff></note></measure><measure number="5"><harmony><root><root-step>D</root-step></root><kind text="Dø → G7(b9)">half-diminished</kind></harmony><note><pitch><step>D</step><octave>5</octave></pitch><duration>2</duration><voice>1</voice><type>quarter</type><staff>1</staff></note><note><pitch><step>F</step><octave>5</octave></pitch><duration>2</duration><voice>1</voice><type>quarter</type><staff>1</staff></note><note><pitch><step>E</step><octave>5</octave></pitch><duration>2</duration><voice>1</voice><type>quarter</type><staff>1</staff></note><note><pitch><step>G</step><octave>5</octave></pitch><duration>2</duration><voice>1</voice><type>quarter</type><staff>1</staff></note><note><pitch><step>D</step><octave>2</octave></pitch><duration>8</duration><voice>2</voice><type>whole</type><staff>2</staff></note></measure><measure number="6"><harmony><root><root-step>C</root-step></root><kind text="C7sus(9)">dominant</kind></harmony><note><pitch><step>A</step><octave>5</octave></pitch><duration>2</duration><voice>1</voice><type>quarter</type><staff>1</staff></note><note><pitch><step>G</step><octave>5</octave></pitch><duration>2</duration><voice>1</voice><type>quarter</type><staff>1</staff></note><note><pitch><step>F</step><octave>5</octave></pitch><duration>2</duration><voice>1</voice><type>quarter</type><staff>1</staff></note><note><pitch><step>E</step><alter>-1</alter><octave>5</octave></pitch><duration>2</duration><voice>1</voice><type>quarter</type><staff>1</staff></note><note><pitch><step>C</step><octave>2</octave></pitch><duration>8</duration><voice>2</voice><type>whole</type><staff>2</staff></note></measure><measure number="7"><harmony><root><root-step>F</root-step></root><kind text="F13sus(#9)">dominant</kind></harmony><note><pitch><step>C</step><octave>5</octave></pitch><duration>2</duration><voice>1</voice><type>quarter</type><staff>1</staff></note><note><pitch><step>E</step><alter>-1</alter><octave>5</octave></pitch><duration>2</duration><voice>1</voice><type>quarter</type><staff>1</staff></note><note><pitch><step>F</step><octave>5</octave></pitch><duration>2</duration><voice>1</voice><type>quarter</type><staff>1</staff></note><note><pitch><step>A</step><octave>5</octave></pitch><duration>2</duration><voice>1</voice><type>quarter</type><staff>1</staff></note><note><pitch><step>F</step><octave>2</octave></pitch><duration>8</duration><voice>2</voice><type>whole</type><staff>2</staff></note></measure><measure number="8"><harmony><root><root-step>E</root-step></root><kind text="Em11/C → A7alt">minor-11</kind></harmony><note><pitch><step>B</step><octave>5</octave></pitch><duration>2</duration><voice>1</voice><type>quarter</type><staff>1</staff></note><note><pitch><step>A</step><octave>5</octave></pitch><duration>2</duration><voice>1</voice><type>quarter</type><staff>1</staff></note><note><pitch><step>G</step><octave>5</octave></pitch><duration>4</duration><voice>1</voice><type>half</type><staff>1</staff></note><note><pitch><step>C</step><octave>2</octave></pitch><duration>8</duration><voice>2</voice><type>whole</type><staff>2</staff></note></measure><measure number="9"><harmony><root><root-step>C</root-step></root><kind text="Cmaj9(#11)">major</kind></harmony><note><pitch><step>C</step><octave>6</octave></pitch><duration>2</duration><voice>1</voice><type>quarter</type><staff>1</staff></note><note><pitch><step>A</step><octave>5</octave></pitch><duration>2</duration><voice>1</voice><type>quarter</type><staff>1</staff></note><note><pitch><step>G</step><octave>5</octave></pitch><duration>4</duration><voice>1</voice><type>half</type><staff>1</staff></note><note><pitch><step>C</step><octave>2</octave></pitch><duration>8</duration><voice>2</voice><type>whole</type><staff>2</staff></note></measure><measure number="10"><harmony><root><root-step>E</root-step></root><kind text="Ebmaj7(#11)">major</kind></harmony><note><pitch><step>F</step><octave>5</octave></pitch><duration>2</duration><voice>1</voice><type>quarter</type><staff>1</staff></note><note><pitch><step>E</step><alter>-1</alter><octave>5</octave></pitch><duration>2</duration><voice>1</voice><type>quarter</type><staff>1</staff></note><note><pitch><step>G</step><octave>5</octave></pitch><duration>2</duration><voice>1</voice><type>quarter</type><staff>1</staff></note><note><pitch><step>A</step><octave>5</octave></pitch><duration>2</duration><voice>1</voice><type>quarter</type><staff>1</staff></note><note><pitch><step>Eb</step><octave>2</octave></pitch><duration>8</duration><voice>2</voice><type>whole</type><staff>2</staff></note></measure><measure number="11"><harmony><root><root-step>D</root-step></root><kind text="D7alt">dominant</kind></harmony><note><pitch><step>D</step><octave>5</octave></pitch><duration>2</duration><voice>1</voice><type>quarter</type><staff>1</staff></note><note><pitch><step>F</step><octave>5</octave></pitch><duration>2</duration><voice>1</voice><type>quarter</type><staff>1</staff></note><note><pitch><step>A</step><octave>5</octave></pitch><duration>2</duration><voice>1</voice><type>quarter</type><staff>1</staff></note><note><pitch><step>G</step><octave>5</octave></pitch><duration>2</duration><voice>1</voice><type>quarter</type><staff>1</staff></note><note><pitch><step>D</step><octave>2</octave></pitch><duration>8</duration><voice>2</voice><type>whole</type><staff>2</staff></note></measure><measure number="12"><harmony><root><root-step>G</root-step></root><kind text="G13sus → C7">dominant</kind></harmony><note><pitch><step>F</step><octave>5</octave></pitch><duration>2</duration><voice>1</voice><type>quarter</type><staff>1</staff></note><note><pitch><step>D</step><octave>5</octave></pitch><duration>2</duration><voice>1</voice><type>quarter</type><staff>1</staff></note><note><pitch><step>C</step><octave>5</octave></pitch><duration>4</duration><voice>1</voice><type>half</type><staff>1</staff></note><note><pitch><step>G</step><octave>2</octave></pitch><duration>8</duration><voice>2</voice><type>whole</type><staff>2</staff></note></measure><measure number="13"><harmony><root><root-step>C</root-step></root><kind text="C7(9,13)">dominant</kind></harmony><note><pitch><step>C</step><octave>5</octave></pitch><duration>2</duration><voice>1</voice><type>quarter</type><staff>1</staff></note><note><pitch><step>E</step><alter>-1</alter><octave>5</octave></pitch><duration>2</duration><voice>1</voice><type>quarter</type><staff>1</staff></note><note><pitch><step>F</step><octave>5</octave></pitch><duration>2</duration><voice>1</voice><type>quarter</type><staff>1</staff></note><note><pitch><step>G</step><octave>5</octave></pitch><duration>2</duration><voice>1</voice><type>quarter</type><staff>1</staff></note><note><pitch><step>C</step><octave>2</octave></pitch><duration>8</duration><voice>2</voice><type>whole</type><staff>2</staff></note></measure><measure number="14"><harmony><root><root-step>B</root-step></root><kind text="Bbmaj7(#11)/C">major</kind></harmony><note><pitch><step>A</step><octave>5</octave></pitch><duration>2</duration><voice>1</voice><type>quarter</type><staff>1</staff></note><note><pitch><step>G</step><octave>5</octave></pitch><duration>2</duration><voice>1</voice><type>quarter</type><staff>1</staff></note><note><pitch><step>E</step><octave>5</octave></pitch><duration>4</duration><voice>1</voice><type>half</type><staff>1</staff></note><note><pitch><step>C</step><octave>2</octave></pitch><duration>8</duration><voice>2</voice><type>whole</type><staff>2</staff></note></measure><measure number="15"><harmony><root><root-step>F</root-step></root><kind text="F13sus → G7alt">dominant</kind></harmony><note><pitch><step>G</step><octave>5</octave></pitch><duration>2</duration><voice>1</voice><type>quarter</type><staff>1</staff></note><note><pitch><step>F</step><octave>5</octave></pitch><duration>2</duration><voice>1</voice><type>quarter</type><staff>1</staff></note><note><pitch><step>D</step><octave>5</octave></pitch><duration>4</duration><voice>1</voice><type>half</type><staff>1</staff></note><note><pitch><step>F</step><octave>2</octave></pitch><duration>8</duration><voice>2</voice><type>whole</type><staff>2</staff></note></measure><measure number="16"><harmony><root><root-step>C</root-step></root><kind text="C6/9">major</kind></harmony><note><pitch><step>C</step><octave>5</octave></pitch><duration>8</duration><voice>1</voice><type>whole</type><staff>1</staff></note><note><pitch><step>C</step><octave>2</octave></pitch><duration>8</duration><voice>2</voice><type>whole</type><staff>2</staff></note></measure></part></score-partwise>