<?xml version="1.0" encoding="UTF-8"?>
<!DOCTYPE score-partwise PUBLIC "-//Recordare//DTD MusicXML 4.0 Partwise//EN" "http://www.musicxml.org/dtds/partwise.dtd">
<score-partwise version="4.0">
  <work>
    <work-title>The Master's Palette — Movement I</work-title>
  </work>
  <identification>
    <creator type="composer">Mike Bryant</creator>
    <encoding>
      <software>Proper Lead Sheet Generator</software>
      <encoding-date>2025-12-10</encoding-date>
    </encoding>
  </identification>
  <defaults>
    <scaling>
      <millimeters>7.0</millimeters>
      <tenths>40</tenths>
    </scaling>
    <page-layout>
      <page-height>1683</page-height>
      <page-width>1190</page-width>
      <page-margins type="both">
        <left-margin>70</left-margin>
        <right-margin>70</right-margin>
        <top-margin>88</top-margin>
        <bottom-margin>88</bottom-margin>
      </page-margins>
    </page-layout>
    <system-layout>
      <system-margins>
        <left-margin>0</left-margin>
        <right-margin>0</right-margin>
      </system-margins>
      <system-distance>160</system-distance>
      <top-system-distance>120</top-system-distance>
    </system-layout>
    <staff-layout>
      <staff-distance>80</staff-distance>
    </staff-layout>
  </defaults>
  <part-list>
    <score-part id="P1">
      <part-name>Piano</part-name>
      <part-abbreviation>Pno.</part-abbreviation>
    </score-part>
  </part-list>
  <part id="P1">
    <measure number="1">
      <attributes>
        <divisions>256</divisions>
        <key><fifths>0</fifths></key>
        <time><beats>4</beats><beat-type>4</beat-type></time>
        <staves>2</staves>
        <clef number="1"><sign>G</sign><line>2</line></clef>
        <clef number="2"><sign>F</sign><line>4</line></clef>
      </attributes>
      <direction placement="above">
        <direction-type>
          <words default-y="100" font-size="14" font-weight="bold">MOVEMENT I — A: Basie Concept</words>
        </direction-type>
        <staff>1</staff>
      </direction>
      <direction placement="above">
        <direction-type>
          <rehearsal default-y="85" font-size="14" font-weight="bold" enclosure="rectangle">A</rehearsal>
        </direction-type>
        <staff>1</staff>
      </direction>
      <direction placement="above">
        <direction-type>
          <words default-y="70" font-size="9" font-style="italic">Triad Pair: C + D major</words>
        </direction-type>
        <staff>1</staff>
      </direction>
      <harmony default-y="55">
        <root><root-step>C</root-step></root>
        <kind text="C7(9,13)">none</kind>
        <staff>1</staff>
      </harmony>
      <note>
        <pitch>
          <step>C</step>
          <octave>5</octave>
        </pitch>
        <duration>256</duration>
        <type>quarter</type>
        <staff>1</staff>
        <voice>1</voice>
        <notations>
          <slur type="start" number="1"/>
        </notations>
      </note>
      <note>
        <pitch>
          <step>E</step>
          <alter>-1</alter>
          <octave>5</octave>
        </pitch>
        <duration>256</duration>
        <type>quarter</type>
        <staff>1</staff>
        <voice>1</voice>
      </note>
      <note>
        <pitch>
          <step>F</step>
          <octave>5</octave>
        </pitch>
        <duration>512</duration>
        <type>half</type>
        <staff>1</staff>
        <voice>1</voice>
        <notations>
          <slur type="stop" number="1"/>
        </notations>
      </note>
      <backup>
        <duration>1024</duration>
      </backup>
      <note>
        <pitch>
          <step>C</step>
          <octave>2</octave>
        </pitch>
        <duration>256</duration>
        <type>quarter</type>
        <staff>2</staff>
        <voice>5</voice>
      </note>
      <note>
        <pitch>
          <step>E</step>
          <octave>3</octave>
        </pitch>
        <duration>256</duration>
        <type>quarter</type>
        <staff>2</staff>
        <voice>5</voice>
        <notations>
          <articulations><accent/></articulations>
        </notations>
      </note>
      <note>
        <chord/>
        <pitch>
          <step>B</step>
          <alter>-1</alter>
          <octave>3</octave>
        </pitch>
        <duration>256</duration>
        <type>quarter</type>
        <staff>2</staff>
        <voice>5</voice>
      </note>
      <note>
        <chord/>
        <pitch>
          <step>D</step>
          <octave>4</octave>
        </pitch>
        <duration>256</duration>
        <type>quarter</type>
        <staff>2</staff>
        <voice>5</voice>
      </note>
      <note>
        <pitch>
          <step>D</step>
          <octave>3</octave>
        </pitch>
        <duration>256</duration>
        <type>quarter</type>
        <staff>2</staff>
        <voice>5</voice>
      </note>
      <note>
        <chord/>
        <pitch>
          <step>F</step>
          <alter>1</alter>
          <octave>3</octave>
        </pitch>
        <duration>256</duration>
        <type>quarter</type>
        <staff>2</staff>
        <voice>5</voice>
      </note>
      <note>
        <chord/>
        <pitch>
          <step>A</step>
          <octave>3</octave>
        </pitch>
        <duration>256</duration>
        <type>quarter</type>
        <staff>2</staff>
        <voice>5</voice>
      </note>
      <note>
        <pitch>
          <step>C</step>
          <octave>3</octave>
        </pitch>
        <duration>256</duration>
        <type>quarter</type>
        <staff>2</staff>
        <voice>5</voice>
      </note>
      <note>
        <chord/>
        <pitch>
          <step>E</step>
          <octave>3</octave>
        </pitch>
        <duration>256</duration>
        <type>quarter</type>
        <staff>2</staff>
        <voice>5</voice>
      </note>
      <note>
        <chord/>
        <pitch>
          <step>G</step>
          <octave>3</octave>
        </pitch>
        <duration>256</duration>
        <type>quarter</type>
        <staff>2</staff>
        <voice>5</voice>
      </note>
    </measure>
    <measure number="2">
      <harmony default-y="55">
        <root><root-step>C</root-step></root>
        <kind text="Bb13(#11)">none</kind>
        <staff>1</staff>
      </harmony>
      <note>
        <pitch>
          <step>G</step>
          <octave>5</octave>
        </pitch>
        <duration>1024</duration>
        <type>whole</type>
        <staff>1</staff>
        <voice>1</voice>
        <notations>
          <articulations><tenuto/></articulations>
        </notations>
      </note>
      <backup>
        <duration>1024</duration>
      </backup>
      <note>
        <pitch>
          <step>B</step>
          <alter>-1</alter>
          <octave>2</octave>
        </pitch>
        <duration>512</duration>
        <type>half</type>
        <staff>2</staff>
        <voice>5</voice>
      </note>
      <note>
        <pitch>
          <step>A</step>
          <octave>3</octave>
        </pitch>
        <duration>512</duration>
        <type>half</type>
        <staff>2</staff>
        <voice>5</voice>
      </note>
      <note>
        <chord/>
        <pitch>
          <step>D</step>
          <octave>4</octave>
        </pitch>
        <duration>512</duration>
        <type>half</type>
        <staff>2</staff>
        <voice>5</voice>
      </note>
      <note>
        <chord/>
        <pitch>
          <step>E</step>
          <octave>4</octave>
        </pitch>
        <duration>512</duration>
        <type>half</type>
        <staff>2</staff>
        <voice>5</voice>
      </note>
      <note>
        <pitch>
          <step>B</step>
          <alter>-1</alter>
          <octave>2</octave>
        </pitch>
        <duration>512</duration>
        <type>half</type>
        <staff>2</staff>
        <voice>5</voice>
      </note>
      <note>
        <pitch>
          <step>F</step>
          <octave>3</octave>
        </pitch>
        <duration>512</duration>
        <type>half</type>
        <staff>2</staff>
        <voice>5</voice>
      </note>
      <note>
        <chord/>
        <pitch>
          <step>A</step>
          <octave>3</octave>
        </pitch>
        <duration>512</duration>
        <type>half</type>
        <staff>2</staff>
        <voice>5</voice>
      </note>
      <note>
        <chord/>
        <pitch>
          <step>D</step>
          <octave>4</octave>
        </pitch>
        <duration>512</duration>
        <type>half</type>
        <staff>2</staff>
        <voice>5</voice>
      </note>
    </measure>
    <measure number="3">
      <harmony default-y="55">
        <root><root-step>C</root-step></root>
        <kind text="F13sus">none</kind>
        <staff>1</staff>
      </harmony>
      <note>
        <pitch>
          <step>F</step>
          <octave>5</octave>
        </pitch>
        <duration>256</duration>
        <type>quarter</type>
        <staff>1</staff>
        <voice>1</voice>
        <notations>
          <slur type="start" number="1"/>
        </notations>
      </note>
      <note>
        <pitch>
          <step>E</step>
          <alter>-1</alter>
          <octave>5</octave>
        </pitch>
        <duration>256</duration>
        <type>quarter</type>
        <staff>1</staff>
        <voice>1</voice>
      </note>
      <note>
        <pitch>
          <step>C</step>
          <octave>5</octave>
        </pitch>
        <duration>512</duration>
        <type>half</type>
        <staff>1</staff>
        <voice>1</voice>
        <notations>
          <slur type="stop" number="1"/>
        </notations>
      </note>
      <backup>
        <duration>1024</duration>
      </backup>
      <note>
        <pitch>
          <step>F</step>
          <octave>2</octave>
        </pitch>
        <duration>256</duration>
        <type>quarter</type>
        <staff>2</staff>
        <voice>5</voice>
      </note>
      <note>
        <pitch>
          <step>E</step>
          <alter>-1</alter>
          <octave>3</octave>
        </pitch>
        <duration>256</duration>
        <type>quarter</type>
        <staff>2</staff>
        <voice>5</voice>
        <notations>
          <articulations><accent/></articulations>
        </notations>
      </note>
      <note>
        <chord/>
        <pitch>
          <step>B</step>
          <alter>-1</alter>
          <octave>3</octave>
        </pitch>
        <duration>256</duration>
        <type>quarter</type>
        <staff>2</staff>
        <voice>5</voice>
      </note>
      <note>
        <chord/>
        <pitch>
          <step>D</step>
          <octave>4</octave>
        </pitch>
        <duration>256</duration>
        <type>quarter</type>
        <staff>2</staff>
        <voice>5</voice>
      </note>
      <note>
        <pitch>
          <step>F</step>
          <octave>3</octave>
        </pitch>
        <duration>512</duration>
        <type>half</type>
        <staff>2</staff>
        <voice>5</voice>
      </note>
      <note>
        <chord/>
        <pitch>
          <step>B</step>
          <alter>-1</alter>
          <octave>3</octave>
        </pitch>
        <duration>512</duration>
        <type>half</type>
        <staff>2</staff>
        <voice>5</voice>
      </note>
      <note>
        <chord/>
        <pitch>
          <step>E</step>
          <alter>-1</alter>
          <octave>4</octave>
        </pitch>
        <duration>512</duration>
        <type>half</type>
        <staff>2</staff>
        <voice>5</voice>
      </note>
    </measure>
    <measure number="4">
      <harmony default-y="55">
        <root><root-step>C</root-step></root>
        <kind text="C7(#9)">none</kind>
        <staff>1</staff>
      </harmony>
      <note>
        <pitch>
          <step>D</step>
          <octave>5</octave>
        </pitch>
        <duration>256</duration>
        <type>quarter</type>
        <staff>1</staff>
        <voice>1</voice>
      </note>
      <note>
        <pitch>
          <step>F</step>
          <octave>5</octave>
        </pitch>
        <duration>256</duration>
        <type>quarter</type>
        <staff>1</staff>
        <voice>1</voice>
      </note>
      <note>
        <pitch>
          <step>E</step>
          <octave>5</octave>
        </pitch>
        <duration>512</duration>
        <type>half</type>
        <staff>1</staff>
        <voice>1</voice>
      </note>
      <backup>
        <duration>1024</duration>
      </backup>
      <note>
        <pitch>
          <step>C</step>
          <octave>2</octave>
        </pitch>
        <duration>256</duration>
        <type>quarter</type>
        <staff>2</staff>
        <voice>5</voice>
      </note>
      <note>
        <pitch>
          <step>E</step>
          <octave>3</octave>
        </pitch>
        <duration>256</duration>
        <type>quarter</type>
        <staff>2</staff>
        <voice>5</voice>
      </note>
      <note>
        <chord/>
        <pitch>
          <step>B</step>
          <alter>-1</alter>
          <octave>3</octave>
        </pitch>
        <duration>256</duration>
        <type>quarter</type>
        <staff>2</staff>
        <voice>5</voice>
      </note>
      <note>
        <chord/>
        <pitch>
          <step>D</step>
          <alter>1</alter>
          <octave>4</octave>
        </pitch>
        <duration>256</duration>
        <type>quarter</type>
        <staff>2</staff>
        <voice>5</voice>
      </note>
      <note>
        <pitch>
          <step>G</step>
          <octave>2</octave>
        </pitch>
        <duration>256</duration>
        <type>quarter</type>
        <staff>2</staff>
        <voice>5</voice>
      </note>
      <note>
        <pitch>
          <step>C</step>
          <octave>3</octave>
        </pitch>
        <duration>512</duration>
        <type>half</type>
        <staff>2</staff>
        <voice>5</voice>
      </note>
      <note>
        <chord/>
        <pitch>
          <step>E</step>
          <octave>3</octave>
        </pitch>
        <duration>512</duration>
        <type>half</type>
        <staff>2</staff>
        <voice>5</voice>
      </note>
      <note>
        <chord/>
        <pitch>
          <step>B</step>
          <alter>-1</alter>
          <octave>3</octave>
        </pitch>
        <duration>512</duration>
        <type>half</type>
        <staff>2</staff>
        <voice>5</voice>
      </note>
    </measure>
    <measure number="5">
      <print new-system="yes"/>
      <direction placement="above">
        <direction-type>
          <words default-y="70" font-size="9" font-style="italic">Polychord: Ab maj / C bass</words>
        </direction-type>
        <staff>1</staff>
      </direction>
      <harmony default-y="55">
        <root><root-step>C</root-step></root>
        <kind text="Abmaj7(#11)/C">none</kind>
        <staff>1</staff>
      </harmony>
      <note>
        <pitch>
          <step>G</step>
          <octave>5</octave>
        </pitch>
        <duration>256</duration>
        <type>quarter</type>
        <staff>1</staff>
        <voice>1</voice>
      </note>
      <note>
        <pitch>
          <step>A</step>
          <octave>5</octave>
        </pitch>
        <duration>256</duration>
        <type>quarter</type>
        <staff>1</staff>
        <voice>1</voice>
      </note>
      <note>
        <pitch>
          <step>G</step>
          <octave>5</octave>
        </pitch>
        <duration>512</duration>
        <type>half</type>
        <staff>1</staff>
        <voice>1</voice>
      </note>
      <backup>
        <duration>1024</duration>
      </backup>
      <note>
        <pitch>
          <step>C</step>
          <octave>2</octave>
        </pitch>
        <duration>256</duration>
        <type>quarter</type>
        <staff>2</staff>
        <voice>5</voice>
      </note>
      <note>
        <pitch>
          <step>A</step>
          <alter>-1</alter>
          <octave>3</octave>
        </pitch>
        <duration>256</duration>
        <type>quarter</type>
        <staff>2</staff>
        <voice>5</voice>
        <notations>
          <articulations><accent/></articulations>
        </notations>
      </note>
      <note>
        <chord/>
        <pitch>
          <step>C</step>
          <octave>4</octave>
        </pitch>
        <duration>256</duration>
        <type>quarter</type>
        <staff>2</staff>
        <voice>5</voice>
      </note>
      <note>
        <chord/>
        <pitch>
          <step>E</step>
          <alter>-1</alter>
          <octave>4</octave>
        </pitch>
        <duration>256</duration>
        <type>quarter</type>
        <staff>2</staff>
        <voice>5</voice>
      </note>
      <note>
        <pitch>
          <step>C</step>
          <octave>3</octave>
        </pitch>
        <duration>512</duration>
        <type>half</type>
        <staff>2</staff>
        <voice>5</voice>
      </note>
      <note>
        <chord/>
        <pitch>
          <step>G</step>
          <octave>3</octave>
        </pitch>
        <duration>512</duration>
        <type>half</type>
        <staff>2</staff>
        <voice>5</voice>
      </note>
      <note>
        <chord/>
        <pitch>
          <step>A</step>
          <alter>-1</alter>
          <octave>3</octave>
        </pitch>
        <duration>512</duration>
        <type>half</type>
        <staff>2</staff>
        <voice>5</voice>
      </note>
    </measure>
    <measure number="6">
      <harmony default-y="55">
        <root><root-step>C</root-step></root>
        <kind text="Dø7">none</kind>
        <staff>1</staff>
      </harmony>
      <note>
        <pitch>
          <step>F</step>
          <octave>5</octave>
        </pitch>
        <duration>512</duration>
        <type>half</type>
        <staff>1</staff>
        <voice>1</voice>
      </note>
      <harmony default-y="55">
        <root><root-step>C</root-step></root>
        <kind text="G7(b9)">none</kind>
        <staff>1</staff>
      </harmony>
      <note>
        <pitch>
          <step>E</step>
          <alter>-1</alter>
          <octave>5</octave>
        </pitch>
        <duration>512</duration>
        <type>half</type>
        <staff>1</staff>
        <voice>1</voice>
      </note>
      <backup>
        <duration>1024</duration>
      </backup>
      <note>
        <pitch>
          <step>D</step>
          <octave>2</octave>
        </pitch>
        <duration>256</duration>
        <type>quarter</type>
        <staff>2</staff>
        <voice>5</voice>
      </note>
      <note>
        <pitch>
          <step>F</step>
          <octave>3</octave>
        </pitch>
        <duration>256</duration>
        <type>quarter</type>
        <staff>2</staff>
        <voice>5</voice>
      </note>
      <note>
        <chord/>
        <pitch>
          <step>A</step>
          <alter>-1</alter>
          <octave>3</octave>
        </pitch>
        <duration>256</duration>
        <type>quarter</type>
        <staff>2</staff>
        <voice>5</voice>
      </note>
      <note>
        <chord/>
        <pitch>
          <step>C</step>
          <octave>4</octave>
        </pitch>
        <duration>256</duration>
        <type>quarter</type>
        <staff>2</staff>
        <voice>5</voice>
      </note>
      <note>
        <pitch>
          <step>G</step>
          <octave>2</octave>
        </pitch>
        <duration>256</duration>
        <type>quarter</type>
        <staff>2</staff>
        <voice>5</voice>
      </note>
      <note>
        <pitch>
          <step>B</step>
          <octave>3</octave>
        </pitch>
        <duration>256</duration>
        <type>quarter</type>
        <staff>2</staff>
        <voice>5</voice>
      </note>
      <note>
        <chord/>
        <pitch>
          <step>F</step>
          <octave>3</octave>
        </pitch>
        <duration>256</duration>
        <type>quarter</type>
        <staff>2</staff>
        <voice>5</voice>
      </note>
      <note>
        <chord/>
        <pitch>
          <step>A</step>
          <alter>-1</alter>
          <octave>4</octave>
        </pitch>
        <duration>256</duration>
        <type>quarter</type>
        <staff>2</staff>
        <voice>5</voice>
      </note>
    </measure>
    <measure number="7">
      <harmony default-y="55">
        <root><root-step>C</root-step></root>
        <kind text="C7">none</kind>
        <staff>1</staff>
      </harmony>
      <note>
        <pitch>
          <step>C</step>
          <octave>5</octave>
        </pitch>
        <duration>1024</duration>
        <type>whole</type>
        <staff>1</staff>
        <voice>1</voice>
        <notations>
          <articulations><tenuto/></articulations>
        </notations>
      </note>
      <backup>
        <duration>1024</duration>
      </backup>
      <note>
        <pitch>
          <step>C</step>
          <octave>2</octave>
        </pitch>
        <duration>512</duration>
        <type>half</type>
        <staff>2</staff>
        <voice>5</voice>
      </note>
      <note>
        <pitch>
          <step>E</step>
          <octave>3</octave>
        </pitch>
        <duration>512</duration>
        <type>half</type>
        <staff>2</staff>
        <voice>5</voice>
      </note>
      <note>
        <chord/>
        <pitch>
          <step>B</step>
          <alter>-1</alter>
          <octave>3</octave>
        </pitch>
        <duration>512</duration>
        <type>half</type>
        <staff>2</staff>
        <voice>5</voice>
      </note>
      <note>
        <pitch>
          <step>C</step>
          <octave>3</octave>
        </pitch>
        <duration>512</duration>
        <type>half</type>
        <staff>2</staff>
        <voice>5</voice>
      </note>
      <note>
        <chord/>
        <pitch>
          <step>G</step>
          <octave>3</octave>
        </pitch>
        <duration>512</duration>
        <type>half</type>
        <staff>2</staff>
        <voice>5</voice>
      </note>
      <note>
        <chord/>
        <pitch>
          <step>B</step>
          <alter>-1</alter>
          <octave>3</octave>
        </pitch>
        <duration>512</duration>
        <type>half</type>
        <staff>2</staff>
        <voice>5</voice>
      </note>
    </measure>
    <measure number="8">
      <direction placement="above">
        <direction-type>
          <words default-y="70" font-size="9" font-style="italic">Triad Pair: G + F triads</words>
        </direction-type>
        <staff>1</staff>
      </direction>
      <harmony default-y="55">
        <root><root-step>C</root-step></root>
        <kind text="G13sus">none</kind>
        <staff>1</staff>
      </harmony>
      <note>
        <rest/>
        <duration>512</duration>
        <type>half</type>
        <staff>1</staff>
        <voice>1</voice>
      </note>
      <note>
        <pitch>
          <step>E</step>
          <octave>5</octave>
        </pitch>
        <duration>256</duration>
        <type>quarter</type>
        <staff>1</staff>
        <voice>1</voice>
      </note>
      <note>
        <pitch>
          <step>G</step>
          <octave>5</octave>
        </pitch>
        <duration>256</duration>
        <type>quarter</type>
        <staff>1</staff>
        <voice>1</voice>
      </note>
      <backup>
        <duration>1024</duration>
      </backup>
      <note>
        <pitch>
          <step>G</step>
          <octave>2</octave>
        </pitch>
        <duration>256</duration>
        <type>quarter</type>
        <staff>2</staff>
        <voice>5</voice>
      </note>
      <note>
        <pitch>
          <step>G</step>
          <octave>3</octave>
        </pitch>
        <duration>256</duration>
        <type>quarter</type>
        <staff>2</staff>
        <voice>5</voice>
      </note>
      <note>
        <chord/>
        <pitch>
          <step>B</step>
          <octave>3</octave>
        </pitch>
        <duration>256</duration>
        <type>quarter</type>
        <staff>2</staff>
        <voice>5</voice>
      </note>
      <note>
        <chord/>
        <pitch>
          <step>D</step>
          <octave>4</octave>
        </pitch>
        <duration>256</duration>
        <type>quarter</type>
        <staff>2</staff>
        <voice>5</voice>
      </note>
      <note>
        <pitch>
          <step>F</step>
          <octave>3</octave>
        </pitch>
        <duration>256</duration>
        <type>quarter</type>
        <staff>2</staff>
        <voice>5</voice>
        <notations>
          <articulations><accent/></articulations>
        </notations>
      </note>
      <note>
        <chord/>
        <pitch>
          <step>A</step>
          <octave>3</octave>
        </pitch>
        <duration>256</duration>
        <type>quarter</type>
        <staff>2</staff>
        <voice>5</voice>
      </note>
      <note>
        <chord/>
        <pitch>
          <step>C</step>
          <octave>4</octave>
        </pitch>
        <duration>256</duration>
        <type>quarter</type>
        <staff>2</staff>
        <voice>5</voice>
      </note>
      <note>
        <pitch>
          <step>G</step>
          <octave>2</octave>
        </pitch>
        <duration>256</duration>
        <type>quarter</type>
        <staff>2</staff>
        <voice>5</voice>
      </note>
    </measure>
    <measure number="9">
      <print new-system="yes"/>
      <harmony default-y="55">
        <root><root-step>C</root-step></root>
        <kind text="C9sus">none</kind>
        <staff>1</staff>
      </harmony>
      <note>
        <pitch>
          <step>E</step>
          <octave>5</octave>
        </pitch>
        <duration>256</duration>
        <type>quarter</type>
        <staff>1</staff>
        <voice>1</voice>
        <notations>
          <slur type="start" number="1"/>
        </notations>
      </note>
      <note>
        <pitch>
          <step>G</step>
          <octave>5</octave>
        </pitch>
        <duration>256</duration>
        <type>quarter</type>
        <staff>1</staff>
        <voice>1</voice>
      </note>
      <harmony default-y="55">
        <root><root-step>C</root-step></root>
        <kind text="C13">none</kind>
        <staff>1</staff>
      </harmony>
      <note>
        <pitch>
          <step>B</step>
          <alter>-1</alter>
          <octave>5</octave>
        </pitch>
        <duration>512</duration>
        <type>half</type>
        <staff>1</staff>
        <voice>1</voice>
        <notations>
          <slur type="stop" number="1"/>
        </notations>
      </note>
      <backup>
        <duration>1024</duration>
      </backup>
      <note>
        <pitch>
          <step>C</step>
          <octave>2</octave>
        </pitch>
        <duration>256</duration>
        <type>quarter</type>
        <staff>2</staff>
        <voice>5</voice>
      </note>
      <note>
        <pitch>
          <step>F</step>
          <octave>3</octave>
        </pitch>
        <duration>256</duration>
        <type>quarter</type>
        <staff>2</staff>
        <voice>5</voice>
      </note>
      <note>
        <chord/>
        <pitch>
          <step>B</step>
          <alter>-1</alter>
          <octave>3</octave>
        </pitch>
        <duration>256</duration>
        <type>quarter</type>
        <staff>2</staff>
        <voice>5</voice>
      </note>
      <note>
        <chord/>
        <pitch>
          <step>D</step>
          <octave>4</octave>
        </pitch>
        <duration>256</duration>
        <type>quarter</type>
        <staff>2</staff>
        <voice>5</voice>
      </note>
      <note>
        <pitch>
          <step>E</step>
          <octave>3</octave>
        </pitch>
        <duration>256</duration>
        <type>quarter</type>
        <staff>2</staff>
        <voice>5</voice>
      </note>
      <note>
        <chord/>
        <pitch>
          <step>A</step>
          <octave>3</octave>
        </pitch>
        <duration>256</duration>
        <type>quarter</type>
        <staff>2</staff>
        <voice>5</voice>
      </note>
      <note>
        <chord/>
        <pitch>
          <step>B</step>
          <alter>-1</alter>
          <octave>3</octave>
        </pitch>
        <duration>256</duration>
        <type>quarter</type>
        <staff>2</staff>
        <voice>5</voice>
      </note>
      <note>
        <pitch>
          <step>C</step>
          <octave>3</octave>
        </pitch>
        <duration>256</duration>
        <type>quarter</type>
        <staff>2</staff>
        <voice>5</voice>
      </note>
    </measure>
    <measure number="10">
      <harmony default-y="55">
        <root><root-step>C</root-step></root>
        <kind text="Ebmaj7(#11)">none</kind>
        <staff>1</staff>
      </harmony>
      <note>
        <pitch>
          <step>A</step>
          <octave>5</octave>
        </pitch>
        <duration>512</duration>
        <type>half</type>
        <staff>1</staff>
        <voice>1</voice>
      </note>
      <note>
        <pitch>
          <step>F</step>
          <octave>5</octave>
        </pitch>
        <duration>512</duration>
        <type>half</type>
        <staff>1</staff>
        <voice>1</voice>
      </note>
      <backup>
        <duration>1024</duration>
      </backup>
      <note>
        <pitch>
          <step>E</step>
          <alter>-1</alter>
          <octave>2</octave>
        </pitch>
        <duration>512</duration>
        <type>half</type>
        <staff>2</staff>
        <voice>5</voice>
      </note>
      <note>
        <pitch>
          <step>G</step>
          <octave>3</octave>
        </pitch>
        <duration>512</duration>
        <type>half</type>
        <staff>2</staff>
        <voice>5</voice>
      </note>
      <note>
        <chord/>
        <pitch>
          <step>B</step>
          <alter>-1</alter>
          <octave>3</octave>
        </pitch>
        <duration>512</duration>
        <type>half</type>
        <staff>2</staff>
        <voice>5</voice>
      </note>
      <note>
        <chord/>
        <pitch>
          <step>D</step>
          <octave>4</octave>
        </pitch>
        <duration>512</duration>
        <type>half</type>
        <staff>2</staff>
        <voice>5</voice>
      </note>
      <note>
        <pitch>
          <step>E</step>
          <alter>-1</alter>
          <octave>3</octave>
        </pitch>
        <duration>512</duration>
        <type>half</type>
        <staff>2</staff>
        <voice>5</voice>
      </note>
      <note>
        <chord/>
        <pitch>
          <step>A</step>
          <octave>3</octave>
        </pitch>
        <duration>512</duration>
        <type>half</type>
        <staff>2</staff>
        <voice>5</voice>
      </note>
      <note>
        <chord/>
        <pitch>
          <step>B</step>
          <alter>-1</alter>
          <octave>3</octave>
        </pitch>
        <duration>512</duration>
        <type>half</type>
        <staff>2</staff>
        <voice>5</voice>
      </note>
    </measure>
    <measure number="11">
      <harmony default-y="55">
        <root><root-step>C</root-step></root>
        <kind text="D7alt">none</kind>
        <staff>1</staff>
      </harmony>
      <note>
        <pitch>
          <step>G</step>
          <octave>5</octave>
        </pitch>
        <duration>256</duration>
        <type>quarter</type>
        <staff>1</staff>
        <voice>1</voice>
      </note>
      <note>
        <pitch>
          <step>A</step>
          <octave>5</octave>
        </pitch>
        <duration>256</duration>
        <type>quarter</type>
        <staff>1</staff>
        <voice>1</voice>
      </note>
      <note>
        <pitch>
          <step>G</step>
          <octave>5</octave>
        </pitch>
        <duration>512</duration>
        <type>half</type>
        <staff>1</staff>
        <voice>1</voice>
      </note>
      <backup>
        <duration>1024</duration>
      </backup>
      <note>
        <pitch>
          <step>D</step>
          <octave>2</octave>
        </pitch>
        <duration>256</duration>
        <type>quarter</type>
        <staff>2</staff>
        <voice>5</voice>
      </note>
      <note>
        <pitch>
          <step>F</step>
          <alter>1</alter>
          <octave>3</octave>
        </pitch>
        <duration>256</duration>
        <type>quarter</type>
        <staff>2</staff>
        <voice>5</voice>
      </note>
      <note>
        <chord/>
        <pitch>
          <step>C</step>
          <octave>4</octave>
        </pitch>
        <duration>256</duration>
        <type>quarter</type>
        <staff>2</staff>
        <voice>5</voice>
      </note>
      <note>
        <chord/>
        <pitch>
          <step>E</step>
          <alter>-1</alter>
          <octave>4</octave>
        </pitch>
        <duration>256</duration>
        <type>quarter</type>
        <staff>2</staff>
        <voice>5</voice>
      </note>
      <note>
        <pitch>
          <step>A</step>
          <alter>-1</alter>
          <octave>2</octave>
        </pitch>
        <duration>256</duration>
        <type>quarter</type>
        <staff>2</staff>
        <voice>5</voice>
      </note>
      <note>
        <pitch>
          <step>F</step>
          <alter>1</alter>
          <octave>3</octave>
        </pitch>
        <duration>512</duration>
        <type>half</type>
        <staff>2</staff>
        <voice>5</voice>
      </note>
      <note>
        <chord/>
        <pitch>
          <step>A</step>
          <alter>1</alter>
          <octave>3</octave>
        </pitch>
        <duration>512</duration>
        <type>half</type>
        <staff>2</staff>
        <voice>5</voice>
      </note>
    </measure>
    <measure number="12">
      <harmony default-y="55">
        <root><root-step>C</root-step></root>
        <kind text="G7(b13,b9)">none</kind>
        <staff>1</staff>
      </harmony>
      <note>
        <pitch>
          <step>F</step>
          <octave>5</octave>
        </pitch>
        <duration>256</duration>
        <type>quarter</type>
        <staff>1</staff>
        <voice>1</voice>
      </note>
      <note>
        <pitch>
          <step>E</step>
          <alter>-1</alter>
          <octave>5</octave>
        </pitch>
        <duration>256</duration>
        <type>quarter</type>
        <staff>1</staff>
        <voice>1</voice>
      </note>
      <note>
        <pitch>
          <step>D</step>
          <octave>5</octave>
        </pitch>
        <duration>512</duration>
        <type>half</type>
        <staff>1</staff>
        <voice>1</voice>
      </note>
      <backup>
        <duration>1024</duration>
      </backup>
      <note>
        <pitch>
          <step>G</step>
          <octave>2</octave>
        </pitch>
        <duration>256</duration>
        <type>quarter</type>
        <staff>2</staff>
        <voice>5</voice>
      </note>
      <note>
        <pitch>
          <step>B</step>
          <octave>3</octave>
        </pitch>
        <duration>256</duration>
        <type>quarter</type>
        <staff>2</staff>
        <voice>5</voice>
      </note>
      <note>
        <chord/>
        <pitch>
          <step>F</step>
          <octave>3</octave>
        </pitch>
        <duration>256</duration>
        <type>quarter</type>
        <staff>2</staff>
        <voice>5</voice>
      </note>
      <note>
        <chord/>
        <pitch>
          <step>A</step>
          <alter>-1</alter>
          <octave>4</octave>
        </pitch>
        <duration>256</duration>
        <type>quarter</type>
        <staff>2</staff>
        <voice>5</voice>
      </note>
      <note>
        <chord/>
        <pitch>
          <step>E</step>
          <alter>-1</alter>
          <octave>4</octave>
        </pitch>
        <duration>256</duration>
        <type>quarter</type>
        <staff>2</staff>
        <voice>5</voice>
      </note>
      <note>
        <pitch>
          <step>G</step>
          <octave>3</octave>
        </pitch>
        <duration>512</duration>
        <type>half</type>
        <staff>2</staff>
        <voice>5</voice>
      </note>
      <note>
        <chord/>
        <pitch>
          <step>B</step>
          <octave>3</octave>
        </pitch>
        <duration>512</duration>
        <type>half</type>
        <staff>2</staff>
        <voice>5</voice>
      </note>
      <note>
        <chord/>
        <pitch>
          <step>F</step>
          <octave>4</octave>
        </pitch>
        <duration>512</duration>
        <type>half</type>
        <staff>2</staff>
        <voice>5</voice>
      </note>
    </measure>
    <measure number="13">
      <print new-system="yes"/>
      <harmony default-y="55">
        <root><root-step>C</root-step></root>
        <kind text="F13sus">none</kind>
        <staff>1</staff>
      </harmony>
      <note>
        <pitch>
          <step>C</step>
          <octave>5</octave>
        </pitch>
        <duration>256</duration>
        <type>quarter</type>
        <staff>1</staff>
        <voice>1</voice>
        <notations>
          <slur type="start" number="1"/>
        </notations>
      </note>
      <note>
        <pitch>
          <step>E</step>
          <alter>-1</alter>
          <octave>5</octave>
        </pitch>
        <duration>256</duration>
        <type>quarter</type>
        <staff>1</staff>
        <voice>1</voice>
      </note>
      <note>
        <pitch>
          <step>F</step>
          <octave>5</octave>
        </pitch>
        <duration>512</duration>
        <type>half</type>
        <staff>1</staff>
        <voice>1</voice>
        <notations>
          <slur type="stop" number="1"/>
        </notations>
      </note>
      <backup>
        <duration>1024</duration>
      </backup>
      <note>
        <pitch>
          <step>F</step>
          <octave>2</octave>
        </pitch>
        <duration>256</duration>
        <type>quarter</type>
        <staff>2</staff>
        <voice>5</voice>
      </note>
      <note>
        <pitch>
          <step>E</step>
          <alter>-1</alter>
          <octave>3</octave>
        </pitch>
        <duration>256</duration>
        <type>quarter</type>
        <staff>2</staff>
        <voice>5</voice>
        <notations>
          <articulations><accent/></articulations>
        </notations>
      </note>
      <note>
        <chord/>
        <pitch>
          <step>B</step>
          <alter>-1</alter>
          <octave>3</octave>
        </pitch>
        <duration>256</duration>
        <type>quarter</type>
        <staff>2</staff>
        <voice>5</voice>
      </note>
      <note>
        <chord/>
        <pitch>
          <step>D</step>
          <octave>4</octave>
        </pitch>
        <duration>256</duration>
        <type>quarter</type>
        <staff>2</staff>
        <voice>5</voice>
      </note>
      <note>
        <pitch>
          <step>C</step>
          <octave>3</octave>
        </pitch>
        <duration>512</duration>
        <type>half</type>
        <staff>2</staff>
        <voice>5</voice>
      </note>
      <note>
        <chord/>
        <pitch>
          <step>F</step>
          <octave>3</octave>
        </pitch>
        <duration>512</duration>
        <type>half</type>
        <staff>2</staff>
        <voice>5</voice>
      </note>
      <note>
        <chord/>
        <pitch>
          <step>B</step>
          <alter>-1</alter>
          <octave>3</octave>
        </pitch>
        <duration>512</duration>
        <type>half</type>
        <staff>2</staff>
        <voice>5</voice>
      </note>
    </measure>
    <measure number="14">
      <direction placement="above">
        <direction-type>
          <words default-y="70" font-size="9" font-style="italic">Polychord: Em / C bass</words>
        </direction-type>
        <staff>1</staff>
      </direction>
      <harmony default-y="55">
        <root><root-step>C</root-step></root>
        <kind text="Em7(11)/C">none</kind>
        <staff>1</staff>
      </harmony>
      <note>
        <pitch>
          <step>G</step>
          <octave>5</octave>
        </pitch>
        <duration>512</duration>
        <type>half</type>
        <staff>1</staff>
        <voice>1</voice>
      </note>
      <note>
        <pitch>
          <step>A</step>
          <octave>5</octave>
        </pitch>
        <duration>512</duration>
        <type>half</type>
        <staff>1</staff>
        <voice>1</voice>
      </note>
      <backup>
        <duration>1024</duration>
      </backup>
      <note>
        <pitch>
          <step>C</step>
          <octave>2</octave>
        </pitch>
        <duration>256</duration>
        <type>quarter</type>
        <staff>2</staff>
        <voice>5</voice>
      </note>
      <note>
        <pitch>
          <step>E</step>
          <octave>3</octave>
        </pitch>
        <duration>256</duration>
        <type>quarter</type>
        <staff>2</staff>
        <voice>5</voice>
      </note>
      <note>
        <chord/>
        <pitch>
          <step>G</step>
          <octave>3</octave>
        </pitch>
        <duration>256</duration>
        <type>quarter</type>
        <staff>2</staff>
        <voice>5</voice>
      </note>
      <note>
        <chord/>
        <pitch>
          <step>B</step>
          <octave>3</octave>
        </pitch>
        <duration>256</duration>
        <type>quarter</type>
        <staff>2</staff>
        <voice>5</voice>
      </note>
      <note>
        <pitch>
          <step>C</step>
          <octave>3</octave>
        </pitch>
        <duration>512</duration>
        <type>half</type>
        <staff>2</staff>
        <voice>5</voice>
      </note>
      <note>
        <chord/>
        <pitch>
          <step>E</step>
          <octave>3</octave>
        </pitch>
        <duration>512</duration>
        <type>half</type>
        <staff>2</staff>
        <voice>5</voice>
      </note>
      <note>
        <chord/>
        <pitch>
          <step>A</step>
          <octave>3</octave>
        </pitch>
        <duration>512</duration>
        <type>half</type>
        <staff>2</staff>
        <voice>5</voice>
      </note>
    </measure>
    <measure number="15">
      <harmony default-y="55">
        <root><root-step>C</root-step></root>
        <kind text="A7alt">none</kind>
        <staff>1</staff>
      </harmony>
      <note>
        <pitch>
          <step>B</step>
          <alter>-1</alter>
          <octave>5</octave>
        </pitch>
        <duration>1024</duration>
        <type>whole</type>
        <staff>1</staff>
        <voice>1</voice>
        <notations>
          <articulations><tenuto/></articulations>
        </notations>
      </note>
      <backup>
        <duration>1024</duration>
      </backup>
      <note>
        <pitch>
          <step>A</step>
          <octave>2</octave>
        </pitch>
        <duration>512</duration>
        <type>half</type>
        <staff>2</staff>
        <voice>5</voice>
      </note>
      <note>
        <pitch>
          <step>C</step>
          <alter>1</alter>
          <octave>3</octave>
        </pitch>
        <duration>512</duration>
        <type>half</type>
        <staff>2</staff>
        <voice>5</voice>
      </note>
      <note>
        <chord/>
        <pitch>
          <step>G</step>
          <octave>3</octave>
        </pitch>
        <duration>512</duration>
        <type>half</type>
        <staff>2</staff>
        <voice>5</voice>
      </note>
      <note>
        <chord/>
        <pitch>
          <step>B</step>
          <alter>-1</alter>
          <octave>3</octave>
        </pitch>
        <duration>512</duration>
        <type>half</type>
        <staff>2</staff>
        <voice>5</voice>
      </note>
      <note>
        <pitch>
          <step>E</step>
          <alter>-1</alter>
          <octave>2</octave>
        </pitch>
        <duration>512</duration>
        <type>half</type>
        <staff>2</staff>
        <voice>5</voice>
      </note>
      <note>
        <pitch>
          <step>C</step>
          <alter>1</alter>
          <octave>3</octave>
        </pitch>
        <duration>512</duration>
        <type>half</type>
        <staff>2</staff>
        <voice>5</voice>
      </note>
      <note>
        <chord/>
        <pitch>
          <step>E</step>
          <alter>1</alter>
          <octave>3</octave>
        </pitch>
        <duration>512</duration>
        <type>half</type>
        <staff>2</staff>
        <voice>5</voice>
      </note>
    </measure>
    <measure number="16">
      <harmony default-y="55">
        <root><root-step>C</root-step></root>
        <kind text="G13(b9)">none</kind>
        <staff>1</staff>
      </harmony>
      <note>
        <pitch>
          <step>G</step>
          <octave>5</octave>
        </pitch>
        <duration>512</duration>
        <type>half</type>
        <staff>1</staff>
        <voice>1</voice>
      </note>
      <harmony default-y="55">
        <root><root-step>C</root-step></root>
        <kind text="C7sus">none</kind>
        <staff>1</staff>
      </harmony>
      <note>
        <pitch>
          <step>F</step>
          <octave>5</octave>
        </pitch>
        <duration>512</duration>
        <type>half</type>
        <staff>1</staff>
        <voice>1</voice>
      </note>
      <backup>
        <duration>1024</duration>
      </backup>
      <note>
        <pitch>
          <step>G</step>
          <octave>2</octave>
        </pitch>
        <duration>256</duration>
        <type>quarter</type>
        <staff>2</staff>
        <voice>5</voice>
      </note>
      <note>
        <pitch>
          <step>B</step>
          <octave>3</octave>
        </pitch>
        <duration>256</duration>
        <type>quarter</type>
        <staff>2</staff>
        <voice>5</voice>
      </note>
      <note>
        <chord/>
        <pitch>
          <step>F</step>
          <octave>3</octave>
        </pitch>
        <duration>256</duration>
        <type>quarter</type>
        <staff>2</staff>
        <voice>5</voice>
      </note>
      <note>
        <chord/>
        <pitch>
          <step>A</step>
          <alter>-1</alter>
          <octave>4</octave>
        </pitch>
        <duration>256</duration>
        <type>quarter</type>
        <staff>2</staff>
        <voice>5</voice>
      </note>
      <note>
        <pitch>
          <step>C</step>
          <octave>2</octave>
        </pitch>
        <duration>256</duration>
        <type>quarter</type>
        <staff>2</staff>
        <voice>5</voice>
      </note>
      <note>
        <pitch>
          <step>F</step>
          <octave>3</octave>
        </pitch>
        <duration>256</duration>
        <type>quarter</type>
        <staff>2</staff>
        <voice>5</voice>
      </note>
      <note>
        <chord/>
        <pitch>
          <step>B</step>
          <alter>-1</alter>
          <octave>3</octave>
        </pitch>
        <duration>256</duration>
        <type>quarter</type>
        <staff>2</staff>
        <voice>5</voice>
      </note>
      <note>
        <pitch>
          <step>G</step>
          <octave>3</octave>
        </pitch>
        <duration>256</duration>
        <type>quarter</type>
        <staff>2</staff>
        <voice>5</voice>
      </note>
    </measure>
    <measure number="17">
      <print new-system="yes"/>
      <harmony default-y="55">
        <root><root-step>C</root-step></root>
        <kind text="Aø7">none</kind>
        <staff>1</staff>
      </harmony>
      <note>
        <pitch>
          <step>A</step>
          <octave>5</octave>
        </pitch>
        <duration>256</duration>
        <type>quarter</type>
        <staff>1</staff>
        <voice>1</voice>
        <notations>
          <slur type="start" number="1"/>
        </notations>
      </note>
      <note>
        <pitch>
          <step>C</step>
          <octave>6</octave>
        </pitch>
        <duration>256</duration>
        <type>quarter</type>
        <staff>1</staff>
        <voice>1</voice>
      </note>
      <harmony default-y="55">
        <root><root-step>C</root-step></root>
        <kind text="D7alt">none</kind>
        <staff>1</staff>
      </harmony>
      <note>
        <pitch>
          <step>B</step>
          <alter>-1</alter>
          <octave>5</octave>
        </pitch>
        <duration>512</duration>
        <type>half</type>
        <staff>1</staff>
        <voice>1</voice>
        <notations>
          <slur type="stop" number="1"/>
        </notations>
      </note>
      <backup>
        <duration>1024</duration>
      </backup>
      <note>
        <pitch>
          <step>A</step>
          <octave>2</octave>
        </pitch>
        <duration>256</duration>
        <type>quarter</type>
        <staff>2</staff>
        <voice>5</voice>
      </note>
      <note>
        <pitch>
          <step>C</step>
          <octave>3</octave>
        </pitch>
        <duration>256</duration>
        <type>quarter</type>
        <staff>2</staff>
        <voice>5</voice>
      </note>
      <note>
        <chord/>
        <pitch>
          <step>E</step>
          <alter>-1</alter>
          <octave>3</octave>
        </pitch>
        <duration>256</duration>
        <type>quarter</type>
        <staff>2</staff>
        <voice>5</voice>
      </note>
      <note>
        <chord/>
        <pitch>
          <step>G</step>
          <octave>3</octave>
        </pitch>
        <duration>256</duration>
        <type>quarter</type>
        <staff>2</staff>
        <voice>5</voice>
      </note>
      <note>
        <pitch>
          <step>D</step>
          <octave>2</octave>
        </pitch>
        <duration>256</duration>
        <type>quarter</type>
        <staff>2</staff>
        <voice>5</voice>
      </note>
      <note>
        <pitch>
          <step>F</step>
          <alter>1</alter>
          <octave>3</octave>
        </pitch>
        <duration>256</duration>
        <type>quarter</type>
        <staff>2</staff>
        <voice>5</voice>
      </note>
      <note>
        <chord/>
        <pitch>
          <step>C</step>
          <octave>4</octave>
        </pitch>
        <duration>256</duration>
        <type>quarter</type>
        <staff>2</staff>
        <voice>5</voice>
      </note>
      <note>
        <chord/>
        <pitch>
          <step>E</step>
          <alter>-1</alter>
          <octave>4</octave>
        </pitch>
        <duration>256</duration>
        <type>quarter</type>
        <staff>2</staff>
        <voice>5</voice>
      </note>
    </measure>
    <measure number="18">
      <harmony default-y="55">
        <root><root-step>C</root-step></root>
        <kind text="Gm9">none</kind>
        <staff>1</staff>
      </harmony>
      <note>
        <pitch>
          <step>G</step>
          <octave>5</octave>
        </pitch>
        <duration>1024</duration>
        <type>whole</type>
        <staff>1</staff>
        <voice>1</voice>
        <notations>
          <articulations><tenuto/></articulations>
        </notations>
      </note>
      <backup>
        <duration>1024</duration>
      </backup>
      <note>
        <pitch>
          <step>G</step>
          <octave>2</octave>
        </pitch>
        <duration>512</duration>
        <type>half</type>
        <staff>2</staff>
        <voice>5</voice>
      </note>
      <note>
        <pitch>
          <step>B</step>
          <alter>-1</alter>
          <octave>3</octave>
        </pitch>
        <duration>512</duration>
        <type>half</type>
        <staff>2</staff>
        <voice>5</voice>
      </note>
      <note>
        <chord/>
        <pitch>
          <step>D</step>
          <octave>3</octave>
        </pitch>
        <duration>512</duration>
        <type>half</type>
        <staff>2</staff>
        <voice>5</voice>
      </note>
      <note>
        <chord/>
        <pitch>
          <step>F</step>
          <octave>3</octave>
        </pitch>
        <duration>512</duration>
        <type>half</type>
        <staff>2</staff>
        <voice>5</voice>
      </note>
      <note>
        <chord/>
        <pitch>
          <step>A</step>
          <octave>3</octave>
        </pitch>
        <duration>512</duration>
        <type>half</type>
        <staff>2</staff>
        <voice>5</voice>
      </note>
      <note>
        <pitch>
          <step>D</step>
          <octave>3</octave>
        </pitch>
        <duration>512</duration>
        <type>half</type>
        <staff>2</staff>
        <voice>5</voice>
      </note>
      <note>
        <chord/>
        <pitch>
          <step>G</step>
          <octave>3</octave>
        </pitch>
        <duration>512</duration>
        <type>half</type>
        <staff>2</staff>
        <voice>5</voice>
      </note>
    </measure>
    <measure number="19">
      <direction placement="above">
        <direction-type>
          <words default-y="70" font-size="9" font-style="italic">Triad Pair: C + D major</words>
        </direction-type>
        <staff>1</staff>
      </direction>
      <harmony default-y="55">
        <root><root-step>C</root-step></root>
        <kind text="C13sus(#11)">none</kind>
        <staff>1</staff>
      </harmony>
      <note>
        <pitch>
          <step>F</step>
          <octave>5</octave>
        </pitch>
        <duration>256</duration>
        <type>quarter</type>
        <staff>1</staff>
        <voice>1</voice>
      </note>
      <note>
        <pitch>
          <step>E</step>
          <alter>-1</alter>
          <octave>5</octave>
        </pitch>
        <duration>256</duration>
        <type>quarter</type>
        <staff>1</staff>
        <voice>1</voice>
      </note>
      <note>
        <pitch>
          <step>G</step>
          <octave>5</octave>
        </pitch>
        <duration>512</duration>
        <type>half</type>
        <staff>1</staff>
        <voice>1</voice>
      </note>
      <backup>
        <duration>1024</duration>
      </backup>
      <note>
        <pitch>
          <step>C</step>
          <octave>2</octave>
        </pitch>
        <duration>256</duration>
        <type>quarter</type>
        <staff>2</staff>
        <voice>5</voice>
      </note>
      <note>
        <pitch>
          <step>C</step>
          <octave>3</octave>
        </pitch>
        <duration>256</duration>
        <type>quarter</type>
        <staff>2</staff>
        <voice>5</voice>
      </note>
      <note>
        <chord/>
        <pitch>
          <step>E</step>
          <octave>3</octave>
        </pitch>
        <duration>256</duration>
        <type>quarter</type>
        <staff>2</staff>
        <voice>5</voice>
      </note>
      <note>
        <chord/>
        <pitch>
          <step>G</step>
          <octave>3</octave>
        </pitch>
        <duration>256</duration>
        <type>quarter</type>
        <staff>2</staff>
        <voice>5</voice>
      </note>
      <note>
        <pitch>
          <step>D</step>
          <octave>3</octave>
        </pitch>
        <duration>256</duration>
        <type>quarter</type>
        <staff>2</staff>
        <voice>5</voice>
        <notations>
          <articulations><accent/></articulations>
        </notations>
      </note>
      <note>
        <chord/>
        <pitch>
          <step>F</step>
          <alter>1</alter>
          <octave>3</octave>
        </pitch>
        <duration>256</duration>
        <type>quarter</type>
        <staff>2</staff>
        <voice>5</voice>
      </note>
      <note>
        <chord/>
        <pitch>
          <step>A</step>
          <octave>3</octave>
        </pitch>
        <duration>256</duration>
        <type>quarter</type>
        <staff>2</staff>
        <voice>5</voice>
      </note>
      <note>
        <pitch>
          <step>C</step>
          <octave>3</octave>
        </pitch>
        <duration>256</duration>
        <type>quarter</type>
        <staff>2</staff>
        <voice>5</voice>
      </note>
    </measure>
    <measure number="20">
      <direction placement="above">
        <direction-type>
          <words default-y="70" font-size="9" font-style="italic">Polychord: Fm + G major</words>
        </direction-type>
        <staff>1</staff>
      </direction>
      <harmony default-y="55">
        <root><root-step>C</root-step></root>
        <kind text="Fm9(#11)">none</kind>
        <staff>1</staff>
      </harmony>
      <note>
        <pitch>
          <step>A</step>
          <octave>5</octave>
        </pitch>
        <duration>512</duration>
        <type>half</type>
        <staff>1</staff>
        <voice>1</voice>
      </note>
      <note>
        <pitch>
          <step>F</step>
          <octave>5</octave>
        </pitch>
        <duration>512</duration>
        <type>half</type>
        <staff>1</staff>
        <voice>1</voice>
      </note>
      <backup>
        <duration>1024</duration>
      </backup>
      <note>
        <pitch>
          <step>F</step>
          <octave>2</octave>
        </pitch>
        <duration>256</duration>
        <type>quarter</type>
        <staff>2</staff>
        <voice>5</voice>
      </note>
      <note>
        <pitch>
          <step>F</step>
          <octave>3</octave>
        </pitch>
        <duration>256</duration>
        <type>quarter</type>
        <staff>2</staff>
        <voice>5</voice>
      </note>
      <note>
        <chord/>
        <pitch>
          <step>A</step>
          <alter>-1</alter>
          <octave>3</octave>
        </pitch>
        <duration>256</duration>
        <type>quarter</type>
        <staff>2</staff>
        <voice>5</voice>
      </note>
      <note>
        <chord/>
        <pitch>
          <step>C</step>
          <octave>4</octave>
        </pitch>
        <duration>256</duration>
        <type>quarter</type>
        <staff>2</staff>
        <voice>5</voice>
      </note>
      <note>
        <pitch>
          <step>G</step>
          <octave>3</octave>
        </pitch>
        <duration>256</duration>
        <type>quarter</type>
        <staff>2</staff>
        <voice>5</voice>
        <notations>
          <articulations><accent/></articulations>
        </notations>
      </note>
      <note>
        <chord/>
        <pitch>
          <step>B</step>
          <octave>3</octave>
        </pitch>
        <duration>256</duration>
        <type>quarter</type>
        <staff>2</staff>
        <voice>5</voice>
      </note>
      <note>
        <chord/>
        <pitch>
          <step>D</step>
          <octave>4</octave>
        </pitch>
        <duration>256</duration>
        <type>quarter</type>
        <staff>2</staff>
        <voice>5</voice>
      </note>
      <note>
        <pitch>
          <step>F</step>
          <octave>3</octave>
        </pitch>
        <duration>256</duration>
        <type>quarter</type>
        <staff>2</staff>
        <voice>5</voice>
      </note>
    </measure>
    <measure number="21">
      <print new-system="yes"/>
      <harmony default-y="55">
        <root><root-step>C</root-step></root>
        <kind text="Bb7(13,b9)">none</kind>
        <staff>1</staff>
      </harmony>
      <note>
        <pitch>
          <step>E</step>
          <alter>-1</alter>
          <octave>5</octave>
        </pitch>
        <duration>256</duration>
        <type>quarter</type>
        <staff>1</staff>
        <voice>1</voice>
        <notations>
          <slur type="start" number="1"/>
        </notations>
      </note>
      <note>
        <pitch>
          <step>D</step>
          <octave>5</octave>
        </pitch>
        <duration>256</duration>
        <type>quarter</type>
        <staff>1</staff>
        <voice>1</voice>
      </note>
      <note>
        <pitch>
          <step>C</step>
          <octave>5</octave>
        </pitch>
        <duration>512</duration>
        <type>half</type>
        <staff>1</staff>
        <voice>1</voice>
        <notations>
          <slur type="stop" number="1"/>
        </notations>
      </note>
      <backup>
        <duration>1024</duration>
      </backup>
      <note>
        <pitch>
          <step>B</step>
          <alter>-1</alter>
          <octave>2</octave>
        </pitch>
        <duration>256</duration>
        <type>quarter</type>
        <staff>2</staff>
        <voice>5</voice>
      </note>
      <note>
        <pitch>
          <step>D</step>
          <octave>3</octave>
        </pitch>
        <duration>256</duration>
        <type>quarter</type>
        <staff>2</staff>
        <voice>5</voice>
      </note>
      <note>
        <chord/>
        <pitch>
          <step>A</step>
          <alter>-1</alter>
          <octave>3</octave>
        </pitch>
        <duration>256</duration>
        <type>quarter</type>
        <staff>2</staff>
        <voice>5</voice>
      </note>
      <note>
        <chord/>
        <pitch>
          <step>C</step>
          <alter>-1</alter>
          <octave>4</octave>
        </pitch>
        <duration>256</duration>
        <type>quarter</type>
        <staff>2</staff>
        <voice>5</voice>
      </note>
      <note>
        <pitch>
          <step>G</step>
          <octave>3</octave>
        </pitch>
        <duration>512</duration>
        <type>half</type>
        <staff>2</staff>
        <voice>5</voice>
      </note>
      <note>
        <chord/>
        <pitch>
          <step>B</step>
          <alter>-1</alter>
          <octave>3</octave>
        </pitch>
        <duration>512</duration>
        <type>half</type>
        <staff>2</staff>
        <voice>5</voice>
      </note>
      <note>
        <chord/>
        <pitch>
          <step>D</step>
          <octave>4</octave>
        </pitch>
        <duration>512</duration>
        <type>half</type>
        <staff>2</staff>
        <voice>5</voice>
      </note>
    </measure>
    <measure number="22">
      <harmony default-y="55">
        <root><root-step>C</root-step></root>
        <kind text="Eø7">none</kind>
        <staff>1</staff>
      </harmony>
      <note>
        <pitch>
          <step>B</step>
          <alter>-1</alter>
          <octave>4</octave>
        </pitch>
        <duration>512</duration>
        <type>half</type>
        <staff>1</staff>
        <voice>1</voice>
      </note>
      <harmony default-y="55">
        <root><root-step>C</root-step></root>
        <kind text="A7alt">none</kind>
        <staff>1</staff>
      </harmony>
      <note>
        <pitch>
          <step>C</step>
          <octave>5</octave>
        </pitch>
        <duration>512</duration>
        <type>half</type>
        <staff>1</staff>
        <voice>1</voice>
      </note>
      <backup>
        <duration>1024</duration>
      </backup>
      <note>
        <pitch>
          <step>E</step>
          <octave>2</octave>
        </pitch>
        <duration>256</duration>
        <type>quarter</type>
        <staff>2</staff>
        <voice>5</voice>
      </note>
      <note>
        <pitch>
          <step>G</step>
          <octave>3</octave>
        </pitch>
        <duration>256</duration>
        <type>quarter</type>
        <staff>2</staff>
        <voice>5</voice>
      </note>
      <note>
        <chord/>
        <pitch>
          <step>B</step>
          <alter>-1</alter>
          <octave>3</octave>
        </pitch>
        <duration>256</duration>
        <type>quarter</type>
        <staff>2</staff>
        <voice>5</voice>
      </note>
      <note>
        <chord/>
        <pitch>
          <step>D</step>
          <octave>4</octave>
        </pitch>
        <duration>256</duration>
        <type>quarter</type>
        <staff>2</staff>
        <voice>5</voice>
      </note>
      <note>
        <pitch>
          <step>A</step>
          <octave>2</octave>
        </pitch>
        <duration>256</duration>
        <type>quarter</type>
        <staff>2</staff>
        <voice>5</voice>
      </note>
      <note>
        <pitch>
          <step>C</step>
          <alter>1</alter>
          <octave>3</octave>
        </pitch>
        <duration>256</duration>
        <type>quarter</type>
        <staff>2</staff>
        <voice>5</voice>
      </note>
      <note>
        <chord/>
        <pitch>
          <step>G</step>
          <octave>3</octave>
        </pitch>
        <duration>256</duration>
        <type>quarter</type>
        <staff>2</staff>
        <voice>5</voice>
      </note>
      <note>
        <chord/>
        <pitch>
          <step>B</step>
          <alter>-1</alter>
          <octave>3</octave>
        </pitch>
        <duration>256</duration>
        <type>quarter</type>
        <staff>2</staff>
        <voice>5</voice>
      </note>
    </measure>
    <measure number="23">
      <harmony default-y="55">
        <root><root-step>C</root-step></root>
        <kind text="Dm11">none</kind>
        <staff>1</staff>
      </harmony>
      <note>
        <pitch>
          <step>D</step>
          <octave>5</octave>
        </pitch>
        <duration>256</duration>
        <type>quarter</type>
        <staff>1</staff>
        <voice>1</voice>
        <notations>
          <slur type="start" number="1"/>
        </notations>
      </note>
      <note>
        <pitch>
          <step>F</step>
          <octave>5</octave>
        </pitch>
        <duration>256</duration>
        <type>quarter</type>
        <staff>1</staff>
        <voice>1</voice>
      </note>
      <note>
        <pitch>
          <step>A</step>
          <octave>5</octave>
        </pitch>
        <duration>512</duration>
        <type>half</type>
        <staff>1</staff>
        <voice>1</voice>
        <notations>
          <slur type="stop" number="1"/>
        </notations>
      </note>
      <backup>
        <duration>1024</duration>
      </backup>
      <note>
        <pitch>
          <step>D</step>
          <octave>2</octave>
        </pitch>
        <duration>256</duration>
        <type>quarter</type>
        <staff>2</staff>
        <voice>5</voice>
      </note>
      <note>
        <pitch>
          <step>F</step>
          <octave>3</octave>
        </pitch>
        <duration>256</duration>
        <type>quarter</type>
        <staff>2</staff>
        <voice>5</voice>
      </note>
      <note>
        <chord/>
        <pitch>
          <step>A</step>
          <octave>3</octave>
        </pitch>
        <duration>256</duration>
        <type>quarter</type>
        <staff>2</staff>
        <voice>5</voice>
      </note>
      <note>
        <chord/>
        <pitch>
          <step>C</step>
          <octave>4</octave>
        </pitch>
        <duration>256</duration>
        <type>quarter</type>
        <staff>2</staff>
        <voice>5</voice>
      </note>
      <note>
        <pitch>
          <step>E</step>
          <octave>3</octave>
        </pitch>
        <duration>256</duration>
        <type>quarter</type>
        <staff>2</staff>
        <voice>5</voice>
      </note>
      <note>
        <chord/>
        <pitch>
          <step>G</step>
          <octave>3</octave>
        </pitch>
        <duration>256</duration>
        <type>quarter</type>
        <staff>2</staff>
        <voice>5</voice>
      </note>
      <note>
        <pitch>
          <step>A</step>
          <octave>3</octave>
        </pitch>
        <duration>512</duration>
        <type>half</type>
        <staff>2</staff>
        <voice>5</voice>
      </note>
    </measure>
    <measure number="24">
      <harmony default-y="55">
        <root><root-step>C</root-step></root>
        <kind text="G13sus">none</kind>
        <staff>1</staff>
      </harmony>
      <note>
        <pitch>
          <step>G</step>
          <octave>5</octave>
        </pitch>
        <duration>512</duration>
        <type>half</type>
        <staff>1</staff>
        <voice>1</voice>
      </note>
      <harmony default-y="55">
        <root><root-step>C</root-step></root>
        <kind text="C7(#11)">none</kind>
        <staff>1</staff>
      </harmony>
      <note>
        <pitch>
          <step>E</step>
          <octave>5</octave>
        </pitch>
        <duration>512</duration>
        <type>half</type>
        <staff>1</staff>
        <voice>1</voice>
      </note>
      <backup>
        <duration>1024</duration>
      </backup>
      <note>
        <pitch>
          <step>G</step>
          <octave>2</octave>
        </pitch>
        <duration>256</duration>
        <type>quarter</type>
        <staff>2</staff>
        <voice>5</voice>
      </note>
      <note>
        <pitch>
          <step>F</step>
          <octave>3</octave>
        </pitch>
        <duration>256</duration>
        <type>quarter</type>
        <staff>2</staff>
        <voice>5</voice>
      </note>
      <note>
        <chord/>
        <pitch>
          <step>A</step>
          <octave>3</octave>
        </pitch>
        <duration>256</duration>
        <type>quarter</type>
        <staff>2</staff>
        <voice>5</voice>
      </note>
      <note>
        <chord/>
        <pitch>
          <step>D</step>
          <octave>4</octave>
        </pitch>
        <duration>256</duration>
        <type>quarter</type>
        <staff>2</staff>
        <voice>5</voice>
      </note>
      <note>
        <pitch>
          <step>C</step>
          <octave>2</octave>
        </pitch>
        <duration>256</duration>
        <type>quarter</type>
        <staff>2</staff>
        <voice>5</voice>
      </note>
      <note>
        <pitch>
          <step>E</step>
          <octave>3</octave>
        </pitch>
        <duration>256</duration>
        <type>quarter</type>
        <staff>2</staff>
        <voice>5</voice>
      </note>
      <note>
        <chord/>
        <pitch>
          <step>B</step>
          <alter>-1</alter>
          <octave>3</octave>
        </pitch>
        <duration>256</duration>
        <type>quarter</type>
        <staff>2</staff>
        <voice>5</voice>
      </note>
      <note>
        <chord/>
        <pitch>
          <step>F</step>
          <alter>1</alter>
          <octave>3</octave>
        </pitch>
        <duration>256</duration>
        <type>quarter</type>
        <staff>2</staff>
        <voice>5</voice>
      </note>
    </measure>
    <measure number="25">
      <print new-system="yes"/>
      <direction placement="above">
        <direction-type>
          <words default-y="75" font-size="10">Tag — Cathedral Cadence</words>
        </direction-type>
        <staff>1</staff>
      </direction>
      <harmony default-y="55">
        <root><root-step>C</root-step></root>
        <kind text="C7(9,13)">none</kind>
        <staff>1</staff>
      </harmony>
      <note>
        <pitch>
          <step>C</step>
          <octave>5</octave>
        </pitch>
        <duration>256</duration>
        <type>quarter</type>
        <staff>1</staff>
        <voice>1</voice>
        <notations>
          <slur type="start" number="1"/>
        </notations>
      </note>
      <note>
        <pitch>
          <step>E</step>
          <alter>-1</alter>
          <octave>5</octave>
        </pitch>
        <duration>256</duration>
        <type>quarter</type>
        <staff>1</staff>
        <voice>1</voice>
      </note>
      <note>
        <pitch>
          <step>F</step>
          <octave>5</octave>
        </pitch>
        <duration>512</duration>
        <type>half</type>
        <staff>1</staff>
        <voice>1</voice>
        <notations>
          <slur type="stop" number="1"/>
        </notations>
      </note>
      <backup>
        <duration>1024</duration>
      </backup>
      <note>
        <pitch>
          <step>C</step>
          <octave>2</octave>
        </pitch>
        <duration>256</duration>
        <type>quarter</type>
        <staff>2</staff>
        <voice>5</voice>
      </note>
      <note>
        <pitch>
          <step>E</step>
          <octave>3</octave>
        </pitch>
        <duration>256</duration>
        <type>quarter</type>
        <staff>2</staff>
        <voice>5</voice>
        <notations>
          <articulations><accent/></articulations>
        </notations>
      </note>
      <note>
        <chord/>
        <pitch>
          <step>B</step>
          <alter>-1</alter>
          <octave>3</octave>
        </pitch>
        <duration>256</duration>
        <type>quarter</type>
        <staff>2</staff>
        <voice>5</voice>
      </note>
      <note>
        <chord/>
        <pitch>
          <step>D</step>
          <octave>4</octave>
        </pitch>
        <duration>256</duration>
        <type>quarter</type>
        <staff>2</staff>
        <voice>5</voice>
      </note>
      <note>
        <chord/>
        <pitch>
          <step>A</step>
          <octave>3</octave>
        </pitch>
        <duration>256</duration>
        <type>quarter</type>
        <staff>2</staff>
        <voice>5</voice>
      </note>
      <note>
        <pitch>
          <step>C</step>
          <octave>3</octave>
        </pitch>
        <duration>512</duration>
        <type>half</type>
        <staff>2</staff>
        <voice>5</voice>
      </note>
      <note>
        <chord/>
        <pitch>
          <step>G</step>
          <octave>3</octave>
        </pitch>
        <duration>512</duration>
        <type>half</type>
        <staff>2</staff>
        <voice>5</voice>
      </note>
    </measure>
    <measure number="26">
      <harmony default-y="55">
        <root><root-step>C</root-step></root>
        <kind text="Bbmaj7(#11)/C">none</kind>
        <staff>1</staff>
      </harmony>
      <note>
        <pitch>
          <step>G</step>
          <octave>5</octave>
        </pitch>
        <duration>1024</duration>
        <type>whole</type>
        <staff>1</staff>
        <voice>1</voice>
        <notations>
          <fermata type="upright"/>
        </notations>
      </note>
      <backup>
        <duration>1024</duration>
      </backup>
      <note>
        <pitch>
          <step>C</step>
          <octave>2</octave>
        </pitch>
        <duration>1024</duration>
        <type>whole</type>
        <staff>2</staff>
        <voice>5</voice>
      </note>
      <note>
        <chord/>
        <pitch>
          <step>F</step>
          <octave>3</octave>
        </pitch>
        <duration>1024</duration>
        <type>whole</type>
        <staff>2</staff>
        <voice>5</voice>
      </note>
      <note>
        <chord/>
        <pitch>
          <step>A</step>
          <octave>3</octave>
        </pitch>
        <duration>1024</duration>
        <type>whole</type>
        <staff>2</staff>
        <voice>5</voice>
      </note>
      <note>
        <chord/>
        <pitch>
          <step>D</step>
          <octave>4</octave>
        </pitch>
        <duration>1024</duration>
        <type>whole</type>
        <staff>2</staff>
        <voice>5</voice>
      </note>
      <note>
        <chord/>
        <pitch>
          <step>E</step>
          <octave>4</octave>
        </pitch>
        <duration>1024</duration>
        <type>whole</type>
        <staff>2</staff>
        <voice>5</voice>
      </note>
    </measure>
    <measure number="27">
      <harmony default-y="55">
        <root><root-step>C</root-step></root>
        <kind text="F13sus">none</kind>
        <staff>1</staff>
      </harmony>
      <note>
        <pitch>
          <step>A</step>
          <octave>5</octave>
        </pitch>
        <duration>256</duration>
        <type>quarter</type>
        <staff>1</staff>
        <voice>1</voice>
      </note>
      <note>
        <pitch>
          <step>G</step>
          <octave>5</octave>
        </pitch>
        <duration>256</duration>
        <type>quarter</type>
        <staff>1</staff>
        <voice>1</voice>
      </note>
      <harmony default-y="55">
        <root><root-step>C</root-step></root>
        <kind text="G7alt">none</kind>
        <staff>1</staff>
      </harmony>
      <note>
        <pitch>
          <step>E</step>
          <octave>5</octave>
        </pitch>
        <duration>512</duration>
        <type>half</type>
        <staff>1</staff>
        <voice>1</voice>
      </note>
      <backup>
        <duration>1024</duration>
      </backup>
      <note>
        <pitch>
          <step>F</step>
          <octave>2</octave>
        </pitch>
        <duration>256</duration>
        <type>quarter</type>
        <staff>2</staff>
        <voice>5</voice>
      </note>
      <note>
        <pitch>
          <step>E</step>
          <alter>-1</alter>
          <octave>3</octave>
        </pitch>
        <duration>256</duration>
        <type>quarter</type>
        <staff>2</staff>
        <voice>5</voice>
      </note>
      <note>
        <chord/>
        <pitch>
          <step>B</step>
          <alter>-1</alter>
          <octave>3</octave>
        </pitch>
        <duration>256</duration>
        <type>quarter</type>
        <staff>2</staff>
        <voice>5</voice>
      </note>
      <note>
        <chord/>
        <pitch>
          <step>D</step>
          <octave>4</octave>
        </pitch>
        <duration>256</duration>
        <type>quarter</type>
        <staff>2</staff>
        <voice>5</voice>
      </note>
      <note>
        <pitch>
          <step>G</step>
          <octave>2</octave>
        </pitch>
        <duration>256</duration>
        <type>quarter</type>
        <staff>2</staff>
        <voice>5</voice>
      </note>
      <note>
        <pitch>
          <step>B</step>
          <octave>3</octave>
        </pitch>
        <duration>256</duration>
        <type>quarter</type>
        <staff>2</staff>
        <voice>5</voice>
      </note>
      <note>
        <chord/>
        <pitch>
          <step>F</step>
          <octave>3</octave>
        </pitch>
        <duration>256</duration>
        <type>quarter</type>
        <staff>2</staff>
        <voice>5</voice>
      </note>
      <note>
        <chord/>
        <pitch>
          <step>A</step>
          <alter>-1</alter>
          <octave>4</octave>
        </pitch>
        <duration>256</duration>
        <type>quarter</type>
        <staff>2</staff>
        <voice>5</voice>
      </note>
    </measure>
    <measure number="28">
      <harmony default-y="55">
        <root><root-step>C</root-step></root>
        <kind text="C6/9">none</kind>
        <staff>1</staff>
      </harmony>
      <note>
        <pitch>
          <step>C</step>
          <octave>5</octave>
        </pitch>
        <duration>1024</duration>
        <type>whole</type>
        <staff>1</staff>
        <voice>1</voice>
        <notations>
          <fermata type="upright"/>
        </notations>
      </note>
      <backup>
        <duration>1024</duration>
      </backup>
      <note>
        <pitch>
          <step>C</step>
          <octave>2</octave>
        </pitch>
        <duration>1024</duration>
        <type>whole</type>
        <staff>2</staff>
        <voice>5</voice>
      </note>
      <note>
        <chord/>
        <pitch>
          <step>E</step>
          <octave>3</octave>
        </pitch>
        <duration>1024</duration>
        <type>whole</type>
        <staff>2</staff>
        <voice>5</voice>
      </note>
      <note>
        <chord/>
        <pitch>
          <step>A</step>
          <octave>3</octave>
        </pitch>
        <duration>1024</duration>
        <type>whole</type>
        <staff>2</staff>
        <voice>5</voice>
      </note>
      <note>
        <chord/>
        <pitch>
          <step>D</step>
          <octave>4</octave>
        </pitch>
        <duration>1024</duration>
        <type>whole</type>
        <staff>2</staff>
        <voice>5</voice>
      </note>
      <note>
        <chord/>
        <pitch>
          <step>G</step>
          <octave>4</octave>
        </pitch>
        <duration>1024</duration>
        <type>whole</type>
        <staff>2</staff>
        <voice>5</voice>
      </note>
      <barline location="right">
        <bar-style>light-heavy</bar-style>
      </barline>
    </measure>
  </part>
</score-partwise>