<?xml version="1.0" encoding="UTF-8"?>
<!DOCTYPE score-partwise PUBLIC "-//Recordare//DTD MusicXML 4.0 Partwise//EN" "http://www.musicxml.org/dtds/partwise.dtd">
<score-partwise version="4.0">
<work><work-title>The Master's Palette - III. Bartók Night Music</work-title></work>
<identification><creator type="composer">Michael Bryant</creator><rights>© 2025 Michael Bryant. All Rights Reserved.</rights></identification>
<part-list><score-part id="P1"><part-name>Piano</part-name></score-part></part-list>
<part id="P1">
<measure number="1">
<attributes><divisions>480</divisions><key><fifths>0</fifths></key>
<time><beats>4</beats><beat-type>4</beat-type></time><staves>2</staves>
<clef number="1"><sign>G</sign><line>2</line></clef><clef number="2"><sign>F</sign><line>4</line></clef></attributes>
<direction placement="above"><direction-type><rehearsal>A</rehearsal><metronome><beat-unit>quarter</beat-unit><per-minute>52</per-minute></metronome></direction-type></direction>
<direction placement="above"><direction-type><words font-style="italic">Nocturnal, pointillistic</words><dynamics><pp/></dynamics></direction-type></direction>
<note><rest/><duration>480</duration><type>quarter</type><staff>1</staff></note>
<note><pitch><step>A</step><octave>4</octave></pitch><duration>120</duration><type>16th</type><staff>1</staff><notations><slur type="start"/></notations></note><note><pitch><step>B</step><alter>-1</alter><octave>4</octave></pitch><duration>120</duration><type>16th</type><staff>1</staff></note><note><rest/><duration>240</duration><type>eighth</type><staff>1</staff></note>
<note><rest/><duration>480</duration><type>quarter</type><staff>1</staff></note><note><pitch><step>E</step><octave>5</octave></pitch><duration>480</duration><type>quarter</type><staff>1</staff><notations><slur type="stop"/></notations></note>
<note><pitch><step>A</step><octave>2</octave></pitch><duration>240</duration><type>eighth</type><staff>2</staff></note><note><rest/><duration>240</duration><type>eighth</type><staff>2</staff></note><note><pitch><step>E</step><octave>3</octave></pitch><duration>120</duration><type>16th</type><staff>2</staff></note><note><pitch><step>A</step><octave>3</octave></pitch><duration>120</duration><type>16th</type><staff>2</staff></note><note><rest/><duration>480</duration><type>quarter</type><staff>2</staff></note>
<note><pitch><step>D</step><octave>3</octave></pitch><duration>120</duration><type>16th</type><staff>2</staff></note><note><pitch><step>G</step><octave>3</octave></pitch><duration>120</duration><type>16th</type><staff>2</staff></note><note><rest/><duration>240</duration><type>eighth</type><staff>2</staff></note><note><pitch><step>A</step><octave>3</octave></pitch><duration>480</duration><type>quarter</type><staff>2</staff></note>
</measure>
<measure number="2">
<note><pitch><step>F</step><alter>1</alter><octave>5</octave></pitch><duration>480</duration><type>quarter</type><staff>1</staff><notations><slur type="start"/></notations></note><note><pitch><step>C</step><octave>5</octave></pitch><duration>240</duration><type>eighth</type><staff>1</staff></note><note><pitch><step>A</step><octave>4</octave></pitch><duration>240</duration><type>eighth</type><staff>1</staff></note>
<note><pitch><step>B</step><alter>-1</alter><octave>4</octave></pitch><duration>960</duration><type>half</type><staff>1</staff><notations><slur type="stop"/></notations></note>
<note><pitch><step>B</step><octave>2</octave></pitch><duration>120</duration><type>16th</type><staff>2</staff></note><note><pitch><step>E</step><octave>3</octave></pitch><duration>120</duration><type>16th</type><staff>2</staff></note><note><rest/><duration>240</duration><type>eighth</type><staff>2</staff></note><note><rest/><duration>480</duration><type>quarter</type><staff>2</staff></note>
<note><pitch><step>F</step><alter>1</alter><octave>3</octave></pitch><duration>120</duration><type>16th</type><staff>2</staff></note><note><pitch><step>C</step><octave>4</octave></pitch><duration>120</duration><type>16th</type><staff>2</staff></note><note><pitch><step>A</step><octave>3</octave></pitch><duration>480</duration><type>quarter</type><staff>2</staff></note><note><rest/><duration>480</duration><type>quarter</type><staff>2</staff></note>
</measure>
<measure number="3">
<note><rest/><duration>240</duration><type>eighth</type><staff>1</staff></note><note><pitch><step>B</step><alter>-1</alter><octave>4</octave></pitch><duration>120</duration><type>16th</type><staff>1</staff><notations><slur type="start"/></notations></note><note><pitch><step>E</step><octave>5</octave></pitch><duration>120</duration><type>16th</type><staff>1</staff></note><note><pitch><step>F</step><alter>1</alter><octave>5</octave></pitch><duration>480</duration><type>quarter</type><staff>1</staff></note>
<note><pitch><step>C</step><octave>5</octave></pitch><duration>480</duration><type>quarter</type><staff>1</staff></note><note><pitch><step>A</step><octave>4</octave></pitch><duration>480</duration><type>quarter</type><staff>1</staff><notations><slur type="stop"/></notations></note>
<note><pitch><step>E</step><octave>2</octave></pitch><duration>480</duration><type>quarter</type><staff>2</staff></note><note><rest/><duration>240</duration><type>eighth</type><staff>2</staff></note><note><pitch><step>B</step><alter>-1</alter><octave>2</octave></pitch><duration>120</duration><type>16th</type><staff>2</staff></note><note><pitch><step>E</step><octave>3</octave></pitch><duration>120</duration><type>16th</type><staff>2</staff></note>
<note><pitch><step>A</step><octave>3</octave></pitch><duration>240</duration><type>eighth</type><staff>2</staff></note><note><rest/><duration>240</duration><type>eighth</type><staff>2</staff></note><note><pitch><step>D</step><octave>4</octave></pitch><duration>480</duration><type>quarter</type><staff>2</staff></note>
</measure>
<measure number="4">
<note><pitch><step>A</step><octave>4</octave></pitch><duration>1440</duration><type>half</type><dot/><staff>1</staff></note><note><rest/><duration>480</duration><type>quarter</type><staff>1</staff></note>
<note><pitch><step>A</step><octave>2</octave></pitch><duration>120</duration><type>16th</type><staff>2</staff></note><note><pitch><step>E</step><octave>3</octave></pitch><duration>120</duration><type>16th</type><staff>2</staff></note><note><pitch><step>B</step><octave>3</octave></pitch><duration>240</duration><type>eighth</type><staff>2</staff></note><note><rest/><duration>480</duration><type>quarter</type><staff>2</staff></note>
<note><rest/><duration>480</duration><type>quarter</type><staff>2</staff></note><note><pitch><step>E</step><octave>3</octave></pitch><duration>120</duration><type>16th</type><staff>2</staff></note><note><pitch><step>A</step><octave>3</octave></pitch><duration>120</duration><type>16th</type><staff>2</staff></note><note><rest/><duration>240</duration><type>eighth</type><staff>2</staff></note>
</measure>
<measure number="5">
<direction placement="above"><direction-type><words font-style="italic">Insect stir</words></direction-type></direction>
<note><pitch><step>E</step><octave>5</octave></pitch><duration>120</duration><type>16th</type><staff>1</staff><notations><slur type="start"/></notations></note><note><pitch><step>F</step><alter>1</alter><octave>5</octave></pitch><duration>120</duration><type>16th</type><staff>1</staff></note><note><rest/><duration>120</duration><type>16th</type><staff>1</staff></note><note><pitch><step>C</step><octave>5</octave></pitch><duration>120</duration><type>16th</type><staff>1</staff></note>
<note><pitch><step>A</step><octave>4</octave></pitch><duration>120</duration><type>16th</type><staff>1</staff></note><note><pitch><step>B</step><alter>-1</alter><octave>4</octave></pitch><duration>120</duration><type>16th</type><staff>1</staff><notations><slur type="stop"/></notations></note><note><rest/><duration>240</duration><type>eighth</type><staff>1</staff></note><note><rest/><duration>480</duration><type>quarter</type><staff>1</staff></note>
<note><pitch><step>C</step><octave>3</octave></pitch><duration>120</duration><type>16th</type><staff>2</staff></note><note><pitch><step>F</step><alter>1</alter><octave>3</octave></pitch><duration>120</duration><type>16th</type><staff>2</staff></note><note><rest/><duration>120</duration><type>16th</type><staff>2</staff></note><note><pitch><step>E</step><octave>3</octave></pitch><duration>120</duration><type>16th</type><staff>2</staff></note>
<note><pitch><step>B</step><alter>-1</alter><octave>3</octave></pitch><duration>120</duration><type>16th</type><staff>2</staff></note><note><pitch><step>A</step><octave>3</octave></pitch><duration>120</duration><type>16th</type><staff>2</staff></note><note><rest/><duration>240</duration><type>eighth</type><staff>2</staff></note><note><pitch><step>D</step><octave>3</octave></pitch><duration>480</duration><type>quarter</type><staff>2</staff></note><note><pitch><step>G</step><octave>3</octave></pitch><duration>480</duration><type>quarter</type><staff>2</staff></note>
</measure>
<measure number="6">
<note><pitch><step>F</step><alter>1</alter><octave>5</octave></pitch><duration>360</duration><type>eighth</type><dot/><staff>1</staff><notations><slur type="start"/></notations></note><note><pitch><step>E</step><octave>5</octave></pitch><duration>120</duration><type>16th</type><staff>1</staff></note><note><pitch><step>C</step><octave>5</octave></pitch><duration>240</duration><type>eighth</type><staff>1</staff></note><note><pitch><step>A</step><octave>4</octave></pitch><duration>240</duration><type>eighth</type><staff>1</staff></note>
<note><pitch><step>B</step><alter>-1</alter><octave>4</octave></pitch><duration>960</duration><type>half</type><staff>1</staff><notations><slur type="stop"/></notations></note>
<note><pitch><step>D</step><octave>3</octave></pitch><duration>480</duration><type>quarter</type><staff>2</staff></note><note><pitch><step>G</step><octave>3</octave></pitch><duration>120</duration><type>16th</type><staff>2</staff></note><note><pitch><step>C</step><octave>4</octave></pitch><duration>120</duration><type>16th</type><staff>2</staff></note><note><rest/><duration>240</duration><type>eighth</type><staff>2</staff></note>
<note><rest/><duration>480</duration><type>quarter</type><staff>2</staff></note><note><pitch><step>E</step><octave>3</octave></pitch><duration>120</duration><type>16th</type><staff>2</staff></note><note><pitch><step>B</step><alter>-1</alter><octave>3</octave></pitch><duration>120</duration><type>16th</type><staff>2</staff></note><note><rest/><duration>240</duration><type>eighth</type><staff>2</staff></note>
</measure>
<measure number="7">
<note><rest/><duration>240</duration><type>eighth</type><staff>1</staff></note><note><pitch><step>A</step><octave>4</octave></pitch><duration>120</duration><type>16th</type><staff>1</staff><notations><slur type="start"/></notations></note><note><pitch><step>B</step><alter>-1</alter><octave>4</octave></pitch><duration>120</duration><type>16th</type><staff>1</staff></note><note><pitch><step>E</step><octave>5</octave></pitch><duration>240</duration><type>eighth</type><staff>1</staff></note>
<note><pitch><step>F</step><alter>1</alter><octave>5</octave></pitch><duration>480</duration><type>quarter</type><staff>1</staff></note><note><pitch><step>C</step><octave>5</octave></pitch><duration>480</duration><type>quarter</type><staff>1</staff><notations><slur type="stop"/></notations></note>
<note><pitch><step>A</step><octave>2</octave></pitch><duration>120</duration><type>16th</type><staff>2</staff></note><note><rest/><duration>120</duration><type>16th</type><staff>2</staff></note><note><rest/><duration>240</duration><type>eighth</type><staff>2</staff></note><note><pitch><step>E</step><octave>3</octave></pitch><duration>120</duration><type>16th</type><staff>2</staff></note><note><pitch><step>A</step><octave>3</octave></pitch><duration>120</duration><type>16th</type><staff>2</staff></note><note><rest/><duration>240</duration><type>eighth</type><staff>2</staff></note>
<note><pitch><step>D</step><octave>4</octave></pitch><duration>480</duration><type>quarter</type><staff>2</staff></note><note><pitch><step>G</step><octave>3</octave></pitch><duration>480</duration><type>quarter</type><staff>2</staff></note>
</measure>
<measure number="8">
<note><pitch><step>A</step><octave>4</octave></pitch><duration>1920</duration><type>whole</type><staff>1</staff></note>
<note><pitch><step>A</step><octave>2</octave></pitch><duration>480</duration><type>quarter</type><staff>2</staff></note><note><pitch><step>E</step><octave>3</octave></pitch><duration>480</duration><type>quarter</type><staff>2</staff></note><note><rest/><duration>480</duration><type>quarter</type><staff>2</staff></note><note><pitch><step>A</step><octave>3</octave></pitch><duration>480</duration><type>quarter</type><staff>2</staff></note>
</measure>
<measure number="9">
<direction placement="above"><direction-type><rehearsal>A2</rehearsal></direction-type></direction>
<direction placement="above"><direction-type><words font-style="italic">Fragmented - scattered</words><dynamics><p/></dynamics></direction-type></direction>
<note><pitch><step>E</step><octave>6</octave></pitch><duration>120</duration><type>16th</type><staff>1</staff><notations><slur type="start"/></notations></note><note><pitch><step>F</step><alter>1</alter><octave>5</octave></pitch><duration>120</duration><type>16th</type><staff>1</staff></note><note><rest/><duration>240</duration><type>eighth</type><staff>1</staff></note><note><rest/><duration>480</duration><type>quarter</type><staff>1</staff></note>
<note><pitch><step>C</step><octave>5</octave></pitch><duration>120</duration><type>16th</type><staff>1</staff></note><note><pitch><step>A</step><octave>5</octave></pitch><duration>120</duration><type>16th</type><staff>1</staff><notations><slur type="stop"/></notations></note><note><rest/><duration>240</duration><type>eighth</type><staff>1</staff></note><note><rest/><duration>480</duration><type>quarter</type><staff>1</staff></note>
<note><pitch><step>B</step><alter>-1</alter><octave>2</octave></pitch><duration>120</duration><type>16th</type><staff>2</staff></note><note><pitch><step>E</step><octave>3</octave></pitch><duration>120</duration><type>16th</type><staff>2</staff></note><note><rest/><duration>120</duration><type>16th</type><staff>2</staff></note><note><pitch><step>A</step><octave>3</octave></pitch><duration>120</duration><type>16th</type><staff>2</staff></note><note><rest/><duration>480</duration><type>quarter</type><staff>2</staff></note>
<note><pitch><step>D</step><octave>4</octave></pitch><duration>120</duration><type>16th</type><staff>2</staff></note><note><rest/><duration>120</duration><type>16th</type><staff>2</staff></note><note><rest/><duration>240</duration><type>eighth</type><staff>2</staff></note><note><pitch><step>G</step><octave>3</octave></pitch><duration>120</duration><type>16th</type><staff>2</staff></note><note><pitch><step>C</step><octave>4</octave></pitch><duration>120</duration><type>16th</type><staff>2</staff></note><note><rest/><duration>240</duration><type>eighth</type><staff>2</staff></note>
</measure>
<measure number="10">
<note><pitch><step>B</step><alter>-1</alter><octave>5</octave></pitch><duration>360</duration><type>eighth</type><dot/><staff>1</staff><notations><slur type="start"/></notations></note><note><pitch><step>A</step><octave>4</octave></pitch><duration>120</duration><type>16th</type><staff>1</staff></note><note><pitch><step>E</step><octave>5</octave></pitch><duration>240</duration><type>eighth</type><staff>1</staff></note><note><pitch><step>F</step><alter>1</alter><octave>5</octave></pitch><duration>240</duration><type>eighth</type><staff>1</staff></note>
<note><pitch><step>C</step><octave>5</octave></pitch><duration>960</duration><type>half</type><staff>1</staff><notations><slur type="stop"/></notations></note>
<note><pitch><step>F</step><alter>1</alter><octave>2</octave></pitch><duration>120</duration><type>16th</type><staff>2</staff></note><note><pitch><step>C</step><octave>3</octave></pitch><duration>120</duration><type>16th</type><staff>2</staff></note><note><pitch><step>E</step><octave>3</octave></pitch><duration>480</duration><type>quarter</type><staff>2</staff></note><note><rest/><duration>120</duration><type>16th</type><staff>2</staff></note><note><pitch><step>B</step><alter>-1</alter><octave>3</octave></pitch><duration>120</duration><type>16th</type><staff>2</staff></note>
<note><pitch><step>A</step><octave>3</octave></pitch><duration>480</duration><type>quarter</type><staff>2</staff></note><note><rest/><duration>480</duration><type>quarter</type><staff>2</staff></note>
</measure>
<measure number="11">
<note><rest/><duration>240</duration><type>eighth</type><staff>1</staff></note><note><pitch><step>C</step><octave>6</octave></pitch><duration>120</duration><type>16th</type><staff>1</staff><notations><slur type="start"/></notations></note><note><pitch><step>A</step><octave>5</octave></pitch><duration>120</duration><type>16th</type><staff>1</staff></note><note><pitch><step>B</step><alter>-1</alter><octave>5</octave></pitch><duration>360</duration><type>eighth</type><dot/><staff>1</staff></note>
<note><pitch><step>E</step><octave>5</octave></pitch><duration>120</duration><type>16th</type><staff>1</staff><notations><slur type="stop"/></notations></note><note><rest/><duration>480</duration><type>quarter</type><staff>1</staff></note><note><rest/><duration>480</duration><type>quarter</type><staff>1</staff></note>
<note><pitch><step>E</step><octave>3</octave></pitch><duration>120</duration><type>16th</type><staff>2</staff></note><note><pitch><step>A</step><octave>3</octave></pitch><duration>120</duration><type>16th</type><staff>2</staff></note><note><rest/><duration>120</duration><type>16th</type><staff>2</staff></note><note><pitch><step>D</step><octave>4</octave></pitch><duration>120</duration><type>16th</type><staff>2</staff></note><note><pitch><step>G</step><octave>3</octave></pitch><duration>480</duration><type>quarter</type><staff>2</staff></note>
<note><pitch><step>C</step><octave>4</octave></pitch><duration>480</duration><type>quarter</type><staff>2</staff></note><note><rest/><duration>480</duration><type>quarter</type><staff>2</staff></note>
</measure>
<measure number="12">
<note><pitch><step>F</step><alter>1</alter><octave>4</octave></pitch><duration>480</duration><type>quarter</type><staff>1</staff><notations><slur type="start"/></notations></note><note><pitch><step>A</step><octave>4</octave></pitch><duration>240</duration><type>eighth</type><staff>1</staff></note><note><pitch><step>B</step><alter>-1</alter><octave>4</octave></pitch><duration>240</duration><type>eighth</type><staff>1</staff></note>
<note><pitch><step>E</step><octave>5</octave></pitch><duration>960</duration><type>half</type><staff>1</staff><notations><slur type="stop"/></notations></note>
<note><pitch><step>A</step><octave>2</octave></pitch><duration>480</duration><type>quarter</type><staff>2</staff></note><note><rest/><duration>120</duration><type>16th</type><staff>2</staff></note><note><pitch><step>E</step><octave>3</octave></pitch><duration>120</duration><type>16th</type><staff>2</staff></note><note><pitch><step>B</step><alter>-1</alter><octave>3</octave></pitch><duration>480</duration><type>quarter</type><staff>2</staff></note>
<note><pitch><step>F</step><alter>1</alter><octave>3</octave></pitch><duration>480</duration><type>quarter</type><staff>2</staff></note><note><rest/><duration>480</duration><type>quarter</type><staff>2</staff></note>
</measure>
<measure number="13">
<direction placement="above"><direction-type><words font-style="italic">Cluster building</words><dynamics><mp/></dynamics></direction-type></direction>
<note><pitch><step>A</step><octave>4</octave></pitch><duration>120</duration><type>16th</type><staff>1</staff><notations><slur type="start"/></notations></note><note><pitch><step>B</step><alter>-1</alter><octave>4</octave></pitch><duration>120</duration><type>16th</type><staff>1</staff></note><note><pitch><step>E</step><octave>5</octave></pitch><duration>120</duration><type>16th</type><staff>1</staff></note><note><pitch><step>F</step><alter>1</alter><octave>5</octave></pitch><duration>120</duration><type>16th</type><staff>1</staff></note>
<note><pitch><step>C</step><octave>5</octave></pitch><duration>480</duration><type>quarter</type><staff>1</staff></note><note><pitch><step>A</step><octave>5</octave></pitch><duration>480</duration><type>quarter</type><staff>1</staff></note><note><pitch><step>E</step><octave>5</octave></pitch><duration>480</duration><type>quarter</type><staff>1</staff><notations><slur type="stop"/></notations></note>
<note><pitch><step>D</step><octave>3</octave></pitch><duration>120</duration><type>16th</type><staff>2</staff></note><note><pitch><step>G</step><octave>3</octave></pitch><duration>120</duration><type>16th</type><staff>2</staff></note><note><pitch><step>C</step><octave>4</octave></pitch><duration>120</duration><type>16th</type><staff>2</staff></note><note><pitch><step>F</step><alter>1</alter><octave>4</octave></pitch><duration>120</duration><type>16th</type><staff>2</staff></note>
<note><pitch><step>E</step><octave>3</octave></pitch><duration>480</duration><type>quarter</type><staff>2</staff></note><note><pitch><step>A</step><octave>3</octave></pitch><duration>480</duration><type>quarter</type><staff>2</staff></note><note><pitch><step>D</step><octave>4</octave></pitch><duration>480</duration><type>quarter</type><staff>2</staff></note>
</measure>
<measure number="14">
<note><pitch><step>B</step><alter>-1</alter><octave>5</octave></pitch><duration>720</duration><type>quarter</type><dot/><staff>1</staff><notations><slur type="start"/></notations></note><note><pitch><step>A</step><octave>5</octave></pitch><duration>240</duration><type>eighth</type><staff>1</staff></note><note><pitch><step>E</step><octave>5</octave></pitch><duration>480</duration><type>quarter</type><staff>1</staff></note>
<note><pitch><step>F</step><alter>1</alter><octave>5</octave></pitch><duration>480</duration><type>quarter</type><staff>1</staff><notations><slur type="stop"/></notations></note>
<note><pitch><step>B</step><alter>-1</alter><octave>2</octave></pitch><duration>480</duration><type>quarter</type><staff>2</staff></note><note><pitch><step>E</step><octave>3</octave></pitch><duration>120</duration><type>16th</type><staff>2</staff></note><note><pitch><step>A</step><octave>3</octave></pitch><duration>120</duration><type>16th</type><staff>2</staff></note><note><rest/><duration>240</duration><type>eighth</type><staff>2</staff></note>
<note><rest/><duration>480</duration><type>quarter</type><staff>2</staff></note><note><pitch><step>D</step><octave>4</octave></pitch><duration>480</duration><type>quarter</type><staff>2</staff></note>
</measure>
<measure number="15">
<note><pitch><step>C</step><octave>5</octave></pitch><duration>480</duration><type>quarter</type><staff>1</staff><notations><slur type="start"/></notations></note><note><pitch><step>A</step><octave>4</octave></pitch><duration>240</duration><type>eighth</type><staff>1</staff></note><note><pitch><step>B</step><alter>-1</alter><octave>4</octave></pitch><duration>240</duration><type>eighth</type><staff>1</staff></note>
<note><pitch><step>E</step><octave>5</octave></pitch><duration>960</duration><type>half</type><staff>1</staff><notations><slur type="stop"/></notations></note>
<note><pitch><step>C</step><octave>3</octave></pitch><duration>120</duration><type>16th</type><staff>2</staff></note><note><pitch><step>F</step><alter>1</alter><octave>3</octave></pitch><duration>120</duration><type>16th</type><staff>2</staff></note><note><pitch><step>E</step><octave>3</octave></pitch><duration>480</duration><type>quarter</type><staff>2</staff></note><note><pitch><step>A</step><octave>3</octave></pitch><duration>120</duration><type>16th</type><staff>2</staff></note><note><pitch><step>D</step><octave>4</octave></pitch><duration>120</duration><type>16th</type><staff>2</staff></note>
<note><pitch><step>G</step><octave>3</octave></pitch><duration>480</duration><type>quarter</type><staff>2</staff></note><note><rest/><duration>480</duration><type>quarter</type><staff>2</staff></note>
</measure>
<measure number="16">
<note><pitch><step>A</step><octave>4</octave></pitch><duration>1440</duration><type>half</type><dot/><staff>1</staff></note><note><rest/><duration>480</duration><type>quarter</type><staff>1</staff></note>
<note><pitch><step>A</step><octave>2</octave></pitch><duration>480</duration><type>quarter</type><staff>2</staff></note><note><pitch><step>E</step><octave>3</octave></pitch><duration>480</duration><type>quarter</type><staff>2</staff></note><note><rest/><duration>480</duration><type>quarter</type><staff>2</staff></note><note><pitch><step>A</step><octave>3</octave></pitch><duration>480</duration><type>quarter</type><staff>2</staff></note>
</measure>
<measure number="17">
<direction placement="above"><direction-type><rehearsal>B</rehearsal></direction-type></direction>
<direction placement="above"><direction-type><words font-style="italic">Octatonic surge</words><dynamics><mf/></dynamics></direction-type></direction>
<note><pitch><step>B</step><alter>-1</alter><octave>4</octave></pitch><duration>120</duration><type>16th</type><staff>1</staff><notations><slur type="start"/></notations></note><note><pitch><step>C</step><octave>5</octave></pitch><duration>120</duration><type>16th</type><staff>1</staff></note><note><pitch><step>E</step><alter>-1</alter><octave>5</octave></pitch><duration>120</duration><type>16th</type><staff>1</staff></note><note><pitch><step>E</step><octave>5</octave></pitch><duration>120</duration><type>16th</type><staff>1</staff></note>
<note><pitch><step>G</step><octave>5</octave></pitch><duration>480</duration><type>quarter</type><staff>1</staff></note><note><pitch><step>A</step><alter>-1</alter><octave>5</octave></pitch><duration>480</duration><type>quarter</type><staff>1</staff></note><note><pitch><step>B</step><octave>5</octave></pitch><duration>480</duration><type>quarter</type><staff>1</staff><notations><slur type="stop"/></notations></note>
<note><pitch><step>C</step><octave>3</octave></pitch><duration>120</duration><type>16th</type><staff>2</staff></note><note><pitch><step>E</step><alter>-1</alter><octave>3</octave></pitch><duration>120</duration><type>16th</type><staff>2</staff></note><note><pitch><step>F</step><alter>1</alter><octave>3</octave></pitch><duration>120</duration><type>16th</type><staff>2</staff></note><note><pitch><step>A</step><octave>3</octave></pitch><duration>120</duration><type>16th</type><staff>2</staff></note>
<note><pitch><step>B</step><alter>-1</alter><octave>3</octave></pitch><duration>480</duration><type>quarter</type><staff>2</staff></note><note><pitch><step>E</step><octave>3</octave></pitch><duration>480</duration><type>quarter</type><staff>2</staff></note><note><pitch><step>G</step><octave>3</octave></pitch><duration>480</duration><type>quarter</type><staff>2</staff></note>
</measure>
<measure number="18">
<note><pitch><step>C</step><octave>6</octave></pitch><duration>480</duration><type>quarter</type><staff>1</staff><notations><slur type="start"/></notations></note><note><pitch><step>A</step><alter>-1</alter><octave>5</octave></pitch><duration>240</duration><type>eighth</type><staff>1</staff></note><note><pitch><step>F</step><alter>1</alter><octave>5</octave></pitch><duration>240</duration><type>eighth</type><staff>1</staff></note>
<note><pitch><step>E</step><octave>5</octave></pitch><duration>480</duration><type>quarter</type><staff>1</staff></note><note><pitch><step>B</step><alter>-1</alter><octave>4</octave></pitch><duration>480</duration><type>quarter</type><staff>1</staff><notations><slur type="stop"/></notations></note>
<note><pitch><step>G</step><octave>2</octave></pitch><duration>480</duration><type>quarter</type><staff>2</staff></note><note><pitch><step>B</step><alter>-1</alter><octave>2</octave></pitch><duration>120</duration><type>16th</type><staff>2</staff></note><note><pitch><step>C</step><alter>1</alter><octave>3</octave></pitch><duration>120</duration><type>16th</type><staff>2</staff></note><note><rest/><duration>240</duration><type>eighth</type><staff>2</staff></note>
<note><pitch><step>E</step><octave>3</octave></pitch><duration>480</duration><type>quarter</type><staff>2</staff></note><note><pitch><step>A</step><octave>3</octave></pitch><duration>480</duration><type>quarter</type><staff>2</staff></note>
</measure>
<measure number="19">
<note><pitch><step>C</step><octave>5</octave></pitch><duration>120</duration><type>16th</type><staff>1</staff><notations><slur type="start"/></notations></note><note><pitch><step>E</step><alter>-1</alter><octave>5</octave></pitch><duration>120</duration><type>16th</type><staff>1</staff></note><note><pitch><step>F</step><alter>1</alter><octave>5</octave></pitch><duration>120</duration><type>16th</type><staff>1</staff></note><note><pitch><step>A</step><octave>5</octave></pitch><duration>120</duration><type>16th</type><staff>1</staff></note>
<note><pitch><step>B</step><alter>-1</alter><octave>5</octave></pitch><duration>480</duration><type>quarter</type><staff>1</staff></note><note><pitch><step>C</step><octave>6</octave></pitch><duration>480</duration><type>quarter</type><staff>1</staff></note><note><pitch><step>E</step><alter>-1</alter><octave>6</octave></pitch><duration>480</duration><type>quarter</type><staff>1</staff><notations><slur type="stop"/></notations></note>
<note><pitch><step>E</step><alter>-1</alter><octave>3</octave></pitch><duration>120</duration><type>16th</type><staff>2</staff></note><note><pitch><step>F</step><alter>1</alter><octave>3</octave></pitch><duration>120</duration><type>16th</type><staff>2</staff></note><note><pitch><step>A</step><octave>3</octave></pitch><duration>120</duration><type>16th</type><staff>2</staff></note><note><pitch><step>C</step><octave>4</octave></pitch><duration>120</duration><type>16th</type><staff>2</staff></note>
<note><pitch><step>B</step><alter>-1</alter><octave>3</octave></pitch><duration>480</duration><type>quarter</type><staff>2</staff></note><note><pitch><step>E</step><octave>3</octave></pitch><duration>480</duration><type>quarter</type><staff>2</staff></note><note><pitch><step>G</step><octave>3</octave></pitch><duration>480</duration><type>quarter</type><staff>2</staff></note>
</measure>
<measure number="20">
<direction placement="above"><direction-type><dynamics><f/></dynamics></direction-type></direction>
<note><pitch><step>E</step><alter>-1</alter><octave>6</octave></pitch><duration>720</duration><type>quarter</type><dot/><staff>1</staff><notations><slur type="start"/></notations></note><note><pitch><step>C</step><octave>6</octave></pitch><duration>240</duration><type>eighth</type><staff>1</staff></note><note><pitch><step>B</step><octave>5</octave></pitch><duration>480</duration><type>quarter</type><staff>1</staff></note>
<note><pitch><step>A</step><alter>-1</alter><octave>5</octave></pitch><duration>480</duration><type>quarter</type><staff>1</staff><notations><slur type="stop"/></notations></note>
<note><pitch><step>A</step><octave>2</octave></pitch><duration>480</duration><type>quarter</type><staff>2</staff></note><note><pitch><step>E</step><alter>-1</alter><octave>3</octave></pitch><duration>120</duration><type>16th</type><staff>2</staff></note><note><pitch><step>G</step><octave>3</octave></pitch><duration>120</duration><type>16th</type><staff>2</staff></note><note><pitch><step>B</step><alter>-1</alter><octave>3</octave></pitch><duration>480</duration><type>quarter</type><staff>2</staff></note>
<note><pitch><step>C</step><alter>1</alter><octave>4</octave></pitch><duration>480</duration><type>quarter</type><staff>2</staff></note><note><pitch><step>E</step><octave>4</octave></pitch><duration>480</duration><type>quarter</type><staff>2</staff></note>
</measure>
<measure number="21">
<note><pitch><step>F</step><alter>1</alter><octave>5</octave></pitch><duration>360</duration><type>eighth</type><dot/><staff>1</staff><notations><slur type="start"/></notations></note><note><pitch><step>E</step><octave>5</octave></pitch><duration>120</duration><type>16th</type><staff>1</staff></note><note><pitch><step>C</step><octave>5</octave></pitch><duration>240</duration><type>eighth</type><staff>1</staff></note><note><pitch><step>A</step><octave>4</octave></pitch><duration>240</duration><type>eighth</type><staff>1</staff></note>
<note><pitch><step>B</step><alter>-1</alter><octave>4</octave></pitch><duration>480</duration><type>quarter</type><staff>1</staff></note><note><pitch><step>E</step><octave>5</octave></pitch><duration>480</duration><type>quarter</type><staff>1</staff><notations><slur type="stop"/></notations></note>
<note><pitch><step>F</step><alter>1</alter><octave>2</octave></pitch><duration>120</duration><type>16th</type><staff>2</staff></note><note><pitch><step>C</step><octave>3</octave></pitch><duration>120</duration><type>16th</type><staff>2</staff></note><note><pitch><step>E</step><octave>3</octave></pitch><duration>480</duration><type>quarter</type><staff>2</staff></note><note><pitch><step>A</step><octave>3</octave></pitch><duration>120</duration><type>16th</type><staff>2</staff></note><note><pitch><step>D</step><octave>4</octave></pitch><duration>120</duration><type>16th</type><staff>2</staff></note>
<note><pitch><step>G</step><octave>3</octave></pitch><duration>480</duration><type>quarter</type><staff>2</staff></note><note><pitch><step>B</step><alter>-1</alter><octave>3</octave></pitch><duration>480</duration><type>quarter</type><staff>2</staff></note>
</measure>
<measure number="22">
<direction placement="above"><direction-type><dynamics><mp/></dynamics></direction-type></direction>
<note><pitch><step>E</step><octave>5</octave></pitch><duration>480</duration><type>quarter</type><staff>1</staff><notations><slur type="start"/></notations></note><note><pitch><step>F</step><alter>1</alter><octave>5</octave></pitch><duration>240</duration><type>eighth</type><staff>1</staff></note><note><pitch><step>C</step><octave>5</octave></pitch><duration>240</duration><type>eighth</type><staff>1</staff></note>
<note><pitch><step>A</step><octave>4</octave></pitch><duration>960</duration><type>half</type><staff>1</staff><notations><slur type="stop"/></notations></note>
<note><pitch><step>E</step><octave>3</octave></pitch><duration>480</duration><type>quarter</type><staff>2</staff></note><note><pitch><step>B</step><alter>-1</alter><octave>3</octave></pitch><duration>120</duration><type>16th</type><staff>2</staff></note><note><pitch><step>A</step><octave>3</octave></pitch><duration>120</duration><type>16th</type><staff>2</staff></note><note><rest/><duration>240</duration><type>eighth</type><staff>2</staff></note>
<note><rest/><duration>480</duration><type>quarter</type><staff>2</staff></note><note><pitch><step>D</step><octave>4</octave></pitch><duration>480</duration><type>quarter</type><staff>2</staff></note>
</measure>
<measure number="23">
<note><rest/><duration>240</duration><type>eighth</type><staff>1</staff></note><note><pitch><step>A</step><octave>4</octave></pitch><duration>120</duration><type>16th</type><staff>1</staff><notations><slur type="start"/></notations></note><note><pitch><step>B</step><alter>-1</alter><octave>4</octave></pitch><duration>120</duration><type>16th</type><staff>1</staff></note><note><pitch><step>E</step><octave>5</octave></pitch><duration>240</duration><type>eighth</type><staff>1</staff></note>
<note><pitch><step>F</step><alter>1</alter><octave>5</octave></pitch><duration>480</duration><type>quarter</type><staff>1</staff></note><note><pitch><step>C</step><octave>5</octave></pitch><duration>480</duration><type>quarter</type><staff>1</staff><notations><slur type="stop"/></notations></note>
<note><pitch><step>A</step><octave>2</octave></pitch><duration>120</duration><type>16th</type><staff>2</staff></note><note><rest/><duration>120</duration><type>16th</type><staff>2</staff></note><note><rest/><duration>240</duration><type>eighth</type><staff>2</staff></note><note><pitch><step>E</step><octave>3</octave></pitch><duration>120</duration><type>16th</type><staff>2</staff></note><note><pitch><step>A</step><octave>3</octave></pitch><duration>120</duration><type>16th</type><staff>2</staff></note><note><rest/><duration>240</duration><type>eighth</type><staff>2</staff></note>
<note><pitch><step>D</step><octave>4</octave></pitch><duration>480</duration><type>quarter</type><staff>2</staff></note><note><pitch><step>G</step><octave>3</octave></pitch><duration>480</duration><type>quarter</type><staff>2</staff></note>
</measure>
<measure number="24">
<direction placement="above"><direction-type><dynamics><pp/></dynamics></direction-type></direction>
<note><pitch><step>A</step><octave>4</octave></pitch><duration>1440</duration><type>half</type><dot/><staff>1</staff></note><note><rest/><duration>480</duration><type>quarter</type><staff>1</staff></note>
<note><pitch><step>A</step><octave>2</octave></pitch><duration>480</duration><type>quarter</type><staff>2</staff></note><note><pitch><step>E</step><octave>3</octave></pitch><duration>480</duration><type>quarter</type><staff>2</staff></note><note><rest/><duration>480</duration><type>quarter</type><staff>2</staff></note><note><pitch><step>A</step><octave>3</octave></pitch><duration>480</duration><type>quarter</type><staff>2</staff></note>
</measure>
<measure number="25">
<direction placement="above"><direction-type><rehearsal>Coda</rehearsal></direction-type></direction>
<direction placement="above"><direction-type><words font-style="italic">Stillness returns</words></direction-type></direction>
<note><rest/><duration>480</duration><type>quarter</type><staff>1</staff></note><note><pitch><step>A</step><octave>4</octave></pitch><duration>120</duration><type>16th</type><staff>1</staff><notations><slur type="start"/></notations></note><note><pitch><step>B</step><alter>-1</alter><octave>4</octave></pitch><duration>120</duration><type>16th</type><staff>1</staff></note><note><rest/><duration>240</duration><type>eighth</type><staff>1</staff></note>
<note><rest/><duration>480</duration><type>quarter</type><staff>1</staff></note><note><pitch><step>E</step><octave>5</octave></pitch><duration>480</duration><type>quarter</type><staff>1</staff><notations><slur type="stop"/></notations></note>
<note><pitch><step>A</step><octave>2</octave></pitch><duration>120</duration><type>16th</type><staff>2</staff></note><note><rest/><duration>120</duration><type>16th</type><staff>2</staff></note><note><rest/><duration>240</duration><type>eighth</type><staff>2</staff></note><note><pitch><step>E</step><octave>3</octave></pitch><duration>120</duration><type>16th</type><staff>2</staff></note><note><pitch><step>A</step><octave>3</octave></pitch><duration>120</duration><type>16th</type><staff>2</staff></note><note><rest/><duration>480</duration><type>quarter</type><staff>2</staff></note>
<note><pitch><step>D</step><octave>3</octave></pitch><duration>120</duration><type>16th</type><staff>2</staff></note><note><pitch><step>G</step><octave>3</octave></pitch><duration>120</duration><type>16th</type><staff>2</staff></note><note><rest/><duration>240</duration><type>eighth</type><staff>2</staff></note><note><rest/><duration>480</duration><type>quarter</type><staff>2</staff></note>
</measure>
<measure number="26">
<note><pitch><step>F</step><alter>1</alter><octave>5</octave></pitch><duration>480</duration><type>quarter</type><staff>1</staff><notations><slur type="start"/></notations></note><note><pitch><step>C</step><octave>5</octave></pitch><duration>240</duration><type>eighth</type><staff>1</staff></note><note><pitch><step>A</step><octave>4</octave></pitch><duration>240</duration><type>eighth</type><staff>1</staff></note>
<note><pitch><step>B</step><alter>-1</alter><octave>4</octave></pitch><duration>960</duration><type>half</type><staff>1</staff><notations><slur type="stop"/></notations></note>
<note><pitch><step>B</step><octave>2</octave></pitch><duration>120</duration><type>16th</type><staff>2</staff></note><note><pitch><step>E</step><octave>3</octave></pitch><duration>120</duration><type>16th</type><staff>2</staff></note><note><rest/><duration>240</duration><type>eighth</type><staff>2</staff></note><note><rest/><duration>480</duration><type>quarter</type><staff>2</staff></note>
<note><pitch><step>F</step><alter>1</alter><octave>3</octave></pitch><duration>120</duration><type>16th</type><staff>2</staff></note><note><pitch><step>C</step><octave>4</octave></pitch><duration>120</duration><type>16th</type><staff>2</staff></note><note><pitch><step>A</step><octave>3</octave></pitch><duration>480</duration><type>quarter</type><staff>2</staff></note><note><rest/><duration>480</duration><type>quarter</type><staff>2</staff></note>
</measure>
<measure number="27">
<note><rest/><duration>240</duration><type>eighth</type><staff>1</staff></note><note><pitch><step>B</step><alter>-1</alter><octave>4</octave></pitch><duration>120</duration><type>16th</type><staff>1</staff><notations><slur type="start"/></notations></note><note><pitch><step>E</step><octave>5</octave></pitch><duration>120</duration><type>16th</type><staff>1</staff></note><note><pitch><step>F</step><alter>1</alter><octave>5</octave></pitch><duration>480</duration><type>quarter</type><staff>1</staff></note>
<note><pitch><step>C</step><octave>5</octave></pitch><duration>480</duration><type>quarter</type><staff>1</staff></note><note><pitch><step>A</step><octave>4</octave></pitch><duration>480</duration><type>quarter</type><staff>1</staff><notations><slur type="stop"/></notations></note>
<note><pitch><step>E</step><octave>2</octave></pitch><duration>480</duration><type>quarter</type><staff>2</staff></note><note><rest/><duration>240</duration><type>eighth</type><staff>2</staff></note><note><pitch><step>B</step><alter>-1</alter><octave>2</octave></pitch><duration>120</duration><type>16th</type><staff>2</staff></note><note><pitch><step>E</step><octave>3</octave></pitch><duration>120</duration><type>16th</type><staff>2</staff></note>
<note><pitch><step>A</step><octave>3</octave></pitch><duration>240</duration><type>eighth</type><staff>2</staff></note><note><rest/><duration>240</duration><type>eighth</type><staff>2</staff></note><note><pitch><step>D</step><octave>4</octave></pitch><duration>480</duration><type>quarter</type><staff>2</staff></note>
</measure>
<measure number="28">
<note><pitch><step>A</step><octave>4</octave></pitch><duration>1920</duration><type>whole</type><staff>1</staff><notations><fermata/></notations></note>
<note><pitch><step>A</step><octave>2</octave></pitch><duration>480</duration><type>quarter</type><staff>2</staff></note><note><pitch><step>E</step><octave>3</octave></pitch><duration>480</duration><type>quarter</type><staff>2</staff></note><note><pitch><step>A</step><octave>3</octave></pitch><duration>480</duration><type>quarter</type><staff>2</staff></note><note><pitch><step>E</step><octave>3</octave></pitch><duration>480</duration><type>quarter</type><staff>2</staff><notations><fermata/></notations></note>
<barline><bar-style>light-heavy</bar-style></barline>
</measure></part>
</score-partwise>