<?xml version="1.0" encoding="UTF-8"?>
<!DOCTYPE score-partwise PUBLIC "-//Recordare//DTD MusicXML 4.0 Partwise//EN" "http://www.musicxml.org/dtds/partwise.dtd">
<score-partwise version="4.0">
  <work><work-title>Movement III: Harmony Expanded (Bartók V4)</work-title></work>
  <identification><creator type="composer">Mike Bryant</creator></identification>
  <defaults>
    <scaling><millimeters>7.0</millimeters><tenths>40</tenths></scaling>
    <page-layout><page-height>1683</page-height><page-width>1190</page-width>
      <page-margins type="both"><left-margin>70</left-margin><right-margin>70</right-margin><top-margin>88</top-margin><bottom-margin>88</bottom-margin></page-margins></page-layout>
    <system-layout><system-distance>150</system-distance><top-system-distance>100</top-system-distance></system-layout>
    <staff-layout><staff-distance>65</staff-distance></staff-layout>
  </defaults>
  <part-list><score-part id="P1"><part-name>Piano</part-name></score-part></part-list>
  <part id="P1">
    <measure number="1">
      <attributes>
        <divisions>256</divisions><key><fifths>0</fifths></key>
        <time><beats>5</beats><beat-type>4</beat-type></time>
        <staves>2</staves>
        <clef number="1"><sign>G</sign><line>2</line></clef>
        <clef number="2"><sign>F</sign><line>4</line></clef>
      </attributes>
      <direction placement="above"><direction-type><words default-y="95" font-size="12" font-weight="bold">♩= 52, Molto misterioso</words></direction-type><staff>1</staff></direction>
      <direction placement="above"><direction-type><words default-y="80" font-size="14" font-weight="bold">MOVEMENT III — Deep Night (V4)</words></direction-type><staff>1</staff></direction>
      <direction placement="above"><direction-type><rehearsal default-y="60" font-size="14" font-weight="bold" enclosure="rectangle">C</rehearsal></direction-type><staff>1</staff></direction>
      <direction placement="above"><direction-type><words default-y="70" font-size="9" font-style="italic">A pedal + cluster</words></direction-type><staff>1</staff></direction>
      <harmony default-y="40"><root><root-step>X</root-step></root><kind text="A(addb2,#4)">none</kind><staff>1</staff></harmony>
      <note>
        <rest/>
        <duration>256</duration>
        <type>quarter</type>
        <staff>1</staff>
        <voice>1</voice>
      </note>
      <note>
        <pitch>
          <step>A</step>
          <octave>4</octave>
        </pitch>
        <duration>256</duration>
        <type>quarter</type>
        <staff>1</staff>
        <voice>1</voice>
      </note>
      <note>
        <pitch>
          <step>B</step>
          <alter>-1</alter>
          <octave>4</octave>
        </pitch>
        <duration>128</duration>
        <type>eighth</type>
        <staff>1</staff>
        <voice>1</voice>
      </note>
      <note>
        <pitch>
          <step>E</step>
          <octave>5</octave>
        </pitch>
        <duration>384</duration>
        <type>quarter</type>
        <dot/>
        <staff>1</staff>
        <voice>1</voice>
      </note>
      <note>
        <rest/>
        <duration>256</duration>
        <type>quarter</type>
        <staff>1</staff>
        <voice>1</voice>
      </note>
      <backup><duration>1280</duration></backup>
      <note>
        <pitch>
          <step>A</step>
          <octave>1</octave>
        </pitch>
        <duration>512</duration>
        <type>half</type>
        <staff>2</staff>
        <voice>5</voice>
      </note>
      <note>
        <pitch>
          <step>A</step>
          <octave>3</octave>
        </pitch>
        <duration>384</duration>
        <type>quarter</type>
        <dot/>
        <staff>2</staff>
        <voice>5</voice>
      </note>
      <note>
        <chord/>
        <pitch>
          <step>B</step>
          <alter>-1</alter>
          <octave>3</octave>
        </pitch>
        <duration>384</duration>
        <type>quarter</type>
        <dot/>
        <staff>2</staff>
        <voice>5</voice>
      </note>
      <note>
        <chord/>
        <pitch>
          <step>D</step>
          <alter>1</alter>
          <octave>4</octave>
        </pitch>
        <duration>384</duration>
        <type>quarter</type>
        <dot/>
        <staff>2</staff>
        <voice>5</voice>
      </note>
      <note>
        <pitch>
          <step>A</step>
          <octave>2</octave>
        </pitch>
        <duration>256</duration>
        <type>quarter</type>
        <staff>2</staff>
        <voice>5</voice>
      </note>
      <note>
        <rest/>
        <duration>128</duration>
        <type>eighth</type>
        <staff>2</staff>
        <voice>5</voice>
      </note>
    </measure>
    <measure number="2">
      <direction placement="above"><direction-type><words default-y="70" font-size="9" font-style="italic">pedal continues</words></direction-type><staff>1</staff></direction>
      <harmony default-y="40"><root><root-step>X</root-step></root><kind text="A(add2,add9)">none</kind><staff>1</staff></harmony>
      <note>
        <pitch>
          <step>E</step>
          <octave>5</octave>
        </pitch>
        <duration>128</duration>
        <type>eighth</type>
        <staff>1</staff>
        <voice>1</voice>
      </note>
      <note>
        <pitch>
          <step>D</step>
          <octave>5</octave>
        </pitch>
        <duration>128</duration>
        <type>eighth</type>
        <staff>1</staff>
        <voice>1</voice>
      </note>
      <note>
        <pitch>
          <step>E</step>
          <octave>5</octave>
        </pitch>
        <duration>256</duration>
        <type>quarter</type>
        <staff>1</staff>
        <voice>1</voice>
      </note>
      <note>
        <rest/>
        <duration>128</duration>
        <type>eighth</type>
        <staff>1</staff>
        <voice>1</voice>
      </note>
      <note>
        <pitch>
          <step>B</step>
          <alter>-1</alter>
          <octave>4</octave>
        </pitch>
        <duration>128</duration>
        <type>eighth</type>
        <staff>1</staff>
        <voice>1</voice>
      </note>
      <note>
        <pitch>
          <step>A</step>
          <octave>4</octave>
        </pitch>
        <duration>512</duration>
        <type>half</type>
        <staff>1</staff>
        <voice>1</voice>
      </note>
      <backup><duration>1280</duration></backup>
      <note>
        <pitch>
          <step>A</step>
          <octave>1</octave>
        </pitch>
        <duration>512</duration>
        <type>half</type>
        <staff>2</staff>
        <voice>5</voice>
      </note>
      <note>
        <pitch>
          <step>B</step>
          <octave>3</octave>
        </pitch>
        <duration>384</duration>
        <type>quarter</type>
        <dot/>
        <staff>2</staff>
        <voice>5</voice>
      </note>
      <note>
        <chord/>
        <pitch>
          <step>E</step>
          <octave>4</octave>
        </pitch>
        <duration>384</duration>
        <type>quarter</type>
        <dot/>
        <staff>2</staff>
        <voice>5</voice>
      </note>
      <note>
        <pitch>
          <step>A</step>
          <octave>2</octave>
        </pitch>
        <duration>256</duration>
        <type>quarter</type>
        <staff>2</staff>
        <voice>5</voice>
      </note>
      <note>
        <rest/>
        <duration>128</duration>
        <type>eighth</type>
        <staff>2</staff>
        <voice>5</voice>
      </note>
    </measure>
    <measure number="3">
      <direction placement="above"><direction-type><words default-y="70" font-size="9" font-style="italic">← bitonal</words></direction-type><staff>1</staff></direction>
      <harmony default-y="40"><root><root-step>X</root-step></root><kind text="Bb/E">none</kind><staff>1</staff></harmony>
      <note>
        <pitch>
          <step>B</step>
          <alter>-1</alter>
          <octave>4</octave>
        </pitch>
        <duration>128</duration>
        <type>eighth</type>
        <staff>1</staff>
        <voice>1</voice>
        <notations>
          <articulations><staccato/></articulations>
        </notations>
      </note>
      <note>
        <pitch>
          <step>B</step>
          <alter>-1</alter>
          <octave>4</octave>
        </pitch>
        <duration>128</duration>
        <type>eighth</type>
        <staff>1</staff>
        <voice>1</voice>
        <notations>
          <articulations><staccato/></articulations>
        </notations>
      </note>
      <note>
        <pitch>
          <step>B</step>
          <alter>-1</alter>
          <octave>4</octave>
        </pitch>
        <duration>128</duration>
        <type>eighth</type>
        <staff>1</staff>
        <voice>1</voice>
      </note>
      <note>
        <rest/>
        <duration>128</duration>
        <type>eighth</type>
        <staff>1</staff>
        <voice>1</voice>
      </note>
      <note>
        <pitch>
          <step>F</step>
          <octave>5</octave>
        </pitch>
        <duration>256</duration>
        <type>quarter</type>
        <staff>1</staff>
        <voice>1</voice>
      </note>
      <note>
        <pitch>
          <step>G</step>
          <alter>-1</alter>
          <octave>5</octave>
        </pitch>
        <duration>256</duration>
        <type>quarter</type>
        <staff>1</staff>
        <voice>1</voice>
      </note>
      <note>
        <rest/>
        <duration>256</duration>
        <type>quarter</type>
        <staff>1</staff>
        <voice>1</voice>
      </note>
      <backup><duration>1280</duration></backup>
      <note>
        <pitch>
          <step>E</step>
          <octave>1</octave>
        </pitch>
        <duration>512</duration>
        <type>half</type>
        <staff>2</staff>
        <voice>5</voice>
      </note>
      <note>
        <pitch>
          <step>B</step>
          <alter>-1</alter>
          <octave>3</octave>
        </pitch>
        <duration>256</duration>
        <type>quarter</type>
        <staff>2</staff>
        <voice>5</voice>
      </note>
      <note>
        <chord/>
        <pitch>
          <step>D</step>
          <octave>4</octave>
        </pitch>
        <duration>256</duration>
        <type>quarter</type>
        <staff>2</staff>
        <voice>5</voice>
      </note>
      <note>
        <chord/>
        <pitch>
          <step>F</step>
          <octave>4</octave>
        </pitch>
        <duration>256</duration>
        <type>quarter</type>
        <staff>2</staff>
        <voice>5</voice>
      </note>
      <note>
        <rest/>
        <duration>512</duration>
        <type>half</type>
        <staff>2</staff>
        <voice>5</voice>
      </note>
    </measure>
    <measure number="4">
      <direction placement="above"><direction-type><words default-y="70" font-size="9" font-style="italic">← ppp void</words></direction-type><staff>1</staff></direction>
      <harmony default-y="40"><root><root-step>X</root-step></root><kind text="(silence)">none</kind><staff>1</staff></harmony>
      <note>
        <rest/>
        <duration>512</duration>
        <type>half</type>
        <staff>1</staff>
        <voice>1</voice>
      </note>
      <note>
        <pitch>
          <step>A</step>
          <octave>4</octave>
        </pitch>
        <duration>256</duration>
        <type>quarter</type>
        <staff>1</staff>
        <voice>1</voice>
      </note>
      <note>
        <rest/>
        <duration>512</duration>
        <type>half</type>
        <staff>1</staff>
        <voice>1</voice>
      </note>
      <backup><duration>1280</duration></backup>
      <note>
        <rest/>
        <duration>1024</duration>
        <type>whole</type>
        <staff>2</staff>
        <voice>5</voice>
      </note>
      <note>
        <pitch>
          <step>E</step>
          <octave>1</octave>
        </pitch>
        <duration>256</duration>
        <type>quarter</type>
        <staff>2</staff>
        <voice>5</voice>
      </note>
    </measure>
    <measure number="5">
      <print new-system="yes"/>
      <direction placement="above"><direction-type><rehearsal default-y="60" font-size="14" font-weight="bold" enclosure="rectangle">D</rehearsal></direction-type><staff>1</staff></direction>
      <direction placement="above"><direction-type><words default-y="70" font-size="9" font-style="italic">← octatonic dominant</words></direction-type><staff>1</staff></direction>
      <harmony default-y="40"><root><root-step>X</root-step></root><kind text="E7(#9,#11)">none</kind><staff>1</staff></harmony>
      <note>
        <rest/>
        <duration>256</duration>
        <type>quarter</type>
        <staff>1</staff>
        <voice>1</voice>
      </note>
      <note>
        <pitch>
          <step>E</step>
          <octave>4</octave>
        </pitch>
        <duration>256</duration>
        <type>quarter</type>
        <staff>1</staff>
        <voice>1</voice>
      </note>
      <note>
        <pitch>
          <step>F</step>
          <octave>4</octave>
        </pitch>
        <duration>128</duration>
        <type>eighth</type>
        <staff>1</staff>
        <voice>1</voice>
      </note>
      <note>
        <pitch>
          <step>B</step>
          <octave>4</octave>
        </pitch>
        <duration>384</duration>
        <type>quarter</type>
        <dot/>
        <staff>1</staff>
        <voice>1</voice>
      </note>
      <note>
        <rest/>
        <duration>256</duration>
        <type>quarter</type>
        <staff>1</staff>
        <voice>1</voice>
      </note>
      <backup><duration>1280</duration></backup>
      <note>
        <pitch>
          <step>E</step>
          <octave>1</octave>
        </pitch>
        <duration>512</duration>
        <type>half</type>
        <staff>2</staff>
        <voice>5</voice>
      </note>
      <note>
        <pitch>
          <step>G</step>
          <alter>1</alter>
          <octave>3</octave>
        </pitch>
        <duration>384</duration>
        <type>quarter</type>
        <dot/>
        <staff>2</staff>
        <voice>5</voice>
      </note>
      <note>
        <chord/>
        <pitch>
          <step>A</step>
          <alter>1</alter>
          <octave>3</octave>
        </pitch>
        <duration>384</duration>
        <type>quarter</type>
        <dot/>
        <staff>2</staff>
        <voice>5</voice>
      </note>
      <note>
        <chord/>
        <pitch>
          <step>D</step>
          <octave>4</octave>
        </pitch>
        <duration>384</duration>
        <type>quarter</type>
        <dot/>
        <staff>2</staff>
        <voice>5</voice>
      </note>
      <note>
        <pitch>
          <step>E</step>
          <octave>2</octave>
        </pitch>
        <duration>256</duration>
        <type>quarter</type>
        <staff>2</staff>
        <voice>5</voice>
      </note>
      <note>
        <rest/>
        <duration>128</duration>
        <type>eighth</type>
        <staff>2</staff>
        <voice>5</voice>
      </note>
    </measure>
    <measure number="6">
      <direction placement="above"><direction-type><words default-y="70" font-size="9" font-style="italic">← bitonal</words></direction-type><staff>1</staff></direction>
      <harmony default-y="40"><root><root-step>X</root-step></root><kind text="C#/G">none</kind><staff>1</staff></harmony>
      <note>
        <pitch>
          <step>B</step>
          <octave>4</octave>
        </pitch>
        <duration>128</duration>
        <type>eighth</type>
        <staff>1</staff>
        <voice>1</voice>
      </note>
      <note>
        <pitch>
          <step>C</step>
          <octave>5</octave>
        </pitch>
        <duration>128</duration>
        <type>eighth</type>
        <staff>1</staff>
        <voice>1</voice>
      </note>
      <note>
        <pitch>
          <step>E</step>
          <alter>-1</alter>
          <octave>5</octave>
        </pitch>
        <duration>256</duration>
        <type>quarter</type>
        <staff>1</staff>
        <voice>1</voice>
      </note>
      <note>
        <pitch>
          <step>D</step>
          <octave>5</octave>
        </pitch>
        <duration>256</duration>
        <type>quarter</type>
        <staff>1</staff>
        <voice>1</voice>
      </note>
      <note>
        <rest/>
        <duration>256</duration>
        <type>quarter</type>
        <staff>1</staff>
        <voice>1</voice>
      </note>
      <note>
        <pitch>
          <step>E</step>
          <octave>5</octave>
        </pitch>
        <duration>256</duration>
        <type>quarter</type>
        <staff>1</staff>
        <voice>1</voice>
      </note>
      <backup><duration>1280</duration></backup>
      <note>
        <pitch>
          <step>G</step>
          <octave>1</octave>
        </pitch>
        <duration>512</duration>
        <type>half</type>
        <staff>2</staff>
        <voice>5</voice>
      </note>
      <note>
        <pitch>
          <step>C</step>
          <alter>1</alter>
          <octave>3</octave>
        </pitch>
        <duration>384</duration>
        <type>quarter</type>
        <dot/>
        <staff>2</staff>
        <voice>5</voice>
      </note>
      <note>
        <chord/>
        <pitch>
          <step>E</step>
          <alter>1</alter>
          <octave>3</octave>
        </pitch>
        <duration>384</duration>
        <type>quarter</type>
        <dot/>
        <staff>2</staff>
        <voice>5</voice>
      </note>
      <note>
        <chord/>
        <pitch>
          <step>G</step>
          <alter>1</alter>
          <octave>3</octave>
        </pitch>
        <duration>384</duration>
        <type>quarter</type>
        <dot/>
        <staff>2</staff>
        <voice>5</voice>
      </note>
      <note>
        <pitch>
          <step>G</step>
          <octave>2</octave>
        </pitch>
        <duration>256</duration>
        <type>quarter</type>
        <staff>2</staff>
        <voice>5</voice>
      </note>
      <note>
        <rest/>
        <duration>128</duration>
        <type>eighth</type>
        <staff>2</staff>
        <voice>5</voice>
      </note>
    </measure>
    <measure number="7">
      <direction placement="above"><direction-type><words default-y="70" font-size="9" font-style="italic">← cluster</words></direction-type><staff>1</staff></direction>
      <harmony default-y="40"><root><root-step>X</root-step></root><kind text="C(add2,#4)">none</kind><staff>1</staff></harmony>
      <note>
        <pitch>
          <step>E</step>
          <octave>5</octave>
        </pitch>
        <duration>256</duration>
        <type>quarter</type>
        <staff>1</staff>
        <voice>1</voice>
      </note>
      <note>
        <rest/>
        <duration>128</duration>
        <type>eighth</type>
        <staff>1</staff>
        <voice>1</voice>
      </note>
      <note>
        <pitch>
          <step>D</step>
          <octave>5</octave>
        </pitch>
        <duration>128</duration>
        <type>eighth</type>
        <staff>1</staff>
        <voice>1</voice>
      </note>
      <note>
        <pitch>
          <step>C</step>
          <octave>5</octave>
        </pitch>
        <duration>512</duration>
        <type>half</type>
        <staff>1</staff>
        <voice>1</voice>
      </note>
      <note>
        <rest/>
        <duration>256</duration>
        <type>quarter</type>
        <staff>1</staff>
        <voice>1</voice>
      </note>
      <backup><duration>1280</duration></backup>
      <note>
        <pitch>
          <step>C</step>
          <octave>2</octave>
        </pitch>
        <duration>512</duration>
        <type>half</type>
        <staff>2</staff>
        <voice>5</voice>
      </note>
      <note>
        <pitch>
          <step>D</step>
          <octave>3</octave>
        </pitch>
        <duration>384</duration>
        <type>quarter</type>
        <dot/>
        <staff>2</staff>
        <voice>5</voice>
      </note>
      <note>
        <chord/>
        <pitch>
          <step>F</step>
          <alter>1</alter>
          <octave>3</octave>
        </pitch>
        <duration>384</duration>
        <type>quarter</type>
        <dot/>
        <staff>2</staff>
        <voice>5</voice>
      </note>
      <note>
        <pitch>
          <step>C</step>
          <octave>2</octave>
        </pitch>
        <duration>256</duration>
        <type>quarter</type>
        <staff>2</staff>
        <voice>5</voice>
      </note>
      <note>
        <rest/>
        <duration>128</duration>
        <type>eighth</type>
        <staff>2</staff>
        <voice>5</voice>
      </note>
    </measure>
    <measure number="8">
      <direction placement="above"><direction-type><words default-y="70" font-size="9" font-style="italic">← bitonal</words></direction-type><staff>1</staff></direction>
      <harmony default-y="40"><root><root-step>X</root-step></root><kind text="F#/C">none</kind><staff>1</staff></harmony>
      <note>
        <pitch>
          <step>B</step>
          <octave>4</octave>
        </pitch>
        <duration>128</duration>
        <type>eighth</type>
        <staff>1</staff>
        <voice>1</voice>
      </note>
      <note>
        <pitch>
          <step>C</step>
          <octave>5</octave>
        </pitch>
        <duration>128</duration>
        <type>eighth</type>
        <staff>1</staff>
        <voice>1</voice>
      </note>
      <note>
        <pitch>
          <step>D</step>
          <octave>5</octave>
        </pitch>
        <duration>128</duration>
        <type>eighth</type>
        <staff>1</staff>
        <voice>1</voice>
      </note>
      <note>
        <pitch>
          <step>E</step>
          <octave>5</octave>
        </pitch>
        <duration>128</duration>
        <type>eighth</type>
        <staff>1</staff>
        <voice>1</voice>
      </note>
      <note>
        <pitch>
          <step>F</step>
          <octave>5</octave>
        </pitch>
        <duration>256</duration>
        <type>quarter</type>
        <staff>1</staff>
        <voice>1</voice>
      </note>
      <note>
        <rest/>
        <duration>512</duration>
        <type>half</type>
        <staff>1</staff>
        <voice>1</voice>
      </note>
      <backup><duration>1280</duration></backup>
      <note>
        <pitch>
          <step>C</step>
          <octave>1</octave>
        </pitch>
        <duration>512</duration>
        <type>half</type>
        <staff>2</staff>
        <voice>5</voice>
      </note>
      <note>
        <pitch>
          <step>F</step>
          <alter>1</alter>
          <octave>3</octave>
        </pitch>
        <duration>384</duration>
        <type>quarter</type>
        <dot/>
        <staff>2</staff>
        <voice>5</voice>
      </note>
      <note>
        <chord/>
        <pitch>
          <step>A</step>
          <alter>1</alter>
          <octave>3</octave>
        </pitch>
        <duration>384</duration>
        <type>quarter</type>
        <dot/>
        <staff>2</staff>
        <voice>5</voice>
      </note>
      <note>
        <chord/>
        <pitch>
          <step>C</step>
          <alter>1</alter>
          <octave>4</octave>
        </pitch>
        <duration>384</duration>
        <type>quarter</type>
        <dot/>
        <staff>2</staff>
        <voice>5</voice>
      </note>
      <note>
        <pitch>
          <step>C</step>
          <octave>2</octave>
        </pitch>
        <duration>256</duration>
        <type>quarter</type>
        <staff>2</staff>
        <voice>5</voice>
      </note>
      <note>
        <rest/>
        <duration>128</duration>
        <type>eighth</type>
        <staff>2</staff>
        <voice>5</voice>
      </note>
    </measure>
    <measure number="9">
      <print new-system="yes"/>
      <direction placement="above"><direction-type><words default-y="70" font-size="9" font-style="italic">← dense cluster</words></direction-type><staff>1</staff></direction>
      <harmony default-y="40"><root><root-step>X</root-step></root><kind text="Bb(add2,#4,b6)">none</kind><staff>1</staff></harmony>
      <note>
        <pitch>
          <step>F</step>
          <octave>5</octave>
        </pitch>
        <duration>128</duration>
        <type>eighth</type>
        <staff>1</staff>
        <voice>1</voice>
      </note>
      <note>
        <pitch>
          <step>G</step>
          <alter>-1</alter>
          <octave>5</octave>
        </pitch>
        <duration>128</duration>
        <type>eighth</type>
        <staff>1</staff>
        <voice>1</voice>
      </note>
      <note>
        <pitch>
          <step>B</step>
          <alter>-1</alter>
          <octave>5</octave>
        </pitch>
        <duration>256</duration>
        <type>quarter</type>
        <staff>1</staff>
        <voice>1</voice>
      </note>
      <note>
        <pitch>
          <step>A</step>
          <octave>5</octave>
        </pitch>
        <duration>128</duration>
        <type>eighth</type>
        <staff>1</staff>
        <voice>1</voice>
      </note>
      <note>
        <pitch>
          <step>B</step>
          <alter>-1</alter>
          <octave>5</octave>
        </pitch>
        <duration>128</duration>
        <type>eighth</type>
        <staff>1</staff>
        <voice>1</voice>
      </note>
      <note>
        <pitch>
          <step>C</step>
          <octave>6</octave>
        </pitch>
        <duration>512</duration>
        <type>half</type>
        <staff>1</staff>
        <voice>1</voice>
      </note>
      <backup><duration>1280</duration></backup>
      <note>
        <pitch>
          <step>B</step>
          <alter>-1</alter>
          <octave>1</octave>
        </pitch>
        <duration>512</duration>
        <type>half</type>
        <staff>2</staff>
        <voice>5</voice>
      </note>
      <note>
        <pitch>
          <step>C</step>
          <octave>3</octave>
        </pitch>
        <duration>384</duration>
        <type>quarter</type>
        <dot/>
        <staff>2</staff>
        <voice>5</voice>
      </note>
      <note>
        <chord/>
        <pitch>
          <step>E</step>
          <octave>3</octave>
        </pitch>
        <duration>384</duration>
        <type>quarter</type>
        <dot/>
        <staff>2</staff>
        <voice>5</voice>
      </note>
      <note>
        <chord/>
        <pitch>
          <step>G</step>
          <alter>-1</alter>
          <octave>3</octave>
        </pitch>
        <duration>384</duration>
        <type>quarter</type>
        <dot/>
        <staff>2</staff>
        <voice>5</voice>
      </note>
      <note>
        <pitch>
          <step>B</step>
          <alter>-1</alter>
          <octave>2</octave>
        </pitch>
        <duration>256</duration>
        <type>quarter</type>
        <staff>2</staff>
        <voice>5</voice>
      </note>
      <note>
        <rest/>
        <duration>128</duration>
        <type>eighth</type>
        <staff>2</staff>
        <voice>5</voice>
      </note>
    </measure>
    <measure number="10">
      <direction placement="above"><direction-type><words default-y="70" font-size="9" font-style="italic">A pedal + quartal</words></direction-type><staff>1</staff></direction>
      <harmony default-y="40"><root><root-step>X</root-step></root><kind text="A5(add4)">none</kind><staff>1</staff></harmony>
      <note>
        <pitch>
          <step>C</step>
          <octave>6</octave>
        </pitch>
        <duration>256</duration>
        <type>quarter</type>
        <staff>1</staff>
        <voice>1</voice>
      </note>
      <note>
        <pitch>
          <step>D</step>
          <octave>6</octave>
        </pitch>
        <duration>128</duration>
        <type>eighth</type>
        <staff>1</staff>
        <voice>1</voice>
      </note>
      <note>
        <pitch>
          <step>E</step>
          <alter>-1</alter>
          <octave>6</octave>
        </pitch>
        <duration>128</duration>
        <type>eighth</type>
        <staff>1</staff>
        <voice>1</voice>
      </note>
      <note>
        <pitch>
          <step>F</step>
          <alter>1</alter>
          <octave>6</octave>
        </pitch>
        <duration>256</duration>
        <type>quarter</type>
        <staff>1</staff>
        <voice>1</voice>
      </note>
      <note>
        <rest/>
        <duration>256</duration>
        <type>quarter</type>
        <staff>1</staff>
        <voice>1</voice>
      </note>
      <note>
        <pitch>
          <step>G</step>
          <octave>6</octave>
        </pitch>
        <duration>256</duration>
        <type>quarter</type>
        <staff>1</staff>
        <voice>1</voice>
      </note>
      <backup><duration>1280</duration></backup>
      <note>
        <pitch>
          <step>A</step>
          <octave>1</octave>
        </pitch>
        <duration>512</duration>
        <type>half</type>
        <staff>2</staff>
        <voice>5</voice>
      </note>
      <note>
        <pitch>
          <step>D</step>
          <octave>3</octave>
        </pitch>
        <duration>384</duration>
        <type>quarter</type>
        <dot/>
        <staff>2</staff>
        <voice>5</voice>
      </note>
      <note>
        <chord/>
        <pitch>
          <step>E</step>
          <octave>3</octave>
        </pitch>
        <duration>384</duration>
        <type>quarter</type>
        <dot/>
        <staff>2</staff>
        <voice>5</voice>
      </note>
      <note>
        <pitch>
          <step>A</step>
          <octave>2</octave>
        </pitch>
        <duration>256</duration>
        <type>quarter</type>
        <staff>2</staff>
        <voice>5</voice>
      </note>
      <note>
        <rest/>
        <duration>128</duration>
        <type>eighth</type>
        <staff>2</staff>
        <voice>5</voice>
      </note>
    </measure>
    <measure number="11">
      <direction placement="above"><direction-type><words default-y="70" font-size="9" font-style="italic">← CLIMAX cluster</words></direction-type><staff>1</staff></direction>
      <harmony default-y="40"><root><root-step>X</root-step></root><kind text="A(addb2,b3,#4)">none</kind><staff>1</staff></harmony>
      <note>
        <rest/>
        <duration>256</duration>
        <type>quarter</type>
        <staff>1</staff>
        <voice>1</voice>
      </note>
      <note>
        <pitch>
          <step>A</step>
          <alter>-1</alter>
          <octave>6</octave>
        </pitch>
        <duration>768</duration>
        <type>half</type>
        <dot/>
        <staff>1</staff>
        <voice>1</voice>
      </note>
      <note>
        <rest/>
        <duration>256</duration>
        <type>quarter</type>
        <staff>1</staff>
        <voice>1</voice>
      </note>
      <backup><duration>1280</duration></backup>
      <note>
        <pitch>
          <step>A</step>
          <octave>1</octave>
        </pitch>
        <duration>512</duration>
        <type>half</type>
        <staff>2</staff>
        <voice>5</voice>
      </note>
      <note>
        <pitch>
          <step>B</step>
          <alter>-1</alter>
          <octave>3</octave>
        </pitch>
        <duration>384</duration>
        <type>quarter</type>
        <dot/>
        <staff>2</staff>
        <voice>5</voice>
      </note>
      <note>
        <chord/>
        <pitch>
          <step>C</step>
          <octave>3</octave>
        </pitch>
        <duration>384</duration>
        <type>quarter</type>
        <dot/>
        <staff>2</staff>
        <voice>5</voice>
      </note>
      <note>
        <chord/>
        <pitch>
          <step>D</step>
          <alter>1</alter>
          <octave>3</octave>
        </pitch>
        <duration>384</duration>
        <type>quarter</type>
        <dot/>
        <staff>2</staff>
        <voice>5</voice>
      </note>
      <note>
        <pitch>
          <step>A</step>
          <octave>2</octave>
        </pitch>
        <duration>256</duration>
        <type>quarter</type>
        <staff>2</staff>
        <voice>5</voice>
      </note>
      <note>
        <rest/>
        <duration>128</duration>
        <type>eighth</type>
        <staff>2</staff>
        <voice>5</voice>
      </note>
    </measure>
    <measure number="12">
      <direction placement="above"><direction-type><words default-y="70" font-size="9" font-style="italic">← BREAKTHROUGH (bright)</words></direction-type><staff>1</staff></direction>
      <harmony default-y="40"><root><root-step>X</root-step></root><kind text="D major">none</kind><staff>1</staff></harmony>
      <note>
        <pitch>
          <step>E</step>
          <octave>5</octave>
        </pitch>
        <duration>128</duration>
        <type>eighth</type>
        <staff>1</staff>
        <voice>1</voice>
        <notations>
          <articulations><staccato/></articulations>
        </notations>
      </note>
      <note>
        <rest/>
        <duration>128</duration>
        <type>eighth</type>
        <staff>1</staff>
        <voice>1</voice>
      </note>
      <note>
        <pitch>
          <step>B</step>
          <alter>-1</alter>
          <octave>4</octave>
        </pitch>
        <duration>128</duration>
        <type>eighth</type>
        <staff>1</staff>
        <voice>1</voice>
        <notations>
          <articulations><staccato/></articulations>
        </notations>
      </note>
      <note>
        <rest/>
        <duration>128</duration>
        <type>eighth</type>
        <staff>1</staff>
        <voice>1</voice>
      </note>
      <note>
        <pitch>
          <step>A</step>
          <octave>4</octave>
        </pitch>
        <duration>256</duration>
        <type>quarter</type>
        <staff>1</staff>
        <voice>1</voice>
      </note>
      <note>
        <rest/>
        <duration>512</duration>
        <type>half</type>
        <staff>1</staff>
        <voice>1</voice>
      </note>
      <backup><duration>1280</duration></backup>
      <note>
        <pitch>
          <step>D</step>
          <octave>2</octave>
        </pitch>
        <duration>512</duration>
        <type>half</type>
        <staff>2</staff>
        <voice>5</voice>
      </note>
      <note>
        <chord/>
        <pitch>
          <step>F</step>
          <alter>1</alter>
          <octave>2</octave>
        </pitch>
        <duration>512</duration>
        <type>half</type>
        <staff>2</staff>
        <voice>5</voice>
      </note>
      <note>
        <chord/>
        <pitch>
          <step>A</step>
          <octave>2</octave>
        </pitch>
        <duration>512</duration>
        <type>half</type>
        <staff>2</staff>
        <voice>5</voice>
      </note>
      <note>
        <pitch>
          <step>D</step>
          <octave>3</octave>
        </pitch>
        <duration>256</duration>
        <type>quarter</type>
        <staff>1</staff>
        <voice>5</voice>
      </note>
      <note>
        <rest/>
        <duration>512</duration>
        <type>half</type>
        <staff>2</staff>
        <voice>5</voice>
      </note>
    </measure>
    <measure number="13">
      <print new-system="yes"/>
      <direction placement="above"><direction-type><rehearsal default-y="60" font-size="14" font-weight="bold" enclosure="rectangle">E</rehearsal></direction-type><staff>1</staff></direction>
      <direction placement="above"><direction-type><words default-y="70" font-size="9" font-style="italic">A pedal returns</words></direction-type><staff>1</staff></direction>
      <harmony default-y="40"><root><root-step>X</root-step></root><kind text="A(add2)">none</kind><staff>1</staff></harmony>
      <note>
        <rest/>
        <duration>256</duration>
        <type>quarter</type>
        <staff>1</staff>
        <voice>1</voice>
      </note>
      <note>
        <pitch>
          <step>A</step>
          <octave>4</octave>
        </pitch>
        <duration>256</duration>
        <type>quarter</type>
        <staff>1</staff>
        <voice>1</voice>
      </note>
      <note>
        <pitch>
          <step>B</step>
          <alter>-1</alter>
          <octave>4</octave>
        </pitch>
        <duration>128</duration>
        <type>eighth</type>
        <staff>1</staff>
        <voice>1</voice>
      </note>
      <note>
        <pitch>
          <step>E</step>
          <octave>5</octave>
        </pitch>
        <duration>384</duration>
        <type>quarter</type>
        <dot/>
        <staff>1</staff>
        <voice>1</voice>
      </note>
      <note>
        <rest/>
        <duration>256</duration>
        <type>quarter</type>
        <staff>1</staff>
        <voice>1</voice>
      </note>
      <backup><duration>1280</duration></backup>
      <note>
        <pitch>
          <step>A</step>
          <octave>1</octave>
        </pitch>
        <duration>512</duration>
        <type>half</type>
        <staff>2</staff>
        <voice>5</voice>
      </note>
      <note>
        <pitch>
          <step>A</step>
          <octave>3</octave>
        </pitch>
        <duration>384</duration>
        <type>quarter</type>
        <dot/>
        <staff>2</staff>
        <voice>5</voice>
      </note>
      <note>
        <chord/>
        <pitch>
          <step>B</step>
          <octave>3</octave>
        </pitch>
        <duration>384</duration>
        <type>quarter</type>
        <dot/>
        <staff>2</staff>
        <voice>5</voice>
      </note>
      <note>
        <pitch>
          <step>A</step>
          <octave>2</octave>
        </pitch>
        <duration>256</duration>
        <type>quarter</type>
        <staff>2</staff>
        <voice>5</voice>
      </note>
      <note>
        <rest/>
        <duration>128</duration>
        <type>eighth</type>
        <staff>2</staff>
        <voice>5</voice>
      </note>
    </measure>
    <measure number="14">
      <direction placement="above"><direction-type><words default-y="70" font-size="9" font-style="italic">fading</words></direction-type><staff>1</staff></direction>
      <harmony default-y="40"><root><root-step>X</root-step></root><kind text="A5(add9)">none</kind><staff>1</staff></harmony>
      <note>
        <pitch>
          <step>E</step>
          <octave>5</octave>
        </pitch>
        <duration>256</duration>
        <type>quarter</type>
        <staff>1</staff>
        <voice>1</voice>
      </note>
      <note>
        <pitch>
          <step>D</step>
          <octave>5</octave>
        </pitch>
        <duration>128</duration>
        <type>eighth</type>
        <staff>1</staff>
        <voice>1</voice>
      </note>
      <note>
        <pitch>
          <step>C</step>
          <octave>5</octave>
        </pitch>
        <duration>128</duration>
        <type>eighth</type>
        <staff>1</staff>
        <voice>1</voice>
      </note>
      <note>
        <pitch>
          <step>B</step>
          <octave>4</octave>
        </pitch>
        <duration>256</duration>
        <type>quarter</type>
        <staff>1</staff>
        <voice>1</voice>
      </note>
      <note>
        <pitch>
          <step>A</step>
          <octave>4</octave>
        </pitch>
        <duration>512</duration>
        <type>half</type>
        <staff>1</staff>
        <voice>1</voice>
      </note>
      <backup><duration>1280</duration></backup>
      <note>
        <pitch>
          <step>A</step>
          <octave>1</octave>
        </pitch>
        <duration>512</duration>
        <type>half</type>
        <staff>2</staff>
        <voice>5</voice>
      </note>
      <note>
        <chord/>
        <pitch>
          <step>E</step>
          <octave>2</octave>
        </pitch>
        <duration>512</duration>
        <type>half</type>
        <staff>2</staff>
        <voice>5</voice>
      </note>
      <note>
        <pitch>
          <step>A</step>
          <octave>3</octave>
        </pitch>
        <duration>384</duration>
        <type>quarter</type>
        <dot/>
        <staff>2</staff>
        <voice>5</voice>
      </note>
      <note>
        <chord/>
        <pitch>
          <step>B</step>
          <octave>3</octave>
        </pitch>
        <duration>384</duration>
        <type>quarter</type>
        <dot/>
        <staff>2</staff>
        <voice>5</voice>
      </note>
      <note>
        <rest/>
        <duration>256</duration>
        <type>quarter</type>
        <staff>2</staff>
        <voice>5</voice>
      </note>
      <note>
        <rest/>
        <duration>128</duration>
        <type>eighth</type>
        <staff>2</staff>
        <voice>5</voice>
      </note>
    </measure>
    <measure number="15">
      <direction placement="above"><direction-type><words default-y="70" font-size="9" font-style="italic">← ppp</words></direction-type><staff>1</staff></direction>
      <harmony default-y="40"><root><root-step>X</root-step></root><kind text="(void)">none</kind><staff>1</staff></harmony>
      <note>
        <rest/>
        <duration>1024</duration>
        <type>whole</type>
        <staff>1</staff>
        <voice>1</voice>
      </note>
      <note>
        <pitch>
          <step>E</step>
          <octave>4</octave>
        </pitch>
        <duration>256</duration>
        <type>quarter</type>
        <staff>1</staff>
        <voice>1</voice>
      </note>
      <backup><duration>1280</duration></backup>
      <note>
        <rest/>
        <duration>768</duration>
        <type>half</type>
        <dot/>
        <staff>2</staff>
        <voice>5</voice>
      </note>
      <note>
        <pitch>
          <step>A</step>
          <octave>1</octave>
        </pitch>
        <duration>512</duration>
        <type>half</type>
        <staff>2</staff>
        <voice>5</voice>
      </note>
    </measure>
    <measure number="16">
      <direction placement="above"><direction-type><words default-y="70" font-size="9" font-style="italic">dissolving</words></direction-type><staff>1</staff></direction>
      <harmony default-y="40"><root><root-step>X</root-step></root><kind text="A(add#11) ppp">none</kind><staff>1</staff></harmony>
      <note>
        <pitch>
          <step>A</step>
          <octave>4</octave>
        </pitch>
        <duration>512</duration>
        <type>half</type>
        <staff>1</staff>
        <voice>1</voice>
        <notations>
          <fermata type="upright"/>
        </notations>
      </note>
      <note>
        <rest/>
        <duration>768</duration>
        <type>half</type>
        <dot/>
        <staff>1</staff>
        <voice>1</voice>
      </note>
      <backup><duration>1280</duration></backup>
      <note>
        <pitch>
          <step>A</step>
          <octave>1</octave>
        </pitch>
        <duration>1024</duration>
        <type>whole</type>
        <staff>2</staff>
        <voice>5</voice>
      </note>
      <note>
        <chord/>
        <pitch>
          <step>E</step>
          <octave>2</octave>
        </pitch>
        <duration>1024</duration>
        <type>whole</type>
        <staff>2</staff>
        <voice>5</voice>
      </note>
      <note>
        <chord/>
        <pitch>
          <step>D</step>
          <alter>1</alter>
          <octave>3</octave>
        </pitch>
        <duration>1024</duration>
        <type>whole</type>
        <staff>2</staff>
        <voice>5</voice>
      </note>
      <note>
        <rest/>
        <duration>256</duration>
        <type>quarter</type>
        <staff>2</staff>
        <voice>5</voice>
      </note>
      <barline location="right"><bar-style>light-heavy</bar-style></barline>
    </measure>
  </part>
</score-partwise>